<svg width="192" height="360" viewBox="0 0 192 360" fill="none" xmlns="http://www.w3.org/2000/svg">
<path opacity="0.04" fill-rule="evenodd" clip-rule="evenodd" d="M192 -233C192 -241.837 184.837 -249 176 -249H88C79.1634 -249 72 -241.837 72 -233V-193C72 -184.163 64.8366 -177 56 -177H16C7.16344 -177 0 -169.837 0 -161V16C0 24.8365 7.16344 32 16 32H176C184.837 32 192 24.8365 192 16V-153V-177V-233Z" fill="white"/>
<rect x="12" y="68" width="48" height="48" rx="8" fill="#36393A"/>
<path d="M30.1663 81.894C26.6792 83.9113 24.333 87.6816 24.333 91.9999M30.1663 81.894V86.1666M30.1663 81.894H25.8938" stroke="#818688" stroke-width="2" stroke-linecap="round" stroke-linejoin="round"/>
<path d="M25.8945 97.8335C27.9117 101.321 31.6821 103.667 36.0004 103.667M25.8945 97.8335H30.1671M25.8945 97.8335V102.106" stroke="#818688" stroke-width="2" stroke-linecap="round" stroke-linejoin="round"/>
<path d="M41.833 102.106C45.3202 100.089 47.6663 96.3183 47.6663 92M41.833 102.106V97.8333M41.833 102.106H46.1056" stroke="#818688" stroke-width="2" stroke-linecap="round" stroke-linejoin="round"/>
<path d="M46.1058 86.1668C44.0886 82.6797 40.3183 80.3335 36 80.3335M46.1058 86.1668H41.8333M46.1058 86.1668V81.8943" stroke="#818688" stroke-width="2" stroke-linecap="round" stroke-linejoin="round"/>
<path d="M38.917 86.9481C39.8038 87.4601 40.5402 88.1965 41.0522 89.0833C41.5641 89.9701 41.8337 90.976 41.8337 92C41.8337 93.0239 41.5641 94.0299 41.0521 94.9166C40.5401 95.8034 39.8037 96.5398 38.9169 97.0518C38.0301 97.5637 37.0242 97.8333 36.0002 97.8333C34.9763 97.8332 33.9703 97.5637 33.0836 97.0517C32.1968 96.5397 31.4604 95.8033 30.9484 94.9165C30.4365 94.0297 30.167 93.0237 30.167 91.9998L30.1699 91.8108C30.2026 90.8034 30.4957 89.8216 31.0208 88.9612C31.5458 88.1008 32.2849 87.3911 33.1658 86.9014C34.0468 86.4116 35.0397 86.1585 36.0476 86.1667C37.0555 86.1749 38.0441 86.4441 38.917 86.9481ZM36.0003 88.4998C35.8456 88.4998 35.6972 88.5612 35.5878 88.6706C35.4785 88.78 35.417 88.9284 35.417 89.0831C34.9529 89.0831 34.5077 89.2675 34.1796 89.5957C33.8514 89.9239 33.667 90.369 33.667 90.8331C33.667 91.2972 33.8514 91.7424 34.1796 92.0705C34.5077 92.3987 34.9529 92.5831 35.417 92.5831V93.7498C35.3203 93.7551 35.2237 93.7368 35.1356 93.6963C35.0476 93.6559 34.9708 93.5945 34.9118 93.5176L34.8722 93.4587C34.7923 93.33 34.6656 93.2374 34.5187 93.2004C34.3719 93.1634 34.2164 93.1851 34.0852 93.2607C33.9539 93.3363 33.8573 93.46 33.8156 93.6056C33.7739 93.7512 33.7905 93.9073 33.8618 94.0409C34.0107 94.2991 34.2231 94.515 34.4788 94.6681C34.7345 94.8213 35.0252 94.9065 35.3231 94.9159H35.417C35.4169 95.0588 35.4693 95.1969 35.5642 95.3038C35.6592 95.4107 35.7901 95.479 35.9321 95.4957L36.0003 95.4998C36.155 95.4998 36.3034 95.4383 36.4128 95.3289C36.5222 95.2195 36.5837 95.0712 36.5837 94.9164L36.6863 94.9135C37.1411 94.8872 37.5677 94.6847 37.8755 94.3488C38.1833 94.013 38.348 93.5704 38.3346 93.1151C38.3212 92.6598 38.1308 92.2276 37.8039 91.9104C37.4769 91.5932 37.0392 91.416 36.5837 91.4164V90.2498C36.7925 90.2428 36.9751 90.3314 37.0888 90.4819L37.1285 90.5409C37.2083 90.6696 37.335 90.7622 37.4819 90.7992C37.6288 90.8361 37.7843 90.8145 37.9155 90.7389C38.0467 90.6633 38.1434 90.5396 38.1851 90.394C38.2267 90.2484 38.2102 90.0923 38.1388 89.9587C37.99 89.7004 37.7777 89.4843 37.5219 89.3311C37.2662 89.1779 36.9756 89.0925 36.6776 89.0831H36.5837C36.5837 88.9284 36.5222 88.78 36.4128 88.6706C36.3034 88.5612 36.155 88.4998 36.0003 88.4998ZM36.5837 92.5831C36.7384 92.5831 36.8867 92.6446 36.9961 92.754C37.1055 92.8634 37.167 93.0117 37.167 93.1664C37.167 93.3212 37.1055 93.4695 36.9961 93.5789C36.8867 93.6883 36.7384 93.7498 36.5837 93.7498V92.5831ZM35.417 90.2498V91.4164C35.2623 91.4164 35.1139 91.355 35.0045 91.2456C34.8951 91.1362 34.8337 90.9878 34.8337 90.8331C34.8337 90.6784 34.8951 90.53 35.0045 90.4206C35.1139 90.3112 35.2623 90.2498 35.417 90.2498Z" fill="#818688"/>
<path opacity="0.04" fill-rule="evenodd" clip-rule="evenodd" d="M192 72C192 63.1634 184.837 56 176 56H88C79.1634 56 72 63.1634 72 72V112C72 120.837 64.8366 128 56 128H16C7.16344 128 0 135.163 0 144V345C0 353.837 7.16344 361 16 361H176C184.837 361 192 353.837 192 345V152V128V72Z" fill="white"/>
</svg>
