<svg width="192" height="360" viewBox="0 0 192 360" fill="none" xmlns="http://www.w3.org/2000/svg">
<path opacity="0.04" fill-rule="evenodd" clip-rule="evenodd" d="M192 -215C192 -223.837 184.837 -231 176 -231H88C79.1634 -231 72 -223.837 72 -215V-175C72 -166.163 64.8366 -159 56 -159H16C7.16344 -159 0 -151.837 0 -143V18C0 26.8365 7.16344 34 16 34H176C184.837 34 192 26.8365 192 18V-135V-159V-215Z" fill="white"/>
<rect x="12" y="70" width="48" height="48" rx="8" fill="#36393A"/>
<path d="M46.1466 89.8556C46.7803 89.7417 47.3867 90.1621 47.5024 90.7954C47.6186 91.4314 47.1962 92.0409 46.5599 92.1553L25.8924 95.871C25.2571 95.9852 24.6497 95.5621 24.5368 94.9265C24.4242 94.2927 24.8459 93.6875 25.4795 93.5737L27.7747 93.1613L27.3663 90.863C27.2497 90.233 27.6697 89.6263 28.3113 89.5096C28.9413 89.393 29.548 89.813 29.6647 90.4546L30.073 92.7413L41.553 90.688L41.1447 88.3896C41.028 87.748 41.448 87.1413 42.0897 87.013C42.7197 86.9196 43.3263 87.3396 43.443 87.9696L43.8513 90.268L46.1466 89.8556Z" fill="#818688"/>
<path d="M30.6333 101.634L32.9005 97.4468C33.0713 97.1313 33.3779 96.9119 33.7317 96.8521L37.4871 96.2165C37.9765 96.1336 38.4648 96.3696 38.704 96.8045L41.3582 101.63C41.572 102.019 41.2908 102.495 40.8471 102.495H31.1462C30.7042 102.495 30.4228 102.022 30.6333 101.634Z" fill="#818688"/>
<path opacity="0.04" fill-rule="evenodd" clip-rule="evenodd" d="M192 74C192 65.1634 184.837 58 176 58H88C79.1634 58 72 65.1634 72 74V114C72 122.837 64.8366 130 56 130H16C7.16344 130 0 137.163 0 146V309C0 317.837 7.16344 325 16 325H176C184.837 325 192 317.837 192 309V154V130V74Z" fill="white"/>
<path opacity="0.04" fill-rule="evenodd" clip-rule="evenodd" d="M192 363C192 354.163 184.837 347 176 347H88C79.1634 347 72 354.163 72 363V403C72 411.837 64.8366 419 56 419H16C7.16344 419 0 426.163 0 435V612C0 620.837 7.16344 628 16 628H176C184.837 628 192 620.837 192 612V443V419V363Z" fill="white"/>
</svg>
