<svg width="224" height="324" viewBox="0 0 224 324" fill="none" xmlns="http://www.w3.org/2000/svg">
<rect x="12" y="12" width="48" height="48" rx="8" fill="#36393A"/>
<path d="M37.692 35.4747L40.0837 33.083M33.667 37.1663C33.667 37.7852 33.9128 38.3787 34.3504 38.8163C34.788 39.2538 35.3815 39.4997 36.0003 39.4997C36.6192 39.4997 37.2127 39.2538 37.6502 38.8163C38.0878 38.3787 38.3337 37.7852 38.3337 37.1663C38.3337 36.5475 38.0878 35.954 37.6502 35.5164C37.2127 35.0788 36.6192 34.833 36.0003 34.833C35.3815 34.833 34.788 35.0788 34.3504 35.5164C33.9128 35.954 33.667 36.5475 33.667 37.1663Z" stroke="#818688" stroke-width="2" stroke-linecap="round" stroke-linejoin="round"/>
<path d="M29.4667 45.3331C27.7612 43.9775 26.5196 42.125 25.9139 40.0323C25.3083 37.9396 25.3685 35.7103 26.0864 33.6534C26.8043 31.5965 28.1442 29.8138 29.9205 28.5524C31.6968 27.2909 33.8214 26.6133 36 26.6133C38.1786 26.6133 40.3032 27.2909 42.0795 28.5524C43.8558 29.8138 45.1957 31.5965 45.9136 33.6534C46.6315 35.7103 46.6917 37.9396 46.0861 40.0323C45.4804 42.125 44.2388 43.9775 42.5333 45.3331H29.4667Z" stroke="#818688" stroke-width="2" stroke-linecap="round" stroke-linejoin="round"/>
<path opacity="0.04" fill-rule="evenodd" clip-rule="evenodd" d="M224 16C224 7.16344 216.837 0 208 0H88C79.1634 0 72 7.16344 72 16V56C72 64.8366 64.8366 72 56 72H16C7.16344 72 0 79.1634 0 88V308C0 316.837 7.16345 324 16 324H208C216.837 324 224 316.837 224 308V96V72V16Z" fill="white"/>
</svg>
