<svg width="20" height="20" viewBox="0 0 20 20" fill="none" xmlns="http://www.w3.org/2000/svg">
<path d="M18.0844 12.0162C16.9714 16.4805 12.4498 19.1974 7.98494 18.0842C3.52195 16.9712 0.805051 12.4493 1.91852 7.9853C3.031 3.52048 7.55265 0.803377 12.0161 1.91635C16.4807 3.02933 19.1974 7.55175 18.0843 12.0163L18.0844 12.0162H18.0844Z" fill="#F7931A"/>
<path fill-rule="evenodd" clip-rule="evenodd" d="M13.6759 8.81314C13.8417 7.70415 12.9974 7.10803 11.8429 6.71036L12.2174 5.20814L11.303 4.98029L10.9384 6.44295C10.698 6.38299 10.4511 6.3265 10.2057 6.27049L10.573 4.79817L9.65909 4.57031L9.28435 6.07204C9.08541 6.02675 8.89002 5.98198 8.70045 5.93481L8.70151 5.93009L7.44047 5.61518L7.19722 6.59187C7.19722 6.59187 7.87566 6.74739 7.86136 6.75696C8.23166 6.84938 8.29862 7.09451 8.2875 7.2888L7.86087 9.00018C7.88637 9.00666 7.91944 9.01603 7.95594 9.03069L7.92942 9.02407C7.90685 9.01842 7.88338 9.01255 7.85928 9.00678L7.26129 11.4042C7.21603 11.5167 7.10117 11.6855 6.84227 11.6214C6.85144 11.6347 6.17764 11.4555 6.17764 11.4555L5.72363 12.5023L6.91363 12.7989C7.04396 12.8316 7.17274 12.8652 7.30022 12.8984L7.30038 12.8985C7.3894 12.9217 7.47778 12.9447 7.5656 12.9672L7.18719 14.4866L8.10058 14.7145L8.47532 13.2112C8.72485 13.2789 8.967 13.3414 9.20407 13.4003L8.83059 14.8965L9.74508 15.1244L10.1234 13.6078C11.6828 13.9029 12.8553 13.7839 13.3488 12.3735C13.7464 11.238 13.329 10.583 12.5086 10.1558C13.1061 10.0181 13.5562 9.62506 13.6762 8.81326L13.6759 8.81306L13.6759 8.81314ZM11.5863 11.743C11.3271 12.7848 9.69633 12.3541 8.95021 12.157C8.88309 12.1393 8.82313 12.1234 8.77197 12.1107L9.27412 10.0977C9.33646 10.1133 9.41264 10.1304 9.49894 10.1498L9.49898 10.1498C10.2707 10.323 11.852 10.6778 11.5864 11.743H11.5863ZM9.65351 9.21568C10.2756 9.38169 11.6326 9.74384 11.8689 8.79696H11.869C12.1103 7.82853 10.7915 7.53655 10.1474 7.39395C10.075 7.37791 10.011 7.36376 9.95885 7.35075L9.50358 9.17642C9.54657 9.18714 9.59701 9.2006 9.65351 9.21568Z" fill="white"/>
</svg>
