<svg width="156" height="140" viewBox="0 0 156 140" fill="none" xmlns="http://www.w3.org/2000/svg">
<path d="M0 16C0 7.16344 7.16344 0 16 0L124 0C132.837 0 140 7.16344 140 16V18.1401C140 20.2275 141.085 22.1649 142.865 23.2557L147.366 26.0146C151.134 28.324 151.197 33.7762 147.483 36.172L142.747 39.2276C141.035 40.3325 140 42.2313 140 44.2694V124C140 132.837 132.837 140 124 140H16C7.16344 140 0 132.837 0 124L0 16Z" fill="#141414"/>
<path opacity="0.2" d="M128 46.5V27L11 76V100L128 46.5Z" fill="white"/>
<path d="M127.5 20V17L11 65.2078V71.2338L127.5 20Z" fill="white"/>
<path d="M37.9108 47.2362C34.9631 53.4598 40.677 56.8487 43.9024 57.7652L53.3662 49.5897C49.4426 46.2121 40.8584 41.0127 37.9108 47.2362Z" fill="#434343"/>
<path d="M104.338 49.4841C101.555 41.9503 93.557 45.1167 89.9062 47.6416L91.7485 58.9011C97.105 58.9012 107.122 57.0179 104.338 49.4841Z" fill="#434343"/>
<path d="M70.9617 40.2153C37.7488 40.2153 35.4297 75.5596 38.4218 93.2317C42.1619 98.6087 53.4573 109.363 68.7173 109.363C83.9774 109.363 96.7977 101.112 101.286 95.735C105.026 78.0629 104.175 40.2153 70.9617 40.2153Z" fill="#141414"/>
<ellipse opacity="0.2" cx="3.20097" cy="2.22148" rx="3.20097" ry="2.22148" transform="matrix(-0.922331 0.3864 0.3864 0.922331 57.7207 47.7256)" fill="white"/>
<path d="M91.9347 59.6944C89.0261 59.6317 86.8062 59.6691 82.8141 59.9543" stroke="white" stroke-width="2.87179" stroke-linecap="round"/>
<path d="M48.7099 59.6944C51.6185 59.6317 53.8383 59.6691 57.8305 59.9543" stroke="white" stroke-width="2.87179" stroke-linecap="round"/>
<path d="M86.3211 81.3283C88.0003 92.8512 81.7871 99.4096 69.5288 99.4096C57.7741 99.4096 53.6599 91.2552 54.8354 82.3031C56.0108 73.3509 56.5308 63.5122 69.5288 63.5122C82.5269 63.5122 84.6418 69.8053 86.3211 81.3283Z" fill="white"/>
<path d="M66.4883 93.9496L70.3677 89.7178L74.6439 93.6849" stroke="#141414" stroke-width="2.30529" stroke-linecap="round"/>
<path d="M70.4372 75.7175C72.3143 80.8446 72.2323 85.2303 70.4372 89.897" stroke="#141414" stroke-width="2.30529" stroke-linecap="round"/>
<path d="M37.8011 87.9223C37.1407 81.8042 37.8011 67.1018 42.489 57.1816C40.068 55.9929 35.1879 53.182 37.8011 47.6069C40.5757 41.6877 47.2667 45.5126 49.992 47.1612C52.6431 44.8337 60.4306 40.1787 70.3724 40.1787C80.3141 40.1787 88.2917 44.8337 91.0378 47.1612C93.7234 45.2995 99.9808 42.7969 103.526 47.6804C107.957 53.7848 100.768 57.7187 98.778 57.99C101.196 63.1966 103.526 78.4095 102.159 95.8197" stroke="white" stroke-width="2.51282" stroke-linecap="round" stroke-linejoin="round"/>
<path d="M78.3518 73.2244C77.9292 73.767 77.4344 74.1597 76.9838 74.3605C76.5252 74.5649 76.159 74.5538 75.9377 74.3814C75.7164 74.209 75.616 73.8567 75.702 73.362C75.7865 72.8759 76.0461 72.3002 76.4688 71.7576C76.8915 71.215 77.3862 70.8223 77.8368 70.6215C78.2954 70.4171 78.6617 70.4282 78.883 70.6006C79.1043 70.773 79.2047 71.1253 79.1187 71.62C79.0342 72.1061 78.7745 72.6818 78.3518 73.2244Z" fill="#141414" stroke="#141414" stroke-width="0.358974"/>
<path d="M65.3295 71.6472C65.8158 72.1336 66.1445 72.673 66.2883 73.1449C66.4346 73.6252 66.3784 73.9873 66.18 74.1856C65.9817 74.384 65.6196 74.4402 65.1393 74.2939C64.6674 74.1501 64.128 73.8214 63.6417 73.3351C63.1553 72.8487 62.8266 72.3094 62.6829 71.8374C62.5366 71.3571 62.5928 70.9951 62.7911 70.7967C62.9895 70.5983 63.3515 70.5422 63.8318 70.6885C64.3038 70.8322 64.8431 71.1609 65.3295 71.6472Z" fill="#141414" stroke="#141414" stroke-width="0.358974"/>
<path d="M71.5115 43.709C73.5463 43.709 75.5233 43.4358 77.021 42.6114C77.7835 42.1916 78.4364 41.6208 78.8949 40.862C79.3544 40.1016 79.5884 39.2026 79.5884 38.1748C79.5884 34.0368 75.8769 30.8457 71.5115 30.8457C67.1461 30.8457 63.4346 34.0368 63.4346 38.1748C63.4346 39.2026 63.6687 40.1016 64.1281 40.862C64.5867 41.6208 65.2396 42.1916 66.0021 42.6114C67.4997 43.4358 69.4768 43.709 71.5115 43.709Z" fill="#FFAA3A" stroke="#FF723A" stroke-width="1.79487"/>
<path d="M72.7389 32.683C73.2721 31.8079 72.8977 30.8068 72.4511 30.1238C71.964 29.3787 71.18 28.6527 70.2337 28.076C69.206 27.4497 68.0835 27.2432 67.2021 27.2302C66.7598 27.2237 66.3526 27.2653 66.0214 27.3411C65.8578 27.3785 65.6902 27.4294 65.5379 27.4995C65.4259 27.5511 65.1607 27.6827 64.9909 27.9614C64.8211 28.24 64.8257 28.5361 64.8312 28.6592C64.8387 28.8267 64.8703 28.999 64.912 29.1616C64.9965 29.4906 65.1461 29.8716 65.3547 30.2617C65.7703 31.0391 66.4684 31.9421 67.4961 32.5683C68.4424 33.145 69.447 33.5089 70.3325 33.6003C71.1442 33.6842 72.2056 33.558 72.7389 32.683Z" fill="#9CC378" stroke="#406851" stroke-width="1.79487"/>
<path d="M70.0809 33.0661C70.8055 33.7907 71.8667 33.663 72.6358 33.3901C73.4747 33.0924 74.3652 32.5018 75.1488 31.7182C75.9997 30.8672 76.4652 29.8251 76.6857 28.9716C76.7964 28.5433 76.8519 28.1378 76.8564 27.7981C76.8586 27.6303 76.8487 27.4554 76.8165 27.2908C76.7928 27.1699 76.7274 26.8811 76.4967 26.6504C76.266 26.4197 75.9772 26.3542 75.8562 26.3306C75.6917 26.2984 75.5168 26.2884 75.3489 26.2906C75.0093 26.2951 74.6037 26.3507 74.1755 26.4613C73.322 26.6819 72.2798 27.1473 71.4288 27.9983C70.6452 28.7819 70.0546 29.6723 69.757 30.5113C69.4841 31.2803 69.3563 32.3416 70.0809 33.0661Z" fill="#9CC378" stroke="#406851" stroke-width="1.79487"/>
<rect x="10.248" y="11.5" width="118" height="118" rx="7" stroke="url(#paint0_linear_2278_2019)" stroke-width="2"/>
<path d="M105.529 120.48L108.549 102.272H102.713L103.299 98.1045H120.863L118.223 102.272H113.319L109.767 124.196L105.529 120.48Z" fill="#05D394"/>
<path d="M93.9234 124.808C92.6331 124.808 91.4844 124.659 90.4788 124.363C89.4945 124.048 88.6401 123.604 87.9167 123.029C87.1959 122.437 85.3432 120.726 85.1072 120.104L87.9167 115.834C88.2439 117.115 90.2226 119.427 91.8225 120.223C92.8246 120.722 93.6964 120.835 94.7062 120.835C95.2111 120.835 95.6787 120.77 96.1083 120.64C96.5379 120.51 96.8821 120.325 97.1403 120.084C97.4012 119.825 97.5577 119.51 97.6097 119.14C97.6488 118.862 97.6091 118.612 97.4907 118.39C97.3911 118.167 97.2313 117.973 97.0116 117.806C96.7919 117.639 96.5227 117.491 96.2043 117.362C95.8885 117.213 95.55 117.093 95.189 117C94.8306 116.889 94.46 116.797 94.0777 116.723C93.0269 116.482 92.1236 116.185 91.3689 115.834C90.6143 115.482 90.0005 115.056 89.5285 114.555C89.0778 114.037 88.7668 113.453 88.5961 112.805C88.428 112.138 88.4012 111.397 88.5157 110.582C88.6381 109.712 88.9465 108.915 89.4407 108.193C89.9562 107.452 90.5874 106.822 91.3335 106.304C92.1009 105.767 92.9534 105.359 93.8901 105.081C94.8294 104.785 95.7858 104.637 96.7582 104.637C98.0486 104.637 99.133 104.776 100.01 105.053C100.909 105.313 101.651 105.692 102.235 106.193C102.838 106.693 103.324 107.295 103.693 107.999L100.994 111.655C100.669 111.174 99.6529 109.925 99.2296 109.61C98.8251 109.295 98.3724 109.054 97.8722 108.888C97.3907 108.721 96.8785 108.638 96.3362 108.638C95.7752 108.638 95.2783 108.712 94.8461 108.86C94.4351 108.989 94.099 109.184 93.8382 109.443C93.5799 109.684 93.426 109.98 93.3766 110.332C93.3323 110.647 93.3881 110.916 93.5439 111.138C93.6997 111.36 93.9236 111.564 94.2155 111.749C94.51 111.916 94.8541 112.064 95.2472 112.194C95.643 112.305 96.0604 112.398 96.4988 112.472C97.4987 112.675 98.3872 112.944 99.1631 113.277C99.9578 113.611 100.621 114.018 101.152 114.5C101.701 114.981 102.088 115.556 102.312 116.222C102.558 116.871 102.62 117.63 102.497 118.501C102.307 119.853 101.809 121.001 101.003 121.946C100.218 122.872 99.2106 123.585 97.9809 124.085C96.7724 124.567 95.4194 124.808 93.9234 124.808Z" fill="#05D394"/>
<path fill-rule="evenodd" clip-rule="evenodd" d="M33.6238 101.633H24.9543L20.9711 122.977L25.0761 125.934L26.7312 121.082H27.5176H31.1711C32.1998 121.082 33.152 120.961 34.0275 120.721C34.9218 120.48 35.722 120.109 36.4282 119.609C37.1345 119.109 37.7067 118.498 38.1449 117.776C38.5857 117.035 38.8751 116.173 39.0131 115.192C39.1328 114.34 39.0618 113.58 38.8002 112.913C38.5411 112.228 38.1168 111.654 37.5272 111.191C37.1576 110.891 36.7289 110.65 36.241 110.466C36.93 110.179 37.5073 109.763 37.9728 109.218C38.6406 108.459 39.0527 107.523 39.2089 106.412C39.3494 105.412 39.226 104.56 38.8386 103.856C38.4725 103.134 37.8479 102.587 36.9647 102.217C36.0842 101.828 34.9705 101.633 33.6238 101.633ZM29.3066 106.007L26.4617 113.904C26.4102 114.047 26.5162 114.198 26.6681 114.198H29.0726C29.2151 114.198 29.3197 114.331 29.2857 114.469L28.2566 118.647C28.2015 118.871 28.4838 119.017 28.635 118.844L34.8062 111.763C34.9299 111.621 34.8291 111.399 34.6408 111.399H32.2392C32.0842 111.399 31.978 111.243 32.0353 111.099L34.2034 105.642C34.2647 105.488 34.1391 105.324 33.9743 105.343L29.4877 105.863C29.405 105.873 29.3348 105.928 29.3066 106.007Z" fill="#05D394"/>
<path fill-rule="evenodd" clip-rule="evenodd" d="M47.2659 123.446C48.4301 123.946 49.7603 124.196 51.2567 124.196C52.7156 124.196 54.0975 123.946 55.4023 123.446C56.7071 122.946 57.8815 122.242 58.9256 121.335C59.9696 120.427 60.8207 119.362 61.4789 118.139C62.1583 116.898 62.5995 115.556 62.8026 114.111C63.0082 112.648 62.9444 111.305 62.6112 110.082C62.2967 108.86 61.745 107.795 60.956 106.887C60.1671 105.98 59.1905 105.276 58.0263 104.776C56.8621 104.275 55.5411 104.025 54.0635 104.025C52.5858 104.025 51.1946 104.275 49.8898 104.776C48.5851 105.276 47.4106 105.98 46.3666 106.887C45.3225 107.795 44.462 108.86 43.7852 110.082C43.1084 111.305 42.6671 112.648 42.4615 114.111C42.2558 115.574 42.3196 116.917 42.6528 118.139C42.986 119.362 43.5471 120.427 44.3361 121.335C45.1251 122.242 46.1016 122.946 47.2659 123.446ZM53.88 107.839C53.7429 107.58 53.3587 107.58 53.1487 107.839L51.7609 109.551C51.0555 110.421 50.0863 111.054 49.0309 111.335L46.9545 111.886C46.6403 111.969 46.4708 112.331 46.6317 112.575L47.6954 114.184C48.2361 115.002 48.4283 116.027 48.2368 117.07L47.8601 119.123C47.8031 119.434 48.0824 119.658 48.3919 119.549L50.4372 118.832C51.4767 118.467 52.5646 118.467 53.5017 118.832L55.3453 119.549C55.6242 119.658 55.9664 119.434 55.9967 119.123L56.1971 117.07C56.2989 116.027 56.7791 115.002 57.5497 114.184L59.0658 112.575C59.2952 112.331 59.2273 111.969 58.9366 111.886L57.0152 111.335C56.0385 111.054 55.2474 110.421 54.7866 109.551L53.88 107.839Z" fill="#05D394"/>
<path fill-rule="evenodd" clip-rule="evenodd" d="M70.4514 119.389C71.6156 119.889 72.9459 120.139 74.4422 120.139C75.9012 120.139 77.2831 119.889 78.5878 119.389C79.8926 118.889 81.067 118.185 82.1111 117.277C83.1552 116.37 84.0063 115.305 84.6644 114.082C85.3438 112.841 85.7851 111.498 85.9881 110.054C86.1938 108.59 86.13 107.248 85.7968 106.025C85.4823 104.803 84.9305 103.738 84.1416 102.83C83.3526 101.922 82.376 101.219 81.2118 100.718C80.0476 100.218 78.7267 99.9683 77.249 99.9683C75.7714 99.9683 74.3802 100.218 73.0754 100.718C71.7706 101.219 70.5962 101.922 69.5521 102.83C68.508 103.738 67.6476 104.803 66.9708 106.025C66.2939 107.248 65.8527 108.59 65.647 110.054C65.4414 111.517 65.5052 112.86 65.8384 114.082C66.1716 115.305 66.7327 116.37 67.5216 117.277C68.3106 118.185 69.2872 118.889 70.4514 119.389ZM77.0656 103.782C76.9284 103.523 76.5443 103.523 76.3343 103.782L74.9464 105.494C74.241 106.365 73.2719 106.998 72.2165 107.278L70.1401 107.829C69.8259 107.913 69.6563 108.275 69.8173 108.518L70.881 110.128C71.4217 110.946 71.6138 111.97 71.4224 113.014L71.0456 115.067C70.9886 115.377 71.268 115.601 71.5775 115.493L73.6227 114.775C74.6623 114.41 75.7502 114.41 76.6872 114.775L78.5308 115.493C78.8098 115.601 79.152 115.377 79.1823 115.067L79.3826 113.014C79.4844 111.97 79.9646 110.946 80.7352 110.128L82.2514 108.518C82.4808 108.275 82.4129 107.913 82.1222 107.829L80.2007 107.278C79.2241 106.998 78.433 106.365 77.9722 105.494L77.0656 103.782Z" fill="#05D394"/>
<path d="M108.924 76.2207L111.11 83.0738L117.963 85.2597L111.11 87.4456L108.924 94.2986L106.738 87.4456L99.8848 85.2597L106.738 83.0738L108.924 76.2207Z" fill="#FFAA3A"/>
<path d="M117.152 70.1953L118.413 74.149L122.367 75.4101L118.413 76.6712L117.152 80.6249L115.891 76.6712L111.938 75.4101L115.891 74.149L117.152 70.1953Z" fill="#FFAA3A"/>
<path d="M26.7617 34.0391L28.0228 37.9928L31.9764 39.2538L28.0228 40.5149L26.7617 44.4686L25.5006 40.5149L21.5469 39.2538L25.5006 37.9928L26.7617 34.0391Z" fill="#FFAA3A"/>
<defs>
<linearGradient id="paint0_linear_2278_2019" x1="108.722" y1="10.5" x2="28.1575" y2="136.852" gradientUnits="userSpaceOnUse">
<stop stop-color="#9884FF"/>
<stop offset="0.573662" stop-color="#66CDFF"/>
<stop offset="1" stop-color="#05D394"/>
</linearGradient>
</defs>
</svg>
