<svg width="18" height="18" viewBox="0 0 18 18" fill="none" xmlns="http://www.w3.org/2000/svg">
<path d="M14.2551 4.16447L13.7975 4.62209C14.8895 5.81623 15.495 7.37579 15.495 8.99393C15.495 10.6121 14.8895 12.1716 13.7975 13.3658L14.2551 13.8234C15.4695 12.5062 16.1437 10.7802 16.1437 8.98859C16.1437 7.197 15.4695 5.47101 14.2551 4.15379V4.16447ZM4.63131 4.20413C5.82545 3.11216 7.385 2.50661 9.00314 2.50661C10.6213 2.50661 12.1808 3.11216 13.375 4.20413L13.8326 3.7465C12.5154 2.53212 10.7894 1.85791 8.9978 1.85791C7.20621 1.85791 5.48023 2.53212 4.163 3.7465L4.63131 4.20413ZM4.20266 13.3703C3.11199 12.1765 2.50724 10.6179 2.50724 9.00079C2.50724 7.38372 3.11199 5.82512 4.20266 4.63124L3.74504 4.17362C2.53066 5.49084 1.85645 7.21683 1.85645 9.00842C1.85645 10.8 2.53066 12.526 3.74504 13.8432L4.20266 13.3703ZM13.3689 13.7929C12.1747 14.8848 10.6152 15.4904 8.99704 15.4904C7.3789 15.4904 5.81935 14.8848 4.6252 13.7929L4.16758 14.2505C5.4848 15.4649 7.21079 16.1391 9.00238 16.1391C10.794 16.1391 12.52 15.4649 13.8372 14.2505L13.3689 13.7929ZM11.8877 7.47309C11.7962 6.51818 10.9725 6.19784 9.93059 6.10022V4.78531H9.12517V6.07581H8.48145V4.78531H7.68213V6.10937H6.04841V6.97123C6.04841 6.97123 6.64333 6.96055 6.63417 6.97123C6.74144 6.95943 6.8491 6.98973 6.93447 7.05575C7.01983 7.12176 7.07624 7.21834 7.0918 7.32512V10.9495C7.08951 10.9872 7.07969 11.024 7.06292 11.0578C7.04615 11.0916 7.02277 11.1217 6.99417 11.1463C6.96611 11.1714 6.93326 11.1905 6.89761 11.2026C6.86196 11.2146 6.82424 11.2193 6.78671 11.2165C6.79739 11.2256 6.20096 11.2165 6.20096 11.2165L6.04841 12.179H7.66688V13.5244H8.4723V12.1988H9.11602V13.5183H9.92297V12.1881C11.2836 12.1058 12.2324 11.7702 12.3514 10.4965C12.4475 9.47138 11.9655 9.01376 11.1952 8.82918C11.6635 8.59884 11.9533 8.17173 11.8877 7.47309ZM10.7589 10.3378C10.7589 11.3385 9.04433 11.2241 8.49823 11.2241V9.4485C9.04433 9.45003 10.7589 9.29291 10.7589 10.3378ZM10.3852 7.83614C10.3852 8.75139 8.95433 8.64003 8.49975 8.64003V7.02614C8.95433 7.02614 10.3852 6.88275 10.3852 7.83614Z" fill="#F19242"/>
<path d="M14.2551 4.16447L13.7975 4.62209C14.8895 5.81623 15.495 7.37579 15.495 8.99393C15.495 10.6121 14.8895 12.1716 13.7975 13.3658L14.2551 13.8234C15.4695 12.5062 16.1437 10.7802 16.1437 8.98859C16.1437 7.197 15.4695 5.47101 14.2551 4.15379V4.16447ZM4.63131 4.20413C5.82545 3.11216 7.385 2.50661 9.00314 2.50661C10.6213 2.50661 12.1808 3.11216 13.375 4.20413L13.8326 3.7465C12.5154 2.53212 10.7894 1.85791 8.9978 1.85791C7.20621 1.85791 5.48023 2.53212 4.163 3.7465L4.63131 4.20413ZM4.20266 13.3703C3.11199 12.1765 2.50724 10.6179 2.50724 9.00079C2.50724 7.38372 3.11199 5.82512 4.20266 4.63124L3.74504 4.17362C2.53066 5.49084 1.85645 7.21683 1.85645 9.00842C1.85645 10.8 2.53066 12.526 3.74504 13.8432L4.20266 13.3703ZM13.3689 13.7929C12.1747 14.8848 10.6152 15.4904 8.99704 15.4904C7.3789 15.4904 5.81935 14.8848 4.6252 13.7929L4.16758 14.2505C5.4848 15.4649 7.21079 16.1391 9.00238 16.1391C10.794 16.1391 12.52 15.4649 13.8372 14.2505L13.3689 13.7929Z" fill="#595564"/>
<path d="M8.99782 17.3337C4.39565 17.3329 0.666016 13.6017 0.666016 8.99956C0.666016 4.39815 4.39718 0.666992 8.99859 0.666992C13.6008 0.666992 17.3319 4.39663 17.3327 8.9988C17.3329 10.0934 17.1174 11.1773 16.6986 12.1886C16.2798 13.2 15.6659 14.1189 14.8919 14.8929C14.1179 15.6669 13.199 16.2808 12.1877 16.6996C11.1764 17.1184 10.0924 17.3339 8.99782 17.3337V17.3337ZM8.99782 1.31682C4.75794 1.31987 1.32347 4.75891 1.32499 8.9988C1.32652 13.2387 4.7648 16.6747 9.00393 16.6747C13.2438 16.6747 16.6813 13.2387 16.6829 8.9988C16.6833 7.98962 16.4847 6.99025 16.0986 6.05785C15.7125 5.12545 15.1464 4.2783 14.4327 3.56484C13.7189 2.85139 12.8716 2.28562 11.939 1.89988C11.0064 1.51415 10.007 1.31602 8.99782 1.31682V1.31682Z" fill="#292138"/>
</svg>
