<svg width="359" height="228" viewBox="0 0 359 228" fill="none" xmlns="http://www.w3.org/2000/svg">
<g clip-path="url(#clip0_2285_7293)">
<path d="M133.252 99.5949L97.0254 12.3658L148.505 -23.8613L171.862 81.9584L133.252 99.5949Z" fill="url(#paint0_linear_2285_7293)"/>
<path d="M89.3994 119.139L-5.93359 41.9183L-2.59692 7.59907L59.8462 4.26221L114.663 94.352L89.3994 119.139Z" fill="url(#paint1_linear_2285_7293)"/>
<path d="M285.818 -10.4039L207.033 85.7954L187.544 76.9004L221.029 -27.9411L285.818 -10.4039Z" fill="url(#paint2_linear_2285_7293)"/>
<path d="M-19.2804 86.7256L50.3127 114.372V134.392L-50.2637 201.125L-19.2804 86.7256Z" fill="white" fill-opacity="0.2"/>
<g filter="url(#filter0_i_2285_7293)">
<path d="M16.6486 117.304C15.2947 110.535 9.31507 104.022 6.49446 101.612L0.558594 201.943H359.888V53.6105C353.682 48.2771 337.456 37.8255 322.194 38.6871C306.933 39.5486 298.296 48.995 295.886 53.6105C290.091 49.713 274.624 43.918 259.116 51.9182C243.608 59.9184 230.09 77.406 225.269 85.1497C220.038 61.9184 197.73 27.7636 157.114 24.9943C124.62 22.7789 106.651 46.123 101.728 58.0719C94.753 54.1744 76.3731 48.8718 58.6496 58.8413C40.9261 68.8107 39.4696 89.4577 40.9569 98.535C27.4181 100.258 19.1102 111.766 16.6486 117.304Z" fill="url(#paint3_linear_2285_7293)"/>
</g>
<g filter="url(#filter1_i_2285_7293)">
<path d="M246.336 122.372C231.73 126.054 224.396 137.305 222.555 142.471L219.793 176.684L368.309 205.375C375.162 181.594 383.959 131.424 364.32 120.991C344.682 110.558 324.327 120.633 316.605 126.975C300.771 123.292 287.812 132.907 283.311 138.175C277.072 131.373 260.942 118.69 246.336 122.372Z" fill="url(#paint4_linear_2285_7293)"/>
</g>
<g filter="url(#filter2_i_2285_7293)">
<path d="M79.2947 152.632C58.3787 133.879 19.6417 132.347 2.88776 133.925L-7.0293 201.541L51.3464 203.57C69.3775 194.404 100.211 171.384 79.2947 152.632Z" fill="url(#paint5_linear_2285_7293)"/>
</g>
<mask id="mask0_2285_7293" style="mask-type:alpha" maskUnits="userSpaceOnUse" x="-3" y="139" width="377" height="127">
<path d="M29.2731 167.874C21.6307 170.058 8.11994 175.948 2.31987 178.621L-2.56836 255.902L325.448 265.475C350.868 241.118 393.731 189.278 361.823 176.77C321.938 161.135 262.563 139.643 178.979 139.643C111.123 139.643 66.549 154.042 49.4164 161.344C50.7505 156.008 51.7198 145.416 44.9238 145.742C38.1278 146.069 39.3694 157.968 40.8397 163.876L37.4907 165.019C36.4016 161.371 33.2333 154.515 29.2731 156.279C25.3129 158.044 27.623 164.744 29.2731 167.874Z" fill="white"/>
</mask>
<g mask="url(#mask0_2285_7293)">
<rect x="8.66406" y="129.656" width="339.609" height="73.6396" fill="#F3F5F8"/>
<g filter="url(#filter3_f_2285_7293)">
<path d="M169.67 150.24C77.9019 150.24 21.721 176.041 5.10154 188.941L-6.4043 88.1787L393.511 92.0136L359.342 191.034C334.354 177.436 261.438 150.24 169.67 150.24Z" fill="#C2CCD4"/>
</g>
<path d="M30.0167 168.164C22.3743 170.347 10.103 177.082 4.30293 179.755L-0.585304 257.036L-44.1699 231.566L-6.86318 53.0514L145.502 45.7295L461.389 40.5L435.937 252.835L327.431 266.609C352.851 242.252 395.269 194.7 363.361 182.192C323.476 166.557 264.546 142.683 180.962 142.683C113.106 142.683 65.7935 154.986 48.6609 162.289C49.995 156.952 53.7029 146.55 46.9069 146.876C40.1108 147.203 40.5962 158.119 42.0665 164.027L38.7175 165.17C37.6284 161.522 35.2164 155.649 31.2562 157.413C27.296 159.178 28.3666 165.034 30.0167 168.164Z" stroke="#DADFE3" stroke-width="8.66348"/>
<g style="mix-blend-mode:multiply" opacity="0.46">
<path d="M219.837 181.774C219.837 182.388 219.568 183 219.034 183.603C218.498 184.208 217.702 184.798 216.665 185.365C214.591 186.498 211.581 187.522 207.849 188.385C200.388 190.109 190.073 191.177 178.675 191.177C167.277 191.177 156.962 190.109 149.501 188.385C145.769 187.522 142.759 186.498 140.685 185.365C139.648 184.798 138.852 184.208 138.316 183.603C137.782 183 137.513 182.388 137.513 181.774C137.513 181.159 137.782 180.548 138.316 179.944C138.852 179.34 139.648 178.75 140.685 178.183C142.759 177.05 145.769 176.025 149.501 175.163C156.962 173.439 167.277 172.371 178.675 172.371C190.073 172.371 200.388 173.439 207.849 175.163C211.581 176.025 214.591 177.05 216.665 178.183C217.702 178.75 218.498 179.34 219.034 179.944C219.568 180.548 219.837 181.159 219.837 181.774Z" fill="#DADFE3"/>
<path d="M219.837 181.774C219.837 182.388 219.568 183 219.034 183.603C218.498 184.208 217.702 184.798 216.665 185.365C214.591 186.498 211.581 187.522 207.849 188.385C200.388 190.109 190.073 191.177 178.675 191.177C167.277 191.177 156.962 190.109 149.501 188.385C145.769 187.522 142.759 186.498 140.685 185.365C139.648 184.798 138.852 184.208 138.316 183.603C137.782 183 137.513 182.388 137.513 181.774C137.513 181.159 137.782 180.548 138.316 179.944C138.852 179.34 139.648 178.75 140.685 178.183C142.759 177.05 145.769 176.025 149.501 175.163C156.962 173.439 167.277 172.371 178.675 172.371C190.073 172.371 200.388 173.439 207.849 175.163C211.581 176.025 214.591 177.05 216.665 178.183C217.702 178.75 218.498 179.34 219.034 179.944C219.568 180.548 219.837 181.159 219.837 181.774Z" stroke="#DADFE3" stroke-width="0.283305"/>
</g>
<path d="M29.2731 167.874C21.6307 170.058 8.11994 175.948 2.31987 178.621L-2.56836 255.902L325.448 265.475C350.868 241.118 393.731 189.278 361.823 176.77C321.938 161.135 262.563 139.643 178.979 139.643C111.123 139.643 66.549 154.042 49.4164 161.344C50.7505 156.008 51.7198 145.416 44.9238 145.742C38.1278 146.069 39.3694 157.968 40.8397 163.876L37.4907 165.019C36.4016 161.371 33.2333 154.515 29.2731 156.279C25.3129 158.044 27.623 164.744 29.2731 167.874Z" stroke="white" stroke-width="3.46539"/>
</g>
<path d="M150.318 155.105C149.606 137.81 160.135 122.351 161.958 118.873C172.287 116.642 194.747 119.857 194.747 119.857C194.747 119.856 206.387 137.726 206.387 156.416C206.387 172.465 187.761 183.511 185.243 183.511C182.725 183.511 182.418 182.29 182.971 179.588C183.413 177.426 182.173 172.792 181.497 170.745C181.497 170.745 180.711 171.298 178.55 171.298C176.388 171.298 174.62 170.602 174.005 170.254C173.657 171.155 172.962 173.656 172.962 176.456C172.962 179.956 176.265 183.511 170.542 183.511C164.819 183.511 151.208 176.724 150.318 155.105Z" fill="#B5C0CB" stroke="#1C0F1A" stroke-width="0.849914"/>
<mask id="mask1_2285_7293" style="mask-type:alpha" maskUnits="userSpaceOnUse" x="149" y="117" width="58" height="67">
<path d="M150.318 155.105C149.606 137.81 160.135 122.351 161.958 118.873C172.287 116.643 194.747 119.857 194.747 119.857C194.747 119.856 206.387 137.726 206.387 156.417C206.387 172.465 187.761 183.511 185.243 183.511C182.725 183.511 182.418 182.29 182.971 179.588C183.413 177.427 182.173 172.793 181.497 170.746C181.497 170.746 180.711 171.298 178.55 171.298C176.388 171.298 174.62 170.602 174.005 170.254C173.657 171.155 172.962 173.656 172.962 176.457C172.962 179.957 176.265 183.511 170.542 183.511C164.819 183.511 151.208 176.724 150.318 155.105Z" fill="#79594E" stroke="#6A7E98" stroke-width="0.849914"/>
</mask>
<g mask="url(#mask1_2285_7293)">
<path d="M174.139 180.135C168.418 182.684 161.078 179.539 158.734 179.382L164.89 186.601L177.018 182.684C177.285 181.064 177.316 178.72 174.139 180.135Z" fill="#6A7E98" stroke="#6A7E98" stroke-width="0.849914" stroke-linecap="round" stroke-linejoin="round"/>
<path d="M180.746 180.135C186.467 182.684 193.807 179.539 196.15 179.382L189.995 186.601L177.867 182.684C177.599 181.064 177.569 178.72 180.746 180.135Z" fill="#6A7E98" stroke="#6A7E98" stroke-width="0.849914" stroke-linecap="round" stroke-linejoin="round"/>
<path d="M150.318 155.105C149.606 137.81 160.135 122.351 161.958 118.873C172.287 116.643 194.747 119.857 194.747 119.857C194.747 119.856 206.387 137.726 206.387 156.417C206.387 172.465 187.761 183.511 185.243 183.511C182.725 183.511 182.418 182.29 182.971 179.588C183.413 177.427 182.173 172.793 181.497 170.746C181.497 170.746 180.711 171.298 178.55 171.298C176.388 171.298 174.62 170.602 174.005 170.254C173.657 171.155 172.962 173.656 172.962 176.457C172.962 179.957 176.265 183.511 170.542 183.511C164.819 183.511 151.208 176.724 150.318 155.105Z" stroke="#6A7E98" stroke-width="1.13322"/>
</g>
<path d="M170.275 166.661C171.554 168.153 173.794 171.395 178.006 171.395C182.217 171.395 185.318 167.956 186.672 166.463" stroke="#6A7E98" stroke-width="1.13322" stroke-linecap="round" stroke-linejoin="round"/>
<path d="M159.181 67.2368C157.412 70.9705 160.84 73.0036 162.775 73.5535L168.453 68.6487C166.099 66.6223 160.949 63.503 159.181 67.2368Z" fill="#788594"/>
<path d="M199.033 68.586C197.363 64.0662 192.565 65.9658 190.375 67.4806L191.48 74.2355C194.694 74.2355 200.703 73.1057 199.033 68.586Z" fill="#788594"/>
<path d="M179.009 63.0254C159.083 63.0254 157.692 84.2296 159.487 94.8316C161.731 98.0575 168.507 104.509 177.662 104.509C186.817 104.509 194.509 99.5593 197.201 96.3335C199.445 85.7314 198.934 63.0254 179.009 63.0254Z" fill="#C8D0D6"/>
<path d="M207.489 85.1018C202.482 91.0083 199.241 94.0399 195.203 96.5537L183.604 108.04C184.27 108.764 188.895 108.586 203.889 104.014C222.631 98.3003 213.032 78.5634 207.489 85.1018Z" fill="#C8D0D6"/>
<path d="M198.52 105.781C224.168 99.8257 213.033 78.563 207.49 85.1014C203.398 89.9276 200.487 92.8343 197.355 95.1076" stroke="#6A7E98" stroke-width="1.13322" stroke-linecap="round" stroke-linejoin="round"/>
<path d="M166.039 76.0903C166.76 75.7212 168.834 74.9513 171.365 74.8247" stroke="#5E6F83" stroke-width="2.26644" stroke-linecap="round"/>
<path d="M191.031 76.0903C190.311 75.7212 188.237 74.9513 185.706 74.8247" stroke="#5E6F83" stroke-width="2.26644" stroke-linecap="round"/>
<path d="M187.086 86.0212C187.988 91.8849 184.65 95.2223 178.065 95.2223C171.751 95.2223 169.54 91.0727 170.172 86.5172C170.803 81.9617 173.87 76.9551 178.065 76.9551C182.26 76.9551 186.184 80.1575 187.086 86.0212Z" fill="#97A5B5"/>
<path d="M178.422 87.0665V80.0581" stroke="#5A6573" stroke-width="1.13322"/>
<path d="M176.07 89.6052L178.398 87.0664L180.963 89.4464" stroke="#5A6573" stroke-width="1.13322" stroke-linecap="round"/>
<path d="M180.473 79.4631C180.473 79.6933 180.289 79.9373 179.911 80.1322C179.54 80.3233 179.018 80.4457 178.434 80.4457C177.85 80.4457 177.328 80.3233 176.957 80.1322C176.579 79.9373 176.396 79.6933 176.396 79.4631C176.396 79.2329 176.579 78.9889 176.957 78.794C177.328 78.6029 177.85 78.4805 178.434 78.4805C179.018 78.4805 179.54 78.6029 179.911 78.794C180.289 78.9889 180.473 79.2329 180.473 79.4631Z" fill="#5A6573" stroke="#5A6573" stroke-width="0.283305"/>
<path d="M148.784 104.671C147.542 96.4502 154.878 89.4572 158.701 86.9883C156.439 90.0231 160.395 95.23 164.969 97.7798C170.637 100.939 188.683 99.5445 196.588 96.4381C196.831 96.3425 197.066 96.6095 196.952 96.8449C182.11 127.622 150.326 114.871 148.784 104.671Z" fill="#A7B4C4" stroke="#95A6B3" stroke-width="1.13322" stroke-linecap="round"/>
<path d="M159.115 90.7517C158.719 87.0813 158.727 78.4332 161.927 73.204C160.475 72.4909 157.547 70.8045 159.115 67.4598C160.78 63.9087 164.794 66.2034 166.429 67.1925C168.019 65.7961 172.691 63.0034 178.656 63.0034C184.62 63.0034 189.406 65.7961 191.053 67.1925C192.665 66.0755 196.419 64.5741 198.545 67.5039C201.204 71.1661 196.891 73.5262 195.697 73.689C197.148 76.8126 199.155 86.365 196.938 96.3403C198.545 99.9846 198.99 103.725 197.725 107.528" stroke="#6A7E98" stroke-width="1.13322" stroke-linecap="round" stroke-linejoin="round"/>
<path d="M154.608 103.164C153.463 96.9042 158.058 91.9728 160.498 90.2896L165.462 93.4029C164.873 104.089 170.006 103.921 168.071 107.539C166.135 111.158 156.038 110.989 154.608 103.164Z" fill="#C8D0D6"/>
<path d="M160.498 90.2896C158.058 91.9728 153.463 96.9042 154.608 103.164C156.038 110.989 166.135 111.158 168.071 107.539C170.006 103.921 164.873 104.089 165.462 93.4029" stroke="#6A7E98" stroke-width="1.13322" stroke-linecap="round" stroke-linejoin="round"/>
<path d="M203.671 125.514C198.13 125.514 194.291 121.112 193.064 118.911L191.766 115.772L212.655 118.911C211.969 121.112 209.213 125.514 203.671 125.514Z" fill="#6A7E98" stroke="#798186" stroke-width="0.283305"/>
<path d="M153.62 125.514C159.161 125.514 163 121.112 164.227 118.911L165.525 115.772L144.636 118.911C145.322 121.112 148.078 125.514 153.62 125.514Z" fill="#6A7E98" stroke="#798186" stroke-width="0.283305"/>
<path d="M211.79 106.137H187.654L195.555 116.744L214.929 112.09L214.063 101.159L211.79 106.137Z" fill="#55667C" stroke="#798186" stroke-width="0.283305"/>
<path d="M145.503 106.137H169.639L161.738 116.744L142.364 112.09L143.23 101.159L145.503 106.137Z" fill="#55667C" stroke="#798186" stroke-width="0.283305"/>
<path d="M159.729 116.528L164.707 106.137H190.792L197.286 116.528C191.917 119.992 191.129 131.753 190.083 137.201H165.416C164.464 130.101 162.11 120.461 159.729 116.528Z" fill="#B4BFCA" stroke="#798186" stroke-width="0.566609"/>
<ellipse cx="171.177" cy="119.404" rx="0.977445" ry="2.26499" fill="#5A6573"/>
<ellipse cx="186.112" cy="119.404" rx="0.977445" ry="2.26499" fill="#5A6573"/>
<path d="M197.845 142.403C197.845 150.398 194.397 158.824 176.453 158.824C161.446 158.824 157.062 150.878 157.062 141.444C157.062 129.862 166.992 128.318 176.453 128.318C185.915 128.318 197.845 127.559 197.845 142.403Z" fill="#8E9DAD" stroke="#798186" stroke-width="0.566609"/>
<path d="M187.398 135.852L183.99 139.814C184.426 140.197 185.781 140.56 187.715 138.943C188.494 138.292 188.309 136.208 187.398 135.852Z" fill="#5A6573"/>
<path d="M169.897 135.852L173.305 139.814C172.869 140.197 171.514 140.56 169.58 138.943C168.801 138.292 168.986 136.208 169.897 135.852Z" fill="#5A6573"/>
<path d="M197.846 142.403C197.846 150.398 194.399 158.825 176.455 158.825C161.447 158.825 157.064 150.878 157.064 141.445C157.064 135.137 160.009 131.806 164.22 130.081L162.037 121.779C161.02 123.045 157.823 125.577 153.177 125.577C148.531 125.577 145.458 121.184 144.503 118.987L159.729 116.53L142.455 112.063L143.237 101.192L145.471 106.143H211.765L213.988 101.204L214.898 112.025L197.082 116.361L212.712 118.948C211.498 121.462 207.455 126.835 201.6 125.324C197.082 124.158 194.057 121.608 194.021 120.333L191.225 130.018C195.113 131.768 197.846 135.298 197.846 142.403Z" stroke="#748395" stroke-width="1.13322" stroke-linejoin="round"/>
</g>
<rect y="2" width="359" height="236" fill="url(#paint6_radial_2285_7293)"/>
<defs>
<filter id="filter0_i_2285_7293" x="0.558594" y="24.8472" width="359.329" height="177.096" filterUnits="userSpaceOnUse" color-interpolation-filters="sRGB">
<feFlood flood-opacity="0" result="BackgroundImageFix"/>
<feBlend mode="normal" in="SourceGraphic" in2="BackgroundImageFix" result="shape"/>
<feColorMatrix in="SourceAlpha" type="matrix" values="0 0 0 0 0 0 0 0 0 0 0 0 0 0 0 0 0 0 127 0" result="hardAlpha"/>
<feOffset dy="7.93253"/>
<feComposite in2="hardAlpha" operator="arithmetic" k2="-1" k3="1"/>
<feColorMatrix type="matrix" values="0 0 0 0 1 0 0 0 0 1 0 0 0 0 1 0 0 0 1 0"/>
<feBlend mode="normal" in2="shape" result="effect1_innerShadow_2285_7293"/>
</filter>
<filter id="filter1_i_2285_7293" x="219.793" y="116.479" width="156.535" height="88.8965" filterUnits="userSpaceOnUse" color-interpolation-filters="sRGB">
<feFlood flood-opacity="0" result="BackgroundImageFix"/>
<feBlend mode="normal" in="SourceGraphic" in2="BackgroundImageFix" result="shape"/>
<feColorMatrix in="SourceAlpha" type="matrix" values="0 0 0 0 0 0 0 0 0 0 0 0 0 0 0 0 0 0 127 0" result="hardAlpha"/>
<feOffset dy="7.93253"/>
<feComposite in2="hardAlpha" operator="arithmetic" k2="-1" k3="1"/>
<feColorMatrix type="matrix" values="0 0 0 0 1 0 0 0 0 1 0 0 0 0 1 0 0 0 1 0"/>
<feBlend mode="normal" in2="shape" result="effect1_innerShadow_2285_7293"/>
</filter>
<filter id="filter2_i_2285_7293" x="-7.0293" y="133.458" width="93.334" height="70.1123" filterUnits="userSpaceOnUse" color-interpolation-filters="sRGB">
<feFlood flood-opacity="0" result="BackgroundImageFix"/>
<feBlend mode="normal" in="SourceGraphic" in2="BackgroundImageFix" result="shape"/>
<feColorMatrix in="SourceAlpha" type="matrix" values="0 0 0 0 0 0 0 0 0 0 0 0 0 0 0 0 0 0 127 0" result="hardAlpha"/>
<feOffset dy="7.93253"/>
<feComposite in2="hardAlpha" operator="arithmetic" k2="-1" k3="1"/>
<feColorMatrix type="matrix" values="0 0 0 0 1 0 0 0 0 1 0 0 0 0 1 0 0 0 1 0"/>
<feBlend mode="normal" in2="shape" result="effect1_innerShadow_2285_7293"/>
</filter>
<filter id="filter3_f_2285_7293" x="-21.1361" y="73.4469" width="429.379" height="132.319" filterUnits="userSpaceOnUse" color-interpolation-filters="sRGB">
<feFlood flood-opacity="0" result="BackgroundImageFix"/>
<feBlend mode="normal" in="SourceGraphic" in2="BackgroundImageFix" result="shape"/>
<feGaussianBlur stdDeviation="7.36592" result="effect1_foregroundBlur_2285_7293"/>
</filter>
<linearGradient id="paint0_linear_2285_7293" x1="141.214" y1="-9.39272" x2="146.322" y2="61.3864" gradientUnits="userSpaceOnUse">
<stop stop-color="white" stop-opacity="0"/>
<stop offset="1" stop-color="#A9B3BB"/>
</linearGradient>
<linearGradient id="paint1_linear_2285_7293" x1="32.0554" y1="4.03589" x2="114.454" y2="79.8298" gradientUnits="userSpaceOnUse">
<stop stop-color="white" stop-opacity="0"/>
<stop offset="1" stop-color="#A9B3BB"/>
</linearGradient>
<linearGradient id="paint2_linear_2285_7293" x1="239.034" y1="-3.37938" x2="198.807" y2="80.0124" gradientUnits="userSpaceOnUse">
<stop stop-color="white" stop-opacity="0"/>
<stop offset="1" stop-color="#A9B3BB"/>
</linearGradient>
<linearGradient id="paint3_linear_2285_7293" x1="180.201" y1="43.0214" x2="180.223" y2="201.943" gradientUnits="userSpaceOnUse">
<stop stop-color="#DADFE3"/>
<stop offset="1" stop-color="#F3F5F8"/>
</linearGradient>
<linearGradient id="paint4_linear_2285_7293" x1="298.051" y1="125.601" x2="298.064" y2="205.375" gradientUnits="userSpaceOnUse">
<stop stop-color="#DADFE3"/>
<stop offset="1" stop-color="#F3F5F8"/>
</linearGradient>
<linearGradient id="paint5_linear_2285_7293" x1="39.6321" y1="140.653" x2="39.6456" y2="203.57" gradientUnits="userSpaceOnUse">
<stop stop-color="#DADFE3"/>
<stop offset="1" stop-color="#F3F5F8"/>
</linearGradient>
<radialGradient id="paint6_radial_2285_7293" cx="0" cy="0" r="1" gradientUnits="userSpaceOnUse" gradientTransform="translate(179.5 120) rotate(90) scale(118 159.163)">
<stop stop-color="#F3F5F8" stop-opacity="0"/>
<stop offset="0.71976" stop-color="#F3F5F8" stop-opacity="0.285137"/>
<stop offset="1" stop-color="#F3F5F8"/>
</radialGradient>
<clip-path id="clip0_2285_7293">
<rect width="339.609" height="230.449" fill="white" transform="translate(8.66406 -14.1577)"/>
</clip-path>
</defs>
</svg>
