<svg width="363" height="228" viewBox="0 0 363 228" fill="none" xmlns="http://www.w3.org/2000/svg">
<g clip-path="url(#clip0_2285_7295)">
<g clip-path="url(#clip1_2285_7295)">
<path d="M133.252 99.5949L97.0254 12.3658L148.505 -23.8613L171.862 81.9584L133.252 99.5949Z" fill="url(#paint0_linear_2285_7295)"/>
<path d="M89.3994 119.139L-5.93359 41.9183L-2.59692 7.59907L59.8462 4.26221L114.663 94.352L89.3994 119.139Z" fill="url(#paint1_linear_2285_7295)"/>
<path d="M285.818 -10.4039L207.033 85.7954L187.544 76.9004L221.029 -27.9411L285.818 -10.4039Z" fill="url(#paint2_linear_2285_7295)"/>
<path d="M-19.2804 86.7256L50.3127 114.372V134.392L-50.2637 201.125L-19.2804 86.7256Z" fill="white" fill-opacity="0.2"/>
<g filter="url(#filter0_i_2285_7295)">
<path d="M16.6486 117.304C15.2947 110.535 9.31507 104.022 6.49446 101.612L0.558594 201.943H359.888V53.6105C353.682 48.2771 337.456 37.8255 322.194 38.6871C306.933 39.5486 298.296 48.995 295.886 53.6105C290.091 49.713 274.624 43.918 259.116 51.9182C243.608 59.9184 230.09 77.406 225.269 85.1497C220.038 61.9184 197.73 27.7636 157.114 24.9943C124.62 22.7789 106.651 46.123 101.728 58.0719C94.753 54.1744 76.3731 48.8718 58.6496 58.8413C40.9261 68.8107 39.4696 89.4577 40.9569 98.535C27.4181 100.258 19.1102 111.766 16.6486 117.304Z" fill="url(#paint3_linear_2285_7295)"/>
</g>
<g filter="url(#filter1_i_2285_7295)">
<path d="M246.336 122.372C231.73 126.054 224.396 137.305 222.555 142.471L219.793 176.684L368.309 205.375C375.162 181.594 383.959 131.424 364.32 120.991C344.682 110.558 324.327 120.633 316.605 126.975C300.771 123.292 287.812 132.907 283.311 138.175C277.072 131.373 260.942 118.69 246.336 122.372Z" fill="url(#paint4_linear_2285_7295)"/>
</g>
<g filter="url(#filter2_i_2285_7295)">
<path d="M79.2947 152.632C58.3787 133.879 19.6417 132.347 2.88776 133.925L-7.0293 201.541L51.3464 203.57C69.3775 194.404 100.211 171.384 79.2947 152.632Z" fill="url(#paint5_linear_2285_7295)"/>
</g>
<mask id="mask0_2285_7295" style="mask-type:alpha" maskUnits="userSpaceOnUse" x="-3" y="139" width="377" height="127">
<path d="M29.2731 167.874C21.6307 170.058 8.11994 175.948 2.31987 178.621L-2.56836 255.902L325.448 265.475C350.868 241.118 393.731 189.278 361.823 176.77C321.938 161.135 262.563 139.643 178.979 139.643C111.123 139.643 66.549 154.042 49.4164 161.344C50.7505 156.008 51.7198 145.416 44.9238 145.742C38.1278 146.069 39.3694 157.968 40.8397 163.876L37.4907 165.019C36.4016 161.371 33.2333 154.515 29.2731 156.279C25.3129 158.044 27.623 164.744 29.2731 167.874Z" fill="white"/>
</mask>
<g mask="url(#mask0_2285_7295)">
<rect x="8.66406" y="129.656" width="339.609" height="73.6396" fill="#F3F5F8"/>
<g filter="url(#filter3_f_2285_7295)">
<path d="M169.67 150.24C77.9019 150.24 21.721 176.041 5.10154 188.941L-6.4043 88.1787L393.511 92.0136L359.342 191.034C334.354 177.436 261.438 150.24 169.67 150.24Z" fill="#C2CCD4"/>
</g>
<path d="M30.0167 168.164C22.3743 170.347 10.103 177.082 4.30293 179.755L-0.585304 257.036L-44.1699 231.566L-6.86318 53.0514L145.502 45.7295L461.389 40.5L435.937 252.835L327.431 266.609C352.851 242.252 395.269 194.7 363.361 182.192C323.476 166.557 264.546 142.683 180.962 142.683C113.106 142.683 65.7935 154.986 48.6609 162.289C49.995 156.952 53.7029 146.55 46.9069 146.876C40.1108 147.203 40.5962 158.119 42.0665 164.027L38.7175 165.17C37.6284 161.522 35.2164 155.649 31.2562 157.413C27.296 159.178 28.3666 165.034 30.0167 168.164Z" stroke="#DADFE3" stroke-width="8.66348"/>
<g style="mix-blend-mode:multiply" opacity="0.46">
<path d="M219.837 181.774C219.837 182.388 219.568 183 219.034 183.603C218.498 184.208 217.702 184.798 216.665 185.365C214.591 186.498 211.581 187.522 207.849 188.385C200.388 190.109 190.073 191.177 178.675 191.177C167.277 191.177 156.962 190.109 149.501 188.385C145.769 187.522 142.759 186.498 140.685 185.365C139.648 184.798 138.852 184.208 138.316 183.603C137.782 183 137.513 182.388 137.513 181.774C137.513 181.159 137.782 180.548 138.316 179.944C138.852 179.34 139.648 178.75 140.685 178.183C142.759 177.05 145.769 176.025 149.501 175.163C156.962 173.439 167.277 172.371 178.675 172.371C190.073 172.371 200.388 173.439 207.849 175.163C211.581 176.025 214.591 177.05 216.665 178.183C217.702 178.75 218.498 179.34 219.034 179.944C219.568 180.548 219.837 181.159 219.837 181.774Z" fill="#DADFE3"/>
<path d="M219.837 181.774C219.837 182.388 219.568 183 219.034 183.603C218.498 184.208 217.702 184.798 216.665 185.365C214.591 186.498 211.581 187.522 207.849 188.385C200.388 190.109 190.073 191.177 178.675 191.177C167.277 191.177 156.962 190.109 149.501 188.385C145.769 187.522 142.759 186.498 140.685 185.365C139.648 184.798 138.852 184.208 138.316 183.603C137.782 183 137.513 182.388 137.513 181.774C137.513 181.159 137.782 180.548 138.316 179.944C138.852 179.34 139.648 178.75 140.685 178.183C142.759 177.05 145.769 176.025 149.501 175.163C156.962 173.439 167.277 172.371 178.675 172.371C190.073 172.371 200.388 173.439 207.849 175.163C211.581 176.025 214.591 177.05 216.665 178.183C217.702 178.75 218.498 179.34 219.034 179.944C219.568 180.548 219.837 181.159 219.837 181.774Z" stroke="#DADFE3" stroke-width="0.283305"/>
</g>
<path d="M29.2731 167.874C21.6307 170.058 8.11994 175.948 2.31987 178.621L-2.56836 255.902L325.448 265.475C350.868 241.118 393.731 189.278 361.823 176.77C321.938 161.135 262.563 139.643 178.979 139.643C111.123 139.643 66.549 154.042 49.4164 161.344C50.7505 156.008 51.7198 145.416 44.9238 145.742C38.1278 146.069 39.3694 157.968 40.8397 163.876L37.4907 165.019C36.4016 161.371 33.2333 154.515 29.2731 156.279C25.3129 158.044 27.623 164.744 29.2731 167.874Z" stroke="white" stroke-width="3.46539"/>
</g>
<path d="M150.318 155.105C149.606 137.81 160.135 122.351 161.958 118.873C172.287 116.642 194.747 119.857 194.747 119.857C194.747 119.856 206.387 137.726 206.387 156.416C206.387 172.465 187.761 183.511 185.243 183.511C182.725 183.511 182.418 182.29 182.971 179.588C183.413 177.426 182.173 172.792 181.497 170.745C181.497 170.745 180.711 171.298 178.55 171.298C176.388 171.298 174.62 170.602 174.005 170.254C173.657 171.155 172.962 173.656 172.962 176.456C172.962 179.956 176.265 183.511 170.542 183.511C164.819 183.511 151.208 176.724 150.318 155.105Z" fill="#B5C0CB" stroke="#1C0F1A" stroke-width="0.849914"/>
<mask id="mask1_2285_7295" style="mask-type:alpha" maskUnits="userSpaceOnUse" x="149" y="117" width="58" height="67">
<path d="M150.318 155.105C149.606 137.81 160.135 122.351 161.958 118.873C172.287 116.643 194.747 119.857 194.747 119.857C194.747 119.856 206.387 137.726 206.387 156.417C206.387 172.465 187.761 183.511 185.243 183.511C182.725 183.511 182.418 182.29 182.971 179.588C183.413 177.427 182.173 172.793 181.497 170.746C181.497 170.746 180.711 171.298 178.55 171.298C176.388 171.298 174.62 170.602 174.005 170.254C173.657 171.155 172.962 173.656 172.962 176.457C172.962 179.957 176.265 183.511 170.542 183.511C164.819 183.511 151.208 176.724 150.318 155.105Z" fill="#79594E" stroke="#6A7E98" stroke-width="0.849914"/>
</mask>
<g mask="url(#mask1_2285_7295)">
<path d="M174.139 180.135C168.418 182.684 161.078 179.539 158.734 179.382L164.89 186.601L177.018 182.684C177.285 181.064 177.316 178.72 174.139 180.135Z" fill="#6A7E98" stroke="#6A7E98" stroke-width="0.849914" stroke-linecap="round" stroke-linejoin="round"/>
<path d="M180.746 180.135C186.467 182.684 193.807 179.539 196.15 179.382L189.995 186.601L177.867 182.684C177.599 181.064 177.569 178.72 180.746 180.135Z" fill="#6A7E98" stroke="#6A7E98" stroke-width="0.849914" stroke-linecap="round" stroke-linejoin="round"/>
<path d="M150.318 155.105C149.606 137.81 160.135 122.351 161.958 118.873C172.287 116.643 194.747 119.857 194.747 119.857C194.747 119.856 206.387 137.726 206.387 156.417C206.387 172.465 187.761 183.511 185.243 183.511C182.725 183.511 182.418 182.29 182.971 179.588C183.413 177.427 182.173 172.793 181.497 170.746C181.497 170.746 180.711 171.298 178.55 171.298C176.388 171.298 174.62 170.602 174.005 170.254C173.657 171.155 172.962 173.656 172.962 176.457C172.962 179.957 176.265 183.511 170.542 183.511C164.819 183.511 151.208 176.724 150.318 155.105Z" stroke="#6A7E98" stroke-width="1.13322"/>
</g>
<path d="M170.275 166.661C171.554 168.153 173.794 171.395 178.006 171.395C182.217 171.395 185.318 167.956 186.672 166.463" stroke="#6A7E98" stroke-width="1.13322" stroke-linecap="round" stroke-linejoin="round"/>
<path d="M159.181 67.2368C157.412 70.9705 160.84 73.0036 162.775 73.5535L168.453 68.6487C166.099 66.6223 160.949 63.503 159.181 67.2368Z" fill="#788594"/>
<path d="M199.033 68.586C197.363 64.0662 192.565 65.9658 190.375 67.4806L191.48 74.2355C194.694 74.2355 200.703 73.1057 199.033 68.586Z" fill="#788594"/>
<path d="M179.009 63.0254C159.083 63.0254 157.692 84.2296 159.487 94.8316C161.731 98.0575 168.507 104.509 177.662 104.509C186.817 104.509 194.509 99.5593 197.201 96.3335C199.445 85.7314 198.934 63.0254 179.009 63.0254Z" fill="#C8D0D6"/>
<path d="M207.489 85.1018C202.482 91.0083 199.241 94.0399 195.203 96.5537L183.604 108.04C184.27 108.764 188.895 108.586 203.889 104.014C222.631 98.3003 213.032 78.5634 207.489 85.1018Z" fill="#C8D0D6"/>
<path d="M198.52 105.781C224.168 99.8257 213.033 78.563 207.49 85.1014C203.398 89.9276 200.487 92.8343 197.355 95.1076" stroke="#6A7E98" stroke-width="1.13322" stroke-linecap="round" stroke-linejoin="round"/>
<path d="M166.039 76.0903C166.76 75.7212 168.834 74.9513 171.365 74.8247" stroke="#5E6F83" stroke-width="2.26644" stroke-linecap="round"/>
<path d="M191.031 76.0903C190.311 75.7212 188.237 74.9513 185.706 74.8247" stroke="#5E6F83" stroke-width="2.26644" stroke-linecap="round"/>
<path d="M187.086 86.0212C187.988 91.8849 184.65 95.2223 178.065 95.2223C171.751 95.2223 169.54 91.0727 170.172 86.5172C170.803 81.9617 173.87 76.9551 178.065 76.9551C182.26 76.9551 186.184 80.1575 187.086 86.0212Z" fill="#97A5B5"/>
<path d="M178.422 87.0665V80.0581" stroke="#5A6573" stroke-width="1.13322"/>
<path d="M176.07 89.6052L178.398 87.0664L180.963 89.4464" stroke="#5A6573" stroke-width="1.13322" stroke-linecap="round"/>
<path d="M180.473 79.4631C180.473 79.6933 180.289 79.9373 179.911 80.1322C179.54 80.3233 179.018 80.4457 178.434 80.4457C177.85 80.4457 177.328 80.3233 176.957 80.1322C176.579 79.9373 176.396 79.6933 176.396 79.4631C176.396 79.2329 176.579 78.9889 176.957 78.794C177.328 78.6029 177.85 78.4805 178.434 78.4805C179.018 78.4805 179.54 78.6029 179.911 78.794C180.289 78.9889 180.473 79.2329 180.473 79.4631Z" fill="#5A6573" stroke="#5A6573" stroke-width="0.283305"/>
<path d="M148.784 104.671C147.542 96.4502 154.878 89.4572 158.701 86.9883C156.439 90.0231 160.395 95.23 164.969 97.7798C170.637 100.939 188.683 99.5445 196.588 96.4381C196.831 96.3425 197.066 96.6095 196.952 96.8449C182.11 127.622 150.326 114.871 148.784 104.671Z" fill="#A7B4C4" stroke="#95A6B3" stroke-width="1.13322" stroke-linecap="round"/>
<path d="M159.115 90.7517C158.719 87.0813 158.727 78.4332 161.927 73.204C160.475 72.4909 157.547 70.8045 159.115 67.4598C160.78 63.9087 164.794 66.2034 166.429 67.1925C168.019 65.7961 172.691 63.0034 178.656 63.0034C184.62 63.0034 189.406 65.7961 191.053 67.1925C192.665 66.0755 196.419 64.5741 198.545 67.5039C201.204 71.1661 196.891 73.5262 195.697 73.689C197.148 76.8126 199.155 86.365 196.938 96.3403C198.545 99.9846 198.99 103.725 197.725 107.528" stroke="#6A7E98" stroke-width="1.13322" stroke-linecap="round" stroke-linejoin="round"/>
<path d="M154.608 103.164C153.463 96.9042 158.058 91.9728 160.498 90.2896L165.462 93.4029C164.873 104.089 170.006 103.921 168.071 107.539C166.135 111.158 156.038 110.989 154.608 103.164Z" fill="#C8D0D6"/>
<path d="M160.498 90.2896C158.058 91.9728 153.463 96.9042 154.608 103.164C156.038 110.989 166.135 111.158 168.071 107.539C170.006 103.921 164.873 104.089 165.462 93.4029" stroke="#6A7E98" stroke-width="1.13322" stroke-linecap="round" stroke-linejoin="round"/>
<path d="M203.671 125.514C198.13 125.514 194.291 121.112 193.064 118.911L191.766 115.772L212.655 118.911C211.969 121.112 209.213 125.514 203.671 125.514Z" fill="#6A7E98" stroke="#798186" stroke-width="0.283305"/>
<path d="M153.62 125.514C159.161 125.514 163 121.112 164.227 118.911L165.525 115.772L144.636 118.911C145.322 121.112 148.078 125.514 153.62 125.514Z" fill="#6A7E98" stroke="#798186" stroke-width="0.283305"/>
<path d="M211.79 106.137H187.654L195.555 116.744L214.929 112.09L214.063 101.159L211.79 106.137Z" fill="#55667C" stroke="#798186" stroke-width="0.283305"/>
<path d="M145.503 106.137H169.639L161.738 116.744L142.364 112.09L143.23 101.159L145.503 106.137Z" fill="#55667C" stroke="#798186" stroke-width="0.283305"/>
<path d="M159.729 116.528L164.707 106.137H190.792L197.286 116.528C191.917 119.992 191.129 131.753 190.083 137.201H165.416C164.464 130.101 162.11 120.461 159.729 116.528Z" fill="#B4BFCA" stroke="#798186" stroke-width="0.566609"/>
<ellipse cx="171.177" cy="119.404" rx="0.977445" ry="2.26499" fill="#5A6573"/>
<ellipse cx="186.112" cy="119.404" rx="0.977445" ry="2.26499" fill="#5A6573"/>
<path d="M197.845 142.403C197.845 150.398 194.397 158.824 176.453 158.824C161.446 158.824 157.062 150.878 157.062 141.444C157.062 129.862 166.992 128.318 176.453 128.318C185.915 128.318 197.845 127.559 197.845 142.403Z" fill="#8E9DAD" stroke="#798186" stroke-width="0.566609"/>
<path d="M187.398 135.852L183.99 139.814C184.426 140.197 185.781 140.56 187.715 138.943C188.494 138.292 188.309 136.208 187.398 135.852Z" fill="#5A6573"/>
<path d="M169.897 135.852L173.305 139.814C172.869 140.197 171.514 140.56 169.58 138.943C168.801 138.292 168.986 136.208 169.897 135.852Z" fill="#5A6573"/>
<path d="M197.846 142.403C197.846 150.398 194.399 158.825 176.455 158.825C161.447 158.825 157.064 150.878 157.064 141.445C157.064 135.137 160.009 131.806 164.22 130.081L162.037 121.779C161.02 123.045 157.823 125.577 153.177 125.577C148.531 125.577 145.458 121.184 144.503 118.987L159.729 116.53L142.455 112.063L143.237 101.192L145.471 106.143H211.765L213.988 101.204L214.898 112.025L197.082 116.361L212.712 118.948C211.498 121.462 207.455 126.835 201.6 125.324C197.082 124.158 194.057 121.608 194.021 120.333L191.225 130.018C195.113 131.768 197.846 135.298 197.846 142.403Z" stroke="#748395" stroke-width="1.13322" stroke-linejoin="round"/>
</g>
<rect y="2" width="359" height="236" fill="url(#paint6_radial_2285_7295)"/>
<path opacity="0.3" d="M51.3364 205.391C51.3364 203.104 51.8311 201.071 52.8205 199.29C53.8099 197.487 55.1841 196.091 56.943 195.101C58.7239 194.09 60.7357 193.584 62.9784 193.584C65.7267 193.584 68.0793 194.31 70.0361 195.761C71.9929 197.212 73.3011 199.191 73.9608 201.697H67.7605C67.2988 200.73 66.6392 199.993 65.7817 199.488C64.9462 198.982 63.9898 198.729 62.9124 198.729C61.1755 198.729 59.7683 199.334 58.691 200.543C57.6136 201.752 57.0749 203.368 57.0749 205.391C57.0749 207.414 57.6136 209.03 58.691 210.239C59.7683 211.448 61.1755 212.053 62.9124 212.053C63.9898 212.053 64.9462 211.8 65.7817 211.294C66.6392 210.789 67.2988 210.052 67.7605 209.085H73.9608C73.3011 211.591 71.9929 213.57 70.0361 215.021C68.0793 216.45 65.7267 217.165 62.9784 217.165C60.7357 217.165 58.7239 216.67 56.943 215.681C55.1841 214.669 53.8099 213.273 52.8205 211.492C51.8311 209.711 51.3364 207.678 51.3364 205.391ZM85.7913 217.264C83.9884 217.264 82.3614 216.879 80.9103 216.11C79.4811 215.34 78.3488 214.241 77.5133 212.812C76.6998 211.382 76.2931 209.711 76.2931 207.799C76.2931 205.908 76.7108 204.248 77.5463 202.819C78.3818 201.367 79.5251 200.257 80.9762 199.488C82.4274 198.718 84.0544 198.333 85.8573 198.333C87.6602 198.333 89.2872 198.718 90.7384 199.488C92.1895 200.257 93.3328 201.367 94.1683 202.819C95.0038 204.248 95.4215 205.908 95.4215 207.799C95.4215 209.689 94.9928 211.36 94.1353 212.812C93.2998 214.241 92.1455 215.34 90.6724 216.11C89.2213 216.879 87.5942 217.264 85.7913 217.264ZM85.7913 212.383C86.8687 212.383 87.7811 211.987 88.5287 211.195C89.2982 210.404 89.683 209.272 89.683 207.799C89.683 206.325 89.3092 205.193 88.5617 204.402C87.8361 203.61 86.9346 203.214 85.8573 203.214C84.758 203.214 83.8455 203.61 83.1199 204.402C82.3944 205.171 82.0316 206.303 82.0316 207.799C82.0316 209.272 82.3834 210.404 83.087 211.195C83.8125 211.987 84.714 212.383 85.7913 212.383ZM121.895 198.399C124.182 198.399 125.996 199.092 127.337 200.477C128.7 201.862 129.382 203.786 129.382 206.248V217H123.775V207.007C123.775 205.82 123.456 204.907 122.819 204.27C122.203 203.61 121.346 203.28 120.246 203.28C119.147 203.28 118.278 203.61 117.641 204.27C117.025 204.907 116.717 205.82 116.717 207.007V217H111.111V207.007C111.111 205.82 110.792 204.907 110.154 204.27C109.539 203.61 108.681 203.28 107.582 203.28C106.483 203.28 105.614 203.61 104.976 204.27C104.361 204.907 104.053 205.82 104.053 207.007V217H98.4134V198.597H104.053V200.906C104.625 200.136 105.372 199.532 106.296 199.092C107.219 198.63 108.264 198.399 109.429 198.399C110.814 198.399 112.045 198.696 113.123 199.29C114.222 199.883 115.079 200.73 115.695 201.829C116.333 200.818 117.201 199.993 118.3 199.356C119.4 198.718 120.598 198.399 121.895 198.399ZM136.162 196.684C135.173 196.684 134.359 196.398 133.722 195.827C133.106 195.233 132.798 194.508 132.798 193.65C132.798 192.771 133.106 192.045 133.722 191.473C134.359 190.88 135.173 190.583 136.162 190.583C137.13 190.583 137.921 190.88 138.537 191.473C139.174 192.045 139.493 192.771 139.493 193.65C139.493 194.508 139.174 195.233 138.537 195.827C137.921 196.398 137.13 196.684 136.162 196.684ZM138.966 198.597V217H133.326V198.597H138.966ZM154.266 198.399C156.42 198.399 158.135 199.103 159.411 200.51C160.708 201.895 161.357 203.808 161.357 206.248V217H155.75V207.007C155.75 205.776 155.431 204.819 154.793 204.138C154.156 203.456 153.298 203.115 152.221 203.115C151.144 203.115 150.286 203.456 149.649 204.138C149.011 204.819 148.692 205.776 148.692 207.007V217H143.053V198.597H148.692V201.038C149.264 200.224 150.033 199.586 151.001 199.125C151.968 198.641 153.057 198.399 154.266 198.399ZM172.267 198.333C173.564 198.333 174.697 198.597 175.664 199.125C176.654 199.652 177.412 200.345 177.94 201.203V198.597H183.579V216.967C183.579 218.66 183.239 220.188 182.557 221.551C181.897 222.936 180.875 224.036 179.49 224.849C178.127 225.663 176.423 226.07 174.378 226.07C171.652 226.07 169.442 225.421 167.749 224.124C166.056 222.848 165.089 221.112 164.847 218.913H170.42C170.596 219.616 171.014 220.166 171.674 220.562C172.333 220.98 173.147 221.188 174.114 221.188C175.279 221.188 176.203 220.848 176.884 220.166C177.588 219.506 177.94 218.44 177.94 216.967V214.362C177.39 215.219 176.632 215.923 175.664 216.472C174.697 217 173.564 217.264 172.267 217.264C170.75 217.264 169.376 216.879 168.145 216.11C166.913 215.318 165.935 214.208 165.21 212.779C164.506 211.327 164.154 209.656 164.154 207.766C164.154 205.875 164.506 204.215 165.21 202.786C165.935 201.356 166.913 200.257 168.145 199.488C169.376 198.718 170.75 198.333 172.267 198.333ZM177.94 207.799C177.94 206.391 177.544 205.281 176.753 204.468C175.983 203.654 175.038 203.247 173.916 203.247C172.795 203.247 171.839 203.654 171.047 204.468C170.277 205.259 169.893 206.358 169.893 207.766C169.893 209.173 170.277 210.294 171.047 211.13C171.839 211.943 172.795 212.35 173.916 212.35C175.038 212.35 175.983 211.943 176.753 211.13C177.544 210.316 177.94 209.206 177.94 207.799ZM203.025 217.231C201.332 217.231 199.815 216.956 198.474 216.406C197.133 215.857 196.056 215.043 195.242 213.966C194.451 212.888 194.033 211.591 193.989 210.074H199.991C200.079 210.932 200.376 211.591 200.882 212.053C201.387 212.493 202.047 212.713 202.86 212.713C203.696 212.713 204.356 212.526 204.839 212.152C205.323 211.756 205.565 211.217 205.565 210.536C205.565 209.964 205.367 209.492 204.971 209.118C204.597 208.744 204.125 208.436 203.553 208.194C203.003 207.952 202.212 207.678 201.178 207.37C199.683 206.908 198.463 206.446 197.518 205.985C196.572 205.523 195.759 204.841 195.077 203.94C194.396 203.038 194.055 201.862 194.055 200.411C194.055 198.256 194.835 196.574 196.396 195.365C197.957 194.134 199.991 193.518 202.498 193.518C205.048 193.518 207.104 194.134 208.665 195.365C210.226 196.574 211.061 198.267 211.171 200.444H205.07C205.026 199.696 204.751 199.114 204.246 198.696C203.74 198.256 203.091 198.036 202.3 198.036C201.618 198.036 201.069 198.223 200.651 198.597C200.233 198.949 200.024 199.466 200.024 200.147C200.024 200.895 200.376 201.477 201.08 201.895C201.783 202.313 202.882 202.764 204.378 203.247C205.873 203.753 207.082 204.237 208.005 204.698C208.951 205.16 209.764 205.831 210.446 206.71C211.127 207.59 211.468 208.722 211.468 210.107C211.468 211.426 211.127 212.625 210.446 213.702C209.786 214.779 208.819 215.637 207.544 216.274C206.268 216.912 204.762 217.231 203.025 217.231ZM223.316 217.264C221.513 217.264 219.886 216.879 218.435 216.11C217.006 215.34 215.873 214.241 215.038 212.812C214.224 211.382 213.818 209.711 213.818 207.799C213.818 205.908 214.235 204.248 215.071 202.819C215.906 201.367 217.05 200.257 218.501 199.488C219.952 198.718 221.579 198.333 223.382 198.333C225.185 198.333 226.812 198.718 228.263 199.488C229.714 200.257 230.857 201.367 231.693 202.819C232.528 204.248 232.946 205.908 232.946 207.799C232.946 209.689 232.517 211.36 231.66 212.812C230.824 214.241 229.67 215.34 228.197 216.11C226.746 216.879 225.119 217.264 223.316 217.264ZM223.316 212.383C224.393 212.383 225.306 211.987 226.053 211.195C226.823 210.404 227.207 209.272 227.207 207.799C227.207 206.325 226.834 205.193 226.086 204.402C225.361 203.61 224.459 203.214 223.382 203.214C222.282 203.214 221.37 203.61 220.644 204.402C219.919 205.171 219.556 206.303 219.556 207.799C219.556 209.272 219.908 210.404 220.611 211.195C221.337 211.987 222.238 212.383 223.316 212.383ZM244.315 217.264C242.512 217.264 240.885 216.879 239.434 216.11C238.005 215.34 236.872 214.241 236.037 212.812C235.223 211.382 234.817 209.711 234.817 207.799C234.817 205.908 235.234 204.248 236.07 202.819C236.905 201.367 238.049 200.257 239.5 199.488C240.951 198.718 242.578 198.333 244.381 198.333C246.184 198.333 247.811 198.718 249.262 199.488C250.713 200.257 251.856 201.367 252.692 202.819C253.527 204.248 253.945 205.908 253.945 207.799C253.945 209.689 253.516 211.36 252.659 212.812C251.823 214.241 250.669 215.34 249.196 216.11C247.745 216.879 246.118 217.264 244.315 217.264ZM244.315 212.383C245.392 212.383 246.305 211.987 247.052 211.195C247.822 210.404 248.207 209.272 248.207 207.799C248.207 206.325 247.833 205.193 247.085 204.402C246.36 203.61 245.458 203.214 244.381 203.214C243.282 203.214 242.369 203.61 241.644 204.402C240.918 205.171 240.555 206.303 240.555 207.799C240.555 209.272 240.907 210.404 241.611 211.195C242.336 211.987 243.238 212.383 244.315 212.383ZM268.15 198.399C270.305 198.399 272.02 199.103 273.295 200.51C274.592 201.895 275.241 203.808 275.241 206.248V217H269.634V207.007C269.634 205.776 269.316 204.819 268.678 204.138C268.04 203.456 267.183 203.115 266.105 203.115C265.028 203.115 264.171 203.456 263.533 204.138C262.895 204.819 262.577 205.776 262.577 207.007V217H256.937V198.597H262.577V201.038C263.148 200.224 263.918 199.586 264.885 199.125C265.853 198.641 266.941 198.399 268.15 198.399ZM281.798 217.264C280.809 217.264 279.995 216.978 279.358 216.406C278.742 215.813 278.434 215.087 278.434 214.23C278.434 213.35 278.742 212.614 279.358 212.02C279.995 211.426 280.809 211.13 281.798 211.13C282.766 211.13 283.557 211.426 284.173 212.02C284.811 212.614 285.129 213.35 285.129 214.23C285.129 215.087 284.811 215.813 284.173 216.406C283.557 216.978 282.766 217.264 281.798 217.264ZM291.106 217.264C290.117 217.264 289.303 216.978 288.666 216.406C288.05 215.813 287.742 215.087 287.742 214.23C287.742 213.35 288.05 212.614 288.666 212.02C289.303 211.426 290.117 211.13 291.106 211.13C292.074 211.13 292.865 211.426 293.481 212.02C294.118 212.614 294.437 213.35 294.437 214.23C294.437 215.087 294.118 215.813 293.481 216.406C292.865 216.978 292.074 217.264 291.106 217.264ZM300.414 217.264C299.425 217.264 298.611 216.978 297.974 216.406C297.358 215.813 297.05 215.087 297.05 214.23C297.05 213.35 297.358 212.614 297.974 212.02C298.611 211.426 299.425 211.13 300.414 211.13C301.381 211.13 302.173 211.426 302.789 212.02C303.426 212.614 303.745 213.35 303.745 214.23C303.745 215.087 303.426 215.813 302.789 216.406C302.173 216.978 301.381 217.264 300.414 217.264ZM309.722 217.264C308.733 217.264 307.919 216.978 307.281 216.406C306.666 215.813 306.358 215.087 306.358 214.23C306.358 213.35 306.666 212.614 307.281 212.02C307.919 211.426 308.733 211.13 309.722 211.13C310.689 211.13 311.481 211.426 312.097 212.02C312.734 212.614 313.053 213.35 313.053 214.23C313.053 215.087 312.734 215.813 312.097 216.406C311.481 216.978 310.689 217.264 309.722 217.264Z" fill="#AAB8C1"/>
</g>
<defs>
<filter id="filter0_i_2285_7295" x="0.558594" y="24.8472" width="359.329" height="177.096" filterUnits="userSpaceOnUse" color-interpolation-filters="sRGB">
<feFlood flood-opacity="0" result="BackgroundImageFix"/>
<feBlend mode="normal" in="SourceGraphic" in2="BackgroundImageFix" result="shape"/>
<feColorMatrix in="SourceAlpha" type="matrix" values="0 0 0 0 0 0 0 0 0 0 0 0 0 0 0 0 0 0 127 0" result="hardAlpha"/>
<feOffset dy="7.93253"/>
<feComposite in2="hardAlpha" operator="arithmetic" k2="-1" k3="1"/>
<feColorMatrix type="matrix" values="0 0 0 0 1 0 0 0 0 1 0 0 0 0 1 0 0 0 1 0"/>
<feBlend mode="normal" in2="shape" result="effect1_innerShadow_2285_7295"/>
</filter>
<filter id="filter1_i_2285_7295" x="219.793" y="116.479" width="156.535" height="88.8965" filterUnits="userSpaceOnUse" color-interpolation-filters="sRGB">
<feFlood flood-opacity="0" result="BackgroundImageFix"/>
<feBlend mode="normal" in="SourceGraphic" in2="BackgroundImageFix" result="shape"/>
<feColorMatrix in="SourceAlpha" type="matrix" values="0 0 0 0 0 0 0 0 0 0 0 0 0 0 0 0 0 0 127 0" result="hardAlpha"/>
<feOffset dy="7.93253"/>
<feComposite in2="hardAlpha" operator="arithmetic" k2="-1" k3="1"/>
<feColorMatrix type="matrix" values="0 0 0 0 1 0 0 0 0 1 0 0 0 0 1 0 0 0 1 0"/>
<feBlend mode="normal" in2="shape" result="effect1_innerShadow_2285_7295"/>
</filter>
<filter id="filter2_i_2285_7295" x="-7.0293" y="133.458" width="93.334" height="70.1123" filterUnits="userSpaceOnUse" color-interpolation-filters="sRGB">
<feFlood flood-opacity="0" result="BackgroundImageFix"/>
<feBlend mode="normal" in="SourceGraphic" in2="BackgroundImageFix" result="shape"/>
<feColorMatrix in="SourceAlpha" type="matrix" values="0 0 0 0 0 0 0 0 0 0 0 0 0 0 0 0 0 0 127 0" result="hardAlpha"/>
<feOffset dy="7.93253"/>
<feComposite in2="hardAlpha" operator="arithmetic" k2="-1" k3="1"/>
<feColorMatrix type="matrix" values="0 0 0 0 1 0 0 0 0 1 0 0 0 0 1 0 0 0 1 0"/>
<feBlend mode="normal" in2="shape" result="effect1_innerShadow_2285_7295"/>
</filter>
<filter id="filter3_f_2285_7295" x="-21.1361" y="73.4469" width="429.379" height="132.319" filterUnits="userSpaceOnUse" color-interpolation-filters="sRGB">
<feFlood flood-opacity="0" result="BackgroundImageFix"/>
<feBlend mode="normal" in="SourceGraphic" in2="BackgroundImageFix" result="shape"/>
<feGaussianBlur stdDeviation="7.36592" result="effect1_foregroundBlur_2285_7295"/>
</filter>
<linearGradient id="paint0_linear_2285_7295" x1="141.214" y1="-9.39272" x2="146.322" y2="61.3864" gradientUnits="userSpaceOnUse">
<stop stop-color="white" stop-opacity="0"/>
<stop offset="1" stop-color="#A9B3BB"/>
</linearGradient>
<linearGradient id="paint1_linear_2285_7295" x1="32.0554" y1="4.03589" x2="114.454" y2="79.8298" gradientUnits="userSpaceOnUse">
<stop stop-color="white" stop-opacity="0"/>
<stop offset="1" stop-color="#A9B3BB"/>
</linearGradient>
<linearGradient id="paint2_linear_2285_7295" x1="239.034" y1="-3.37938" x2="198.807" y2="80.0124" gradientUnits="userSpaceOnUse">
<stop stop-color="white" stop-opacity="0"/>
<stop offset="1" stop-color="#A9B3BB"/>
</linearGradient>
<linearGradient id="paint3_linear_2285_7295" x1="180.201" y1="43.0214" x2="180.223" y2="201.943" gradientUnits="userSpaceOnUse">
<stop stop-color="#DADFE3"/>
<stop offset="1" stop-color="#F3F5F8"/>
</linearGradient>
<linearGradient id="paint4_linear_2285_7295" x1="298.051" y1="125.601" x2="298.064" y2="205.375" gradientUnits="userSpaceOnUse">
<stop stop-color="#DADFE3"/>
<stop offset="1" stop-color="#F3F5F8"/>
</linearGradient>
<linearGradient id="paint5_linear_2285_7295" x1="39.6321" y1="140.653" x2="39.6456" y2="203.57" gradientUnits="userSpaceOnUse">
<stop stop-color="#DADFE3"/>
<stop offset="1" stop-color="#F3F5F8"/>
</linearGradient>
<radialGradient id="paint6_radial_2285_7295" cx="0" cy="0" r="1" gradientUnits="userSpaceOnUse" gradientTransform="translate(179.5 120) rotate(90) scale(118 159.163)">
<stop stop-color="#F3F5F8" stop-opacity="0"/>
<stop offset="0.71976" stop-color="#F3F5F8" stop-opacity="0.285137"/>
<stop offset="1" stop-color="#F3F5F8"/>
</radialGradient>
<clipPath id="clip0_2285_7295">
<rect width="363" height="228" fill="white"/>
</clipPath>
<clipPath id="clip1_2285_7295">
<rect width="339.609" height="230.449" fill="white" transform="translate(8.66406 -14.1577)"/>
</clipPath>
</defs>
</svg>
