<svg width="16" height="16" viewBox="0 0 16 16" fill="none" xmlns="http://www.w3.org/2000/svg">
<g id="Frame">
<g id="Group">
<path id="Vector" d="M8 5.33334V14M2 6C2 5.82319 2.07024 5.65362 2.19526 5.5286C2.32029 5.40357 2.48986 5.33334 2.66667 5.33334H13.3333C13.5101 5.33334 13.6797 5.40357 13.8047 5.5286C13.9298 5.65362 14 5.82319 14 6V7.33334C14 7.51015 13.9298 7.67972 13.8047 7.80474C13.6797 7.92976 13.5101 8 13.3333 8H2.66667C2.48986 8 2.32029 7.92976 2.19526 7.80474C2.07024 7.67972 2 7.51015 2 7.33334V6Z" stroke="#798186" stroke-linecap="round" stroke-linejoin="round"/>
<path id="Vector_2" d="M12.6666 8V12.6667C12.6666 13.0203 12.5262 13.3594 12.2761 13.6095C12.0261 13.8595 11.6869 14 11.3333 14H4.66665C4.31302 14 3.97389 13.8595 3.72384 13.6095C3.47379 13.3594 3.33331 13.0203 3.33331 12.6667V8M4.99998 5.33334C4.55795 5.33334 4.13403 5.15774 3.82147 4.84518C3.50891 4.53262 3.33331 4.1087 3.33331 3.66667C3.33331 3.22464 3.50891 2.80072 3.82147 2.48816C4.13403 2.1756 4.55795 2 4.99998 2C5.6431 1.9888 6.27333 2.30084 6.80847 2.89544C7.34361 3.49004 7.75883 4.3396 7.99998 5.33334C8.24113 4.3396 8.65635 3.49004 9.19149 2.89544C9.72663 2.30084 10.3569 1.9888 11 2C11.442 2 11.8659 2.1756 12.1785 2.48816C12.4911 2.80072 12.6666 3.22464 12.6666 3.66667C12.6666 4.1087 12.4911 4.53262 12.1785 4.84518C11.8659 5.15774 11.442 5.33334 11 5.33334" stroke="#798186" stroke-linecap="round" stroke-linejoin="round"/>
</g>
</g>
</svg>
