<svg width="20" height="20" viewBox="0 0 20 20" fill="none" xmlns="http://www.w3.org/2000/svg">
<g id="&#229;&#184;&#129;&#231;&#167;&#141;">
<g id="Vector">
<path d="M10.038 18.3334C14.6191 18.3334 18.3329 14.6196 18.3329 10.0384C18.3329 5.45725 14.6191 1.74347 10.038 1.74347C5.45677 1.74347 1.74298 5.45725 1.74298 10.0384C1.74298 14.6196 5.45677 18.3334 10.038 18.3334Z" fill="white"/>
<path d="M10.038 18.3334C14.6191 18.3334 18.3329 14.6196 18.3329 10.0384C18.3329 5.45725 14.6191 1.74347 10.038 1.74347C5.45677 1.74347 1.74298 5.45725 1.74298 10.0384C1.74298 14.6196 5.45677 18.3334 10.038 18.3334Z" fill="#EDF0F4" fill-opacity="0.4"/>
</g>
<path id="Vector_2" d="M15.2559 5.16443L14.7983 5.62205C15.8903 6.8162 16.4958 8.37575 16.4958 9.99389C16.4958 11.612 15.8903 13.1716 14.7983 14.3657L15.2559 14.8233C16.4703 13.5061 17.1445 11.7801 17.1445 9.98855C17.1445 8.19696 16.4703 6.47097 15.2559 5.15375V5.16443ZM5.6321 5.20409C6.82624 4.11212 8.3858 3.50657 10.0039 3.50657C11.6221 3.50657 13.1816 4.11212 14.3758 5.20409L14.8334 4.74647C13.5162 3.53208 11.7902 2.85787 9.9986 2.85787C8.207 2.85787 6.48102 3.53208 5.1638 4.74647L5.6321 5.20409ZM5.20346 14.3703C4.11278 13.1764 3.50803 11.6178 3.50803 10.0008C3.50803 8.38369 4.11278 6.82508 5.20346 5.63121L4.74583 5.17358C3.53145 6.49081 2.85724 8.21679 2.85724 10.0084C2.85724 11.8 3.53145 13.526 4.74583 14.8432L5.20346 14.3703ZM14.3697 14.7928C13.1755 15.8848 11.616 16.4904 9.99783 16.4904C8.3797 16.4904 6.82014 15.8848 5.626 14.7928L5.16837 15.2505C6.4856 16.4648 8.21158 17.1391 10.0032 17.1391C11.7948 17.1391 13.5207 16.4648 14.838 15.2505L14.3697 14.7928ZM12.8885 8.47305C12.797 7.51814 11.9732 7.19781 10.9314 7.10018V5.78527H10.126V7.07577H9.48224V5.78527H8.68293V7.10933H7.04921V7.97119C7.04921 7.97119 7.64412 7.96051 7.63497 7.97119C7.74223 7.95939 7.84989 7.98969 7.93526 8.05571C8.02063 8.12172 8.07703 8.2183 8.09259 8.32509V11.9495C8.0903 11.9871 8.08048 12.0239 8.06371 12.0577C8.04694 12.0915 8.02357 12.1216 7.99497 12.1462C7.9669 12.1713 7.93406 12.1905 7.89841 12.2025C7.86275 12.2146 7.82503 12.2193 7.78751 12.2164C7.79819 12.2256 7.20175 12.2164 7.20175 12.2164L7.04921 13.179H8.66767V14.5244H9.47309V13.1988H10.1168V14.5183H10.9238V13.1881C12.2844 13.1057 13.2332 12.7701 13.3522 11.4964C13.4483 10.4713 12.9663 10.0137 12.196 9.82914C12.6643 9.59881 12.9541 9.17169 12.8885 8.47305ZM11.7597 11.3378C11.7597 12.3384 10.0451 12.224 9.49902 12.224V10.4485C10.0451 10.45 11.7597 10.2929 11.7597 11.3378ZM11.386 8.8361C11.386 9.75135 9.95512 9.63999 9.50055 9.63999V8.02611C9.95512 8.02611 11.386 7.88272 11.386 8.8361Z" fill="#F19242"/>
<path id="Vector_3" d="M15.2559 5.16443L14.7983 5.62205C15.8903 6.8162 16.4958 8.37575 16.4958 9.99389C16.4958 11.612 15.8903 13.1716 14.7983 14.3657L15.2559 14.8233C16.4703 13.5061 17.1445 11.7801 17.1445 9.98855C17.1445 8.19696 16.4703 6.47097 15.2559 5.15375V5.16443ZM5.6321 5.20409C6.82624 4.11212 8.3858 3.50657 10.0039 3.50657C11.6221 3.50657 13.1816 4.11212 14.3758 5.20409L14.8334 4.74647C13.5162 3.53208 11.7902 2.85787 9.9986 2.85787C8.207 2.85787 6.48102 3.53208 5.1638 4.74647L5.6321 5.20409ZM5.20346 14.3703C4.11278 13.1764 3.50803 11.6178 3.50803 10.0008C3.50803 8.38369 4.11278 6.82508 5.20346 5.63121L4.74583 5.17358C3.53145 6.49081 2.85724 8.21679 2.85724 10.0084C2.85724 11.8 3.53145 13.526 4.74583 14.8432L5.20346 14.3703ZM14.3697 14.7928C13.1755 15.8848 11.616 16.4904 9.99783 16.4904C8.3797 16.4904 6.82014 15.8848 5.626 14.7928L5.16837 15.2505C6.4856 16.4648 8.21158 17.1391 10.0032 17.1391C11.7948 17.1391 13.5207 16.4648 14.838 15.2505L14.3697 14.7928Z" fill="#595564"/>
<path id="Vector_4" d="M9.99825 18.3333C5.39608 18.3326 1.66644 14.6014 1.66644 9.99924C1.66644 5.39783 5.3976 1.66666 9.99901 1.66666C14.6012 1.66666 18.3323 5.3963 18.3331 9.99847C18.3333 11.0931 18.1179 12.177 17.6991 13.1883C17.2803 14.1996 16.6663 15.1186 15.8923 15.8926C15.1183 16.6666 14.1994 17.2805 13.1881 17.6993C12.1768 18.1181 11.0929 18.3335 9.99825 18.3333ZM9.99825 2.31649C5.75836 2.31954 2.3239 5.75859 2.32542 9.99847C2.32695 14.2384 5.76523 17.6744 10.0044 17.6744C14.2442 17.6744 17.6818 14.2384 17.6833 9.99847C17.6837 8.98929 17.4852 7.98993 17.0991 7.05753C16.7129 6.12512 16.1468 5.27797 15.4331 4.56452C14.7194 3.85106 13.872 3.28529 12.9394 2.89955C12.0069 2.51382 11.0074 2.31569 9.99825 2.31649Z" fill="#292138"/>
</g>
</svg>
