<svg width="19" height="18" viewBox="0 0 19 18" fill="none" xmlns="http://www.w3.org/2000/svg">
<g id="Frame">
<g id="Group">
<path id="Vector" d="M10.0144 13.6665C10.3159 13.725 10.6204 13.7557 10.9279 13.7587C11.7014 13.7591 12.4662 13.5955 13.1719 13.2787L15.4931 13.62C15.6017 13.6208 15.7092 13.5987 15.8086 13.5551C15.9081 13.5115 15.9972 13.4475 16.0702 13.3672C16.1433 13.2869 16.1985 13.1921 16.2325 13.089C16.2664 12.9858 16.2782 12.8767 16.2671 12.7687L15.9881 10.4242C16.287 9.73821 16.44 8.99754 16.4374 8.24925C16.4354 7.5291 16.2915 6.81642 16.0138 6.15196C15.7361 5.4875 15.3302 4.88432 14.8191 4.37691C14.3081 3.86951 13.7021 3.46784 13.0356 3.1949C12.3692 2.92195 11.6555 2.78309 10.9354 2.78625C9.69813 2.78608 8.49735 3.20528 7.52901 3.97543C6.56067 4.74558 5.88196 5.8212 5.60364 7.02675" stroke="black" stroke-width="1.5" stroke-linecap="round" stroke-linejoin="round"/>
<path id="Vector_2" d="M10.9279 11.0588C10.9228 12.0056 10.6012 12.9234 10.0144 13.6665C9.61757 14.1528 9.1169 14.5442 8.54914 14.8119C7.98138 15.0797 7.3609 15.2169 6.73319 15.2138C6.14116 15.2103 5.55631 15.0838 5.01569 14.8425L3.28244 15.1523C3.19536 15.1619 3.10722 15.1511 3.025 15.1209C2.94277 15.0906 2.8687 15.0417 2.80863 14.9779C2.74856 14.9141 2.70413 14.8372 2.67885 14.7534C2.65356 14.6695 2.64812 14.5809 2.66294 14.4945L2.90294 12.7223C2.67521 12.1971 2.55925 11.6304 2.56244 11.058C2.56139 10.1467 2.85785 9.25991 3.40676 8.53244C3.95568 7.80497 4.72706 7.27656 5.60369 7.0275C5.97282 6.91736 6.35624 6.86251 6.74144 6.86475C7.85271 6.86634 8.91789 7.30906 9.7029 8.09562C10.4879 8.88218 10.9285 9.94823 10.9279 11.0595" stroke="black" stroke-width="1.5" stroke-linecap="round" stroke-linejoin="round"/>
</g>
</g>
</svg>
