<svg width="17" height="17" viewBox="0 0 17 17" fill="none" xmlns="http://www.w3.org/2000/svg">
<path id="Vector" d="M6.34072 1.22385C6.88144 -0.35853 9.06784 -0.406454 9.70894 1.08008L9.76319 1.22476L10.4929 3.35871C10.6601 3.8481 10.9304 4.29594 11.2854 4.67202C11.6404 5.0481 12.0719 5.34366 12.5509 5.53878L12.7471 5.61202L14.8811 6.34082C16.4634 6.88155 16.5114 9.06795 15.0257 9.70904L14.8811 9.76329L12.7471 10.493C12.2575 10.6601 11.8095 10.9303 11.4333 11.2853C11.0571 11.6403 10.7614 12.0719 10.5661 12.551L10.4929 12.7463L9.76409 14.8812C9.22337 16.4636 7.03697 16.5115 6.39678 15.0258L6.34072 14.8812L5.61192 12.7472C5.4448 12.2577 5.17462 11.8096 4.81959 11.4334C4.46457 11.0572 4.03297 10.7615 3.55392 10.5662L3.35861 10.493L1.22465 9.7642C-0.358633 9.22347 -0.406557 7.03707 1.07998 6.39689L1.22465 6.34082L3.35861 5.61202C3.848 5.4448 4.29584 5.17456 4.67192 4.81954C5.04799 4.46452 5.34356 4.03298 5.53868 3.55402L5.61192 3.35871L6.34072 1.22385Z" fill="white"/>
</svg>
