<svg width="16" height="17" viewBox="0 0 16 17" fill="none" xmlns="http://www.w3.org/2000/svg">
<g id="Frame">
<path id="Vector" fill-rule="evenodd" clip-rule="evenodd" d="M7.99998 15.1667C11.682 15.1667 14.6666 12.182 14.6666 8.5C14.6666 4.818 11.682 1.83333 7.99998 1.83333C4.31798 1.83333 1.33331 4.818 1.33331 8.5C1.33331 12.182 4.31798 15.1667 7.99998 15.1667ZM8.49998 6.5C8.49998 6.36739 8.4473 6.24021 8.35353 6.14644C8.25976 6.05267 8.13259 6 7.99998 6C7.86737 6 7.74019 6.05267 7.64643 6.14644C7.55266 6.24021 7.49998 6.36739 7.49998 6.5V8H5.99998C5.86737 8 5.74019 8.05267 5.64643 8.14644C5.55266 8.24021 5.49998 8.36739 5.49998 8.5C5.49998 8.6326 5.55266 8.75978 5.64643 8.85355C5.74019 8.94732 5.86737 9 5.99998 9H7.49998V10.5C7.49998 10.6326 7.55266 10.7598 7.64643 10.8535C7.74019 10.9473 7.86737 11 7.99998 11C8.13259 11 8.25976 10.9473 8.35353 10.8535C8.4473 10.7598 8.49998 10.6326 8.49998 10.5V9H9.99998C10.1326 9 10.2598 8.94732 10.3535 8.85355C10.4473 8.75978 10.5 8.6326 10.5 8.5C10.5 8.36739 10.4473 8.24021 10.3535 8.14644C10.2598 8.05267 10.1326 8 9.99998 8H8.49998V6.5Z" fill="#765BFF"/>
</g>
</svg>
