<svg width="16" height="17" viewBox="0 0 16 17" fill="none" xmlns="http://www.w3.org/2000/svg">
<g id="Frame">
<g id="Group">
<path id="Vector" d="M6 9.83334C6 10.938 7.79067 11.8333 10 11.8333C12.2093 11.8333 14 10.938 14 9.83334C14 8.72867 12.2093 7.83334 10 7.83334C7.79067 7.83334 6 8.72867 6 9.83334Z" stroke="#798186" stroke-linecap="round" stroke-linejoin="round"/>
<path id="Vector_2" d="M6 9.83333V12.5C6 13.604 7.79067 14.5 10 14.5C12.2093 14.5 14 13.604 14 12.5V9.83333M2 4.5C2 5.21467 2.76267 5.87467 4 6.232C5.23733 6.58933 6.76267 6.58933 8 6.232C9.23733 5.87467 10 5.21467 10 4.5C10 3.78533 9.23733 3.12533 8 2.768C6.76267 2.41067 5.23733 2.41067 4 2.768C2.76267 3.12533 2 3.78533 2 4.5Z" stroke="#798186" stroke-linecap="round" stroke-linejoin="round"/>
<path id="Vector_3" d="M2 4.5V11.1667C2 11.7587 2.51467 12.1333 3.33333 12.5" stroke="#798186" stroke-linecap="round" stroke-linejoin="round"/>
<path id="Vector_4" d="M2 7.83334C2 8.42534 2.51467 8.8 3.33333 9.16667" stroke="#798186" stroke-linecap="round" stroke-linejoin="round"/>
</g>
</g>
</svg>
