<svg width="20" height="20" viewBox="0 0 20 20" fill="none" xmlns="http://www.w3.org/2000/svg">
<g id="Frame" clip-path="url(#clip0_2516_3304)">
<path id="Vector" d="M10 6C10.4373 6 10.8643 6.03633 11.281 6.109C11.719 5.56 12.209 4.955 12.686 4.381C11.8129 4.12881 10.9088 4.00055 10 4C4.393 4 0 8.729 0 14.766C0 15.137 0.016 15.508 0.049 15.869C0.098 16.42 0.589 16.824 1.133 16.777C1.684 16.726 2.09 16.242 2.041 15.691C2.01436 15.3834 2.00068 15.0748 2 14.766C2 9.85 5.514 6 10 6ZM17.219 7.25C16.94 8 16.645 8.764 16.385 9.424C17.4 10.894 18 12.738 18 14.766C18 15.082 17.985 15.401 17.957 15.709C17.9441 15.967 18.0315 16.22 18.2008 16.4151C18.3702 16.6102 18.6084 16.7322 18.8657 16.7557C19.1229 16.7792 19.3793 16.7024 19.5812 16.5412C19.7831 16.3801 19.9149 16.1471 19.949 15.891C19.982 15.521 20 15.143 20 14.766C20 11.812 18.947 9.176 17.219 7.25Z" fill="url(#paint0_linear_2516_3304)"/>
<path id="Vector_2" d="M8.859 16.332C7.902 15.78 7.43799 14.797 8.12699 13.6C8.81699 12.404 15.88 3.297 16.259 3.516C16.638 3.735 12.28 14.405 11.591 15.6C10.9 16.797 9.815 16.885 8.859 16.332Z" fill="#05D394"/>
<circle id="Ellipse 7580" cx="10.05" cy="14.25" r="1.25" fill="white"/>
</g>
<defs>
<linearGradient id="paint0_linear_2516_3304" x1="19" y1="17" x2="-7.02468e-07" y2="17" gradientUnits="userSpaceOnUse">
<stop stop-color="#FF3636"/>
<stop offset="0.5" stop-color="#FF7029"/>
<stop offset="1" stop-color="#73FF54"/>
</linearGradient>
<clipPath id="clip0_2516_3304">
<rect width="20" height="20" fill="white"/>
</clipPath>
</defs>
</svg>
