<svg width="18" height="18" viewBox="0 0 18 18" fill="none" xmlns="http://www.w3.org/2000/svg">
<g id="Frame">
<path id="Vector" d="M6.75001 11.25L11.25 6.74998M8.25001 4.49998L8.59726 4.09799C9.30061 3.39473 10.2545 2.99969 11.2491 2.99976C12.2438 2.99983 13.1976 3.39501 13.9009 4.09836C14.6041 4.80171 14.9992 5.75563 14.9991 6.75025C14.999 7.74487 14.6039 8.69873 13.9005 9.40199L13.5 9.74998M9.75001 13.5L9.45226 13.9005C8.7405 14.6038 7.78023 14.9982 6.77963 14.9982C5.77904 14.9982 4.81876 14.6038 4.10701 13.9005C3.75609 13.5538 3.47749 13.1409 3.28733 12.6857C3.09718 12.2305 2.99927 11.7422 2.99927 11.2489C2.99927 10.7556 3.09718 10.2672 3.28733 9.81201C3.47749 9.35683 3.75609 8.94393 4.10701 8.59723L4.50001 8.24998" stroke="#141414" stroke-width="1.5" stroke-linecap="round" stroke-linejoin="round"/>
</g>
</svg>
