<svg width="93" height="92" viewBox="0 0 93 92" fill="none" xmlns="http://www.w3.org/2000/svg">
<g id="Group 1948757529">
<g id="Group 1948757528">
<g id="Mask group">
<mask id="mask0_2516_2461" style="mask-type:alpha" maskUnits="userSpaceOnUse" x="2" y="50" width="30" height="27">
<path id="Vector 4368" d="M15.1995 75.7443C26.5244 68.3726 31.9051 54.7355 31.9051 54.7355L16.7385 50.2943C14.8167 51.2672 11.5443 54.5266 5.07376 61.0207C-3.01447 69.1383 8.07645 80.3809 15.1995 75.7443Z" fill="#E1AC7A"/>
</mask>
<g mask="url(#mask0_2516_2461)">
<path id="Vector 4376" d="M15.2001 75.7438C26.5249 68.3721 32.8639 54.9274 32.8639 54.9274L18.9281 49.9839C17.0063 50.9568 11.5449 54.5261 5.0743 61.0202C-3.01392 69.1377 8.077 80.3803 15.2001 75.7438Z" fill="#E1AC7A"/>
<path id="Vector 4382" d="M12.6085 66.9132C12.403 61.2984 7.43178 58.3067 4.97183 57.5128L-12.7479 48.7283L-14.4469 80.676L0.478927 95.9619C8.62265 91.3517 24.4213 80.7162 22.4661 75.0562C20.511 69.3962 15.0797 67.2692 12.6085 66.9132Z" fill="#AC716A"/>
</g>
</g>
<path id="Vector 4374" d="M32.7864 53.8149C32.7864 53.8149 26.5232 68.3732 15.1984 75.7449C8.07533 80.3815 -3.01559 69.1389 5.07263 61.0213C11.5432 54.5272 14.3747 49.9807 16.2966 49.0078" stroke="#1C0F1A" stroke-width="3.58394"/>
</g>
<g id="Group 1948757514">
<g id="Group 1948757513">
<path id="Vector 4369" d="M36.8583 2.1915C33.7077 3.24292 33.7952 6.13435 34.2328 7.44864L44.7344 6.57245C43.4217 4.67403 40.0088 1.14007 36.8583 2.1915Z" fill="#AB706A" stroke="#1C0F1A" stroke-width="3.58394"/>
<path id="Vector 4370" d="M67.4893 7.00905C62.5884 4.20525 56.9875 7.00906 54.7996 8.76143L63.5511 15.7708C68.802 14.4566 73.6153 10.5138 67.4893 7.00905Z" fill="#AB706A" stroke="#1C0F1A" stroke-width="3.58394"/>
<path id="Vector 4371" opacity="0.3" d="M64.4456 11.6891C65.0905 11.8284 65.7263 11.4185 65.8655 10.7736C66.0048 10.1287 65.5949 9.49294 64.95 9.35366L64.4456 11.6891ZM61.5393 12.8254C61.5393 12.8254 61.5397 12.8247 61.5404 12.8233C61.5411 12.8219 61.5421 12.8198 61.5436 12.8171C61.5465 12.8117 61.5508 12.8042 61.5566 12.7946C61.5684 12.7752 61.5854 12.7497 61.6084 12.7189C61.6547 12.6567 61.7196 12.581 61.804 12.4976C61.9737 12.33 62.2023 12.1515 62.4767 12C63.0231 11.6982 63.7002 11.5281 64.4456 11.6891L64.95 9.35366C63.5306 9.04713 62.266 9.38689 61.3216 9.9084C60.4205 10.4061 59.6829 11.1421 59.3677 11.8291L61.5393 12.8254Z" fill="#1C0F1A"/>
<g id="Group 1948757492">
<g id="Mask group_2">
<mask id="mask1_2516_2461" style="mask-type:alpha" maskUnits="userSpaceOnUse" x="7" y="6" width="84" height="86">
<path id="Union" fill-rule="evenodd" clip-rule="evenodd" d="M8.41459 38.9906C5.35157 27.162 11.9152 10.5144 34.2315 7.44776C56.2163 4.42666 68.8584 12.8853 75.0862 43.7138L75.3626 43.3732C75.3626 43.3732 82.15 49.3146 89.8026 60.4589C94.2859 66.9879 85.1024 77.3178 77.1036 72.3309C75.7603 82.2619 71.6666 85.4284 69.2376 85.4284L69.7163 87.2257C70.3582 89.6359 68.5417 91.9998 66.0475 91.9998H58.2982C55.1477 91.9998 53.4849 89.0792 53.0473 87.6189H42.1079C41.9621 89.0792 40.6202 91.9998 36.4195 91.9998H25.4801C21.1043 91.9998 21.9795 84.5522 23.2922 83.2379C19.7916 80.1713 13.4905 69.3941 16.291 50.8189V50.2649C13.094 48.0733 9.83624 44.4806 8.41459 38.9906Z" fill="#E1AC7A"/>
</mask>
<g mask="url(#mask1_2516_2461)">
<path id="Union_2" fill-rule="evenodd" clip-rule="evenodd" d="M8.41459 38.9906C5.35157 27.162 11.9152 10.5144 34.2315 7.44776C56.2163 4.42666 68.8584 12.8853 75.0862 43.7138L75.3626 43.3732C75.3626 43.3732 82.15 49.3146 89.8026 60.4589C94.2859 66.9879 85.1024 77.3178 77.1036 72.3309C75.7603 82.2619 71.6666 85.4284 69.2376 85.4284L69.7163 87.2257C70.3582 89.6359 68.5417 91.9998 66.0475 91.9998H58.2982C55.1477 91.9998 53.4849 89.0792 53.0473 87.6189H42.1079C41.9621 89.0792 40.6202 91.9998 36.4195 91.9998H25.4801C21.1043 91.9998 21.9795 84.5522 23.2922 83.2379C19.7916 80.1713 13.4905 69.3941 16.291 50.8189V50.2649C13.094 48.0733 9.83624 44.4806 8.41459 38.9906Z" fill="#E1AC7A"/>
<path id="Vector 4378" d="M27.2307 32.4217C28.981 17.7017 17.7499 15.19 11.9156 15.7741C8.99839 22.3458 4.12673 36.9787 7.97738 42.9367C12.7907 50.3844 25.0428 50.8217 27.2307 32.4217Z" fill="#B77150"/>
<g id="Group 1948757495">
<path id="Vector 4379" d="M14.9774 42.0584C14.9774 39.4298 14.9774 33.4717 14.9774 30.6679C14.9774 27.1631 16.7277 25.4108 21.9786 25.4108" stroke="#5A3030" stroke-width="3.58394" stroke-linecap="round"/>
<path id="Vector 4380" d="M13.6652 23.2204C14.3943 23.8043 15.94 25.3227 16.2899 26.7242" stroke="#5A3030" stroke-width="3.58394" stroke-linecap="round"/>
</g>
<path id="Vector 4381" d="M44.2952 24.9722L53.4843 28.477" stroke="black" stroke-width="3.58394" stroke-linecap="round"/>
<ellipse id="Ellipse 7560" opacity="0.2" cx="3.0209" cy="2.09826" rx="3.0209" ry="2.09826" transform="matrix(0.922168 0.386791 -0.38601 0.922495 48.8777 11.5967)" fill="white"/>
<path id="Vector 4383" d="M75.8044 68.3462C38.348 84.8185 6.81341 74.0414 -4.27182 66.5938L-13.0233 129.679L111.248 127.489C115.04 100.911 113.261 51.8738 75.8044 68.3462Z" fill="#C69273"/>
<rect id="Rectangle 34626767" x="19.7897" y="88.9347" width="62.1356" height="7.00952" fill="#4C3731"/>
</g>
</g>
<path id="Vector 4373" d="M69.8206 87.6193L69.2368 85.4305C71.2613 84.4083 75.0583 80.7867 75.8004 77.9829" stroke="#1C0F1A" stroke-width="3.58394"/>
<path id="Vector 4371_2" d="M76.3162 78.2273C53.6112 75.6187 22.9039 62.5758 15.6457 55.0295L16.7275 50.8205L21.5408 53.4491C29.5325 57.538 50.8662 66.68 71.9429 68.7828L75.3859 69.659H77.9879C77.9879 71.7058 78.2162 78.4456 76.3162 78.2273Z" fill="#6A3D27"/>
<path id="Vector 4376_2" d="M16.605 51.0579C24.5968 55.1468 50.7868 66.2408 71.8636 68.3437" stroke="#1D0F06" stroke-width="3.58394"/>
<path id="Vector 4373_2" d="M77.1663 71.8492C77.9255 65.7064 77.6511 57.0639 75.3639 45.124C69.2379 13.143 56.5481 4.38113 34.2318 7.4478C11.9155 10.5145 5.35187 27.1621 8.41489 38.9906C10.8653 48.4535 15.5317 50.3808 16.2913 50.8189C13.4908 69.3942 19.7919 80.1713 23.2925 83.238C21.9798 84.5522 21.1046 91.9999 25.4804 91.9999C29.8561 91.9999 31.1689 91.9999 36.4198 91.9999C40.6205 91.9999 41.9624 89.0792 42.1082 87.6189H53.0476C53.4852 89.0792 55.148 91.9999 58.2985 91.9999C60.2526 91.9999 63.5421 91.9999 66.4548 91.9999C68.7436 91.9999 70.4104 89.8306 69.8213 87.6189V87.6189L69.2375 85.4301" stroke="#1C0F1A" stroke-width="3.58394"/>
<g id="Group 1948757527">
<g id="Mask group_3">
<mask id="mask2_2516_2461" style="mask-type:alpha" maskUnits="userSpaceOnUse" x="63" y="43" width="28" height="31">
<path id="Vector 4368_2" d="M89.8058 60.459C82.1531 49.3146 75.3658 43.3733 75.3658 43.3733L63.9889 57.3923C65.0099 59.2907 68.7147 64.6647 75.3658 70.9733C83.6797 78.859 94.6191 67.4685 89.8058 60.459Z" fill="#E1AC7A"/>
</mask>
<g mask="url(#mask2_2516_2461)">
<path id="Vector 4376_3" d="M89.8058 60.459C82.1531 49.3146 75.3658 43.3733 75.3658 43.3733L63.9889 57.3923C65.0099 59.2907 68.7147 64.6647 75.3658 70.9733C83.6797 78.859 94.6191 67.4685 89.8058 60.459Z" fill="#E1AC7A"/>
<path id="Vector 4382_2" d="M81.0537 63.2814C75.4527 63.6318 72.5939 68.6845 71.8646 71.1671L63.5507 89.1286L95.4936 90.0048L110.371 74.6718C105.558 66.6401 94.531 51.1023 88.93 53.2052C83.3291 55.308 81.3454 60.7988 81.0537 63.2814Z" fill="#AC716A"/>
</g>
</g>
<path id="Vector 4374_2" d="M89.8058 60.4589L91.283 59.4445L89.8058 60.4589ZM75.3658 70.9732L76.599 69.6731L75.3658 70.9732ZM65.5671 56.5435C65.0983 55.6719 64.0117 55.3453 63.1401 55.8141C62.2685 56.2828 61.9419 57.3694 62.4107 58.2411L65.5671 56.5435ZM74.7237 44.0105C73.6825 45.4689 73.6821 45.4687 73.6818 45.4684C73.6818 45.4684 73.6815 45.4682 73.6814 45.4681C73.6811 45.4679 73.681 45.4678 73.6809 45.4678C73.6809 45.4678 73.6813 45.468 73.6821 45.4686C73.6838 45.4698 73.6872 45.4723 73.6924 45.4761C73.7028 45.4836 73.7202 45.4963 73.7444 45.5142C73.7928 45.5499 73.8683 45.6063 73.9693 45.6835C74.1712 45.838 74.4746 46.0755 74.8656 46.3972C75.6478 47.0407 76.7797 48.0203 78.1498 49.3442C80.8906 51.9926 84.5799 56.0141 88.3286 61.4733L91.283 59.4445C87.3791 53.7593 83.5273 49.5567 80.6402 46.7669C79.1963 45.3717 77.9926 44.3288 77.1426 43.6295C76.7175 43.2798 76.3808 43.0159 76.1465 42.8367C76.0293 42.7471 75.9378 42.6787 75.8736 42.6313C75.8415 42.6076 75.8163 42.5892 75.7981 42.576C75.789 42.5694 75.7817 42.5641 75.7761 42.5601C75.7733 42.5581 75.771 42.5564 75.7692 42.5551C75.7682 42.5544 75.7674 42.5538 75.7667 42.5533C75.7663 42.5531 75.7659 42.5527 75.7657 42.5526C75.7653 42.5523 75.7649 42.552 74.7237 44.0105ZM88.3286 61.4733C90.0241 63.9424 89.1139 67.5491 86.3377 69.9452C85.0087 71.0923 83.3932 71.7987 81.7485 71.8518C80.142 71.9037 78.3558 71.3393 76.599 69.6731L74.1326 72.2734C76.5328 74.5499 79.2317 75.5189 81.8642 75.4339C84.4586 75.3501 86.836 74.2494 88.6794 72.6583C92.248 69.5783 94.4009 63.985 91.283 59.4445L88.3286 61.4733ZM76.599 69.6731C70.0499 63.4613 66.4769 58.2351 65.5671 56.5435L62.4107 58.2411C63.5429 60.3463 67.3795 65.868 74.1326 72.2734L76.599 69.6731Z" fill="#1C0F1A"/>
</g>
<path id="Vector 4375" d="M15.5416 55.5443C19.8223 61.227 64.6739 79.3008 75.9335 78.1828C78.1814 77.9596 77.4222 72.7793 77.4222 72.7793" stroke="#1D0F06" stroke-width="3.58394"/>
</g>
<g id="Group 1948757510">
<path id="Rectangle 34626779" d="M36.0764 60.0825C36.0764 58.8794 37.2597 58.0341 38.3961 58.4254L44.0272 60.3649C44.7338 60.6082 45.2081 61.2738 45.2081 62.0219V69.0408C45.2081 70.2906 43.9389 71.1386 42.7862 70.6591L37.1551 68.3164C36.502 68.0447 36.0764 67.4062 36.0764 66.6981V60.0825Z" fill="#6A3D27"/>
<path id="Rectangle 34626779 (Stroke)" fill-rule="evenodd" clip-rule="evenodd" d="M34.7645 60.0827C34.7645 57.9772 36.8352 56.4979 38.8239 57.1828L44.455 59.1223C45.6915 59.5481 46.5217 60.7129 46.5217 62.0221V69.041C46.5217 71.228 44.3005 72.7121 42.2833 71.8729L36.6522 69.5302C35.5093 69.0547 34.7645 67.9374 34.7645 66.6983V60.0827ZM37.9699 59.6684C37.6858 59.5706 37.3899 59.7819 37.3899 60.0827V66.6983C37.3899 66.8753 37.4963 67.0349 37.6596 67.1029L43.2907 69.4456C43.5789 69.5655 43.8962 69.3534 43.8962 69.041V62.0221C43.8962 61.8351 43.7776 61.6687 43.601 61.6079L37.9699 59.6684Z" fill="#E8A635" stroke="#1C0F1A" stroke-width="1.67251"/>
<path id="Rectangle 34626780 (Stroke)" fill-rule="evenodd" clip-rule="evenodd" d="M32.9991 61.4297C33.2828 60.7617 34.0536 60.4504 34.7208 60.7344L40.4033 63.1532C41.0705 63.4372 41.3814 64.209 41.0978 64.877C40.8141 65.545 40.0433 65.8563 39.3761 65.5723L33.6936 63.1535C33.0264 62.8695 32.7155 62.0977 32.9991 61.4297Z" fill="#E8A635" stroke="#1C0F1A" stroke-width="1.67251"/>
</g>
</g>
</g>
</g>
</svg>
