<svg width="18" height="18" viewBox="0 0 18 18" fill="none" xmlns="http://www.w3.org/2000/svg">
<g id="usdc 1" clip-path="url(#clip0_2516_3629)">
<path id="Vector" d="M8.96719 0.666506C4.32852 0.666506 0.567186 4.42784 0.567186 9.06651C0.567186 13.7052 4.32852 17.4665 8.96719 17.4665C13.6059 17.4665 17.3672 13.7052 17.3672 9.06651C17.3672 4.42784 13.6059 0.666506 8.96719 0.666506Z" fill="#1296DB"/>
<path id="Vector_2" d="M6.66327 7.73076C6.66327 8.95742 7.40994 9.37076 8.8526 9.56809C9.9166 9.72276 10.1233 9.97209 10.1233 10.4694C10.1233 10.9414 9.76327 11.2761 9.06727 11.2761C8.43794 11.2761 8.0766 11.0561 7.92727 10.5508C7.89394 10.4374 7.7926 10.3574 7.67527 10.3574H7.12327C6.96994 10.3574 6.84994 10.4988 6.88194 10.6494C7.0566 11.4494 7.59527 11.9294 8.4406 12.0801V12.9161C8.4406 13.0614 8.55794 13.1788 8.70327 13.1788H9.2286C9.37394 13.1788 9.49127 13.0614 9.49127 12.9161V12.1028C10.5326 11.9548 11.2046 11.2628 11.2046 10.3734C11.2046 9.22276 10.5099 8.77742 9.04194 8.58009C8.04594 8.41742 7.76327 8.20276 7.76327 7.63609C7.76327 7.06942 8.2446 6.69209 8.92194 6.69209C9.83794 6.69209 10.1406 7.09342 10.2513 7.61209C10.2779 7.73476 10.3833 7.82542 10.5086 7.82542H11.1073C11.2579 7.82542 11.3766 7.68942 11.3499 7.54142C11.1979 6.66809 10.6366 6.02676 9.49127 5.87076V5.04142C9.49127 4.89609 9.37394 4.77876 9.2286 4.77876H8.70327C8.55794 4.77876 8.4406 4.89609 8.4406 5.04142V5.87076C7.3566 6.04276 6.66327 6.79742 6.66327 7.73076Z" fill="white"/>
<path id="Vector_3" d="M10.7656 4.04817C12.7763 4.78417 14.215 6.71751 14.215 8.98018C14.215 11.2428 12.7763 13.1748 10.7656 13.9122C10.6403 13.9575 10.5403 14.1095 10.5403 14.2428V14.7322C10.5403 14.9308 10.695 15.0428 10.8843 14.9828C13.4256 14.1695 15.2656 11.7895 15.2656 8.97884C15.2656 6.16817 13.4256 3.78817 10.8843 2.97618C10.695 2.91617 10.5403 3.02817 10.5403 3.22684V3.71618C10.5403 3.85084 10.6403 4.00151 10.7656 4.04817ZM7.04562 14.9815C7.23496 15.0415 7.38963 14.9295 7.38963 14.7308V14.2415C7.38963 14.1082 7.28963 13.9562 7.16429 13.9108C5.15363 13.1748 3.71496 11.2415 3.71496 8.97884C3.71496 6.71618 5.15363 4.78417 7.16429 4.04684C7.30163 3.99618 7.38963 3.86151 7.38963 3.71618V3.22684C7.38963 3.02817 7.23496 2.91617 7.04562 2.97618C4.50429 3.78817 2.66429 6.16817 2.66429 8.97884C2.66429 11.7895 4.50563 14.1695 7.04562 14.9815Z" fill="white"/>
</g>
<defs>
<clipPath id="clip0_2516_3629">
<rect width="18" height="18" fill="white" transform="matrix(-1 0 0 -1 18 18)"/>
</clipPath>
</defs>
</svg>
