<svg width="19" height="19" viewBox="0 0 19 19" fill="none" xmlns="http://www.w3.org/2000/svg">
<g id="Frame 1948757785">
<g id="Group 1948757610">
<path id="Ellipse 7570" d="M10.3362 17.9982C12.1104 17.9982 13.8342 17.76 15.14 17.0412C15.8049 16.6752 16.3742 16.1774 16.774 15.5158C17.1746 14.8529 17.3787 14.069 17.3787 13.1728C17.3787 9.56473 14.1425 6.78236 10.3362 6.78236C6.52988 6.78236 3.29367 9.56473 3.29367 13.1728C3.29367 14.069 3.49778 14.8529 3.8984 15.5158C4.29821 16.1774 4.86747 16.6752 5.53234 17.0412C6.8382 17.76 8.56201 17.9982 10.3362 17.9982Z" fill="#FFAA3A" stroke="#FF723A" stroke-width="1.565"/>
<path id="Ellipse 7571" d="M11.407 8.38407C11.8719 7.6211 11.5455 6.74817 11.1561 6.15263C10.7313 5.50298 10.0478 4.86994 9.22265 4.36712C8.32659 3.82106 7.34779 3.641 6.57928 3.62965C6.19363 3.62395 5.83857 3.66027 5.54984 3.72635C5.40718 3.759 5.26102 3.80336 5.12823 3.86448C5.03059 3.90941 4.79935 4.02424 4.65131 4.26718C4.50326 4.51012 4.50721 4.76827 4.51203 4.87564C4.51858 5.02167 4.54616 5.1719 4.58254 5.31367C4.65616 5.60056 4.78664 5.93277 4.96849 6.27291C5.33086 6.95071 5.93957 7.73807 6.83564 8.28413C7.66074 8.78695 8.5367 9.10426 9.30878 9.18398C10.0166 9.25706 10.942 9.14704 11.407 8.38407Z" fill="#9CC378" stroke="#406851" stroke-width="1.565"/>
<path id="Ellipse 7572" d="M9.0882 8.71845C9.71999 9.35024 10.6453 9.23887 11.3159 9.00092C12.0474 8.74136 12.8238 8.2264 13.507 7.54316C14.249 6.80116 14.6548 5.89245 14.8471 5.1483C14.9436 4.77487 14.9921 4.42126 14.996 4.1251C14.9979 3.97875 14.9892 3.82625 14.9612 3.68279C14.9405 3.57732 14.8835 3.32552 14.6823 3.12435C14.4811 2.92318 14.2293 2.86613 14.1239 2.84549C13.9804 2.81742 13.8279 2.80878 13.6816 2.8107C13.3854 2.81458 13.0318 2.86303 12.6584 2.95952C11.9142 3.15181 11.0055 3.55765 10.2635 4.29964C9.58026 4.98288 9.0653 5.75928 8.80573 6.49078C8.56778 7.16137 8.45642 8.08667 9.0882 8.71845Z" fill="#9CC378" stroke="#406851" stroke-width="1.565"/>
</g>
</g>
</svg>
