<svg width="20" height="20" viewBox="0 0 20 20" fill="none" xmlns="http://www.w3.org/2000/svg">
<g id="&#229;&#184;&#129;&#231;&#167;&#141;" opacity="0.4">
<path id="Bitcoin (BTC)" d="M18.0841 12.0159C16.9711 16.4802 12.4494 19.1971 7.98457 18.0838C3.52159 16.9709 0.804685 12.4489 1.91815 7.98498C3.03064 3.52016 7.55228 0.803049 12.0158 1.91603C16.4803 3.029 19.197 7.55142 18.0839 12.016L18.084 12.0159H18.0841Z" fill="#F7931A"/>
<path id="Bitcoin (BTC)_2" fill-rule="evenodd" clip-rule="evenodd" d="M13.6755 8.81273C13.8414 7.70374 12.9971 7.10762 11.8426 6.70995L12.2171 5.20773L11.3027 4.97987L10.9381 6.44254C10.6977 6.38258 10.4508 6.32609 10.2054 6.27008L10.5727 4.79776L9.65879 4.5699L9.28405 6.07163C9.08511 6.02633 8.88971 5.98157 8.70015 5.9344L8.7012 5.92968L7.44016 5.61477L7.19691 6.59146C7.19691 6.59146 7.87535 6.74698 7.86105 6.75655C8.23135 6.84897 8.29832 7.0941 8.2872 7.28839L7.86057 8.99977C7.88606 9.00625 7.91914 9.01562 7.95564 9.03028L7.92912 9.02366C7.90654 9.01801 7.88307 9.01214 7.85898 9.00637L7.26098 11.4038C7.21573 11.5163 7.10086 11.6851 6.84197 11.621C6.85113 11.6343 6.17733 11.4551 6.17733 11.4551L5.72333 12.5019L6.91333 12.7985C7.04365 12.8312 7.17244 12.8648 7.29992 12.898L7.30007 12.8981C7.38909 12.9213 7.47747 12.9443 7.5653 12.9668L7.18689 14.4862L8.10028 14.7141L8.47502 13.2107C8.72454 13.2785 8.9667 13.341 9.20376 13.3999L8.83029 14.8961L9.74477 15.124L10.1231 13.6074C11.6825 13.9025 12.8549 13.7835 13.3485 12.3731C13.7461 11.2375 13.3287 10.5826 12.5083 10.1554C13.1058 10.0176 13.5559 9.62465 13.6759 8.81285L13.6756 8.81265L13.6755 8.81273ZM11.5862 11.7425C11.327 12.7843 9.69623 12.3536 8.95011 12.1565C8.88299 12.1388 8.82303 12.1229 8.77187 12.1102L9.27402 10.0972C9.33636 10.1128 9.41254 10.1299 9.49883 10.1493L9.49888 10.1493C10.2706 10.3225 11.8519 10.6773 11.5863 11.7425H11.5862ZM9.65376 9.21499C10.2758 9.381 11.6328 9.74315 11.8691 8.79627H11.8692C12.1105 7.82784 10.7918 7.53586 10.1477 7.39326C10.0752 7.37722 10.0113 7.36307 9.9591 7.35006L9.50383 9.17573C9.54682 9.18645 9.59726 9.19991 9.65376 9.21499Z" fill="white"/>
</g>
</svg>
