<svg width="22" height="22" viewBox="0 0 22 22" fill="none" xmlns="http://www.w3.org/2000/svg">
<g id="Frame" clip-path="url(#clip0_2516_2905)">
<path id="Subtract" fill-rule="evenodd" clip-rule="evenodd" d="M21 18C20.4477 18 20 17.5523 20 17C20.03 16.7593 20.0159 15.9753 20.0063 15.4421C20.0029 15.2496 20 15.0898 20 15C20 10.5817 16.4183 7 12 7C9.7572 7 7.72998 7.92291 6.27738 9.40967L3.91464 9.11433C5.7331 6.62052 8.6773 5 12 5C17.5228 5 22 9.47715 22 15C22 15.0617 22.0011 15.1949 22.0025 15.3652C22.0069 15.9026 22.0144 16.8091 22 17C22 17.5523 21.5523 18 21 18ZM2.11317 13.4905C2.03863 13.9828 1.99999 14.4869 1.99999 15C1.99999 15.0617 1.99889 15.1948 1.99749 15.3651C1.99307 15.9025 1.98561 16.8091 1.99999 17C1.99999 17.5523 2.4477 18 2.99999 18C3.55227 18 3.99999 17.5523 3.99999 17C3.96997 16.7593 3.98407 15.9753 3.99365 15.4421C3.99711 15.2496 3.99999 15.0898 3.99999 15L2.11317 13.4905Z" fill="url(#paint0_linear_2516_2905)"/>
<path id="Vector" d="M14.5702 16.4133C14.1287 17.426 13.2038 17.9971 11.9373 17.4464C10.6715 16.8946 0.831282 10.8952 1.00649 10.4941C1.1817 10.093 12.2724 13.2294 13.537 13.7804C14.8038 14.3331 15.0127 15.4014 14.5702 16.4133Z" fill="#05D394"/>
<circle id="Ellipse 7580" cx="12.05" cy="15.25" r="1.25" fill="white"/>
</g>
<defs>
<linearGradient id="paint0_linear_2516_2905" x1="21.0076" y1="18.223" x2="1.99158" y2="18.223" gradientUnits="userSpaceOnUse">
<stop stop-color="#FF3636"/>
<stop offset="0.5" stop-color="#FF7029"/>
<stop offset="1" stop-color="#73FF54"/>
</linearGradient>
<clipPath id="clip0_2516_2905">
<rect width="22" height="22" fill="white"/>
</clipPath>
</defs>
</svg>
