<svg width="111" height="49" viewBox="0 0 111 49" fill="none" xmlns="http://www.w3.org/2000/svg">
<path d="M7.36328 11.4455L7.36328 43.1686C7.36328 45.3778 9.15415 47.1686 11.3633 47.1686H24.7627C26.9719 47.1686 28.7627 45.3778 28.7627 43.1686L28.7627 11.4455C28.7627 10.2251 28.2056 9.07144 27.2497 8.31265L20.55 2.99424C19.0935 1.83809 17.0325 1.83809 15.576 2.99424L8.87631 8.31265C7.92044 9.07144 7.36328 10.2251 7.36328 11.4455Z" fill="#7E503D" stroke="#1C0F1A" stroke-width="3" stroke-linejoin="round"/>
<path d="M15.576 2.99424L7.36328 9.51373C7.36328 9.51373 13.4973 12.7165 18.063 12.7165C22.6287 12.7165 28.7627 9.51373 28.7627 9.51373L20.55 2.99424C19.0935 1.83809 17.0325 1.83809 15.576 2.99424Z" fill="#A27461"/>
<path d="M28.7632 9.51373L18.0635 1.02002L22.9924 11.8482C26.1087 10.8997 28.7632 9.51373 28.7632 9.51373Z" fill="#8D6352"/>
<path d="M7.36328 11.4455L7.36328 43.1686C7.36328 45.3778 9.15415 47.1686 11.3633 47.1686H24.7627C26.9719 47.1686 28.7627 45.3778 28.7627 43.1686L28.7627 11.4455C28.7627 10.2251 28.2056 9.07144 27.2497 8.31265L20.55 2.99424C19.0935 1.83809 17.0325 1.83809 15.576 2.99424L8.87631 8.31265C7.92044 9.07144 7.36328 10.2251 7.36328 11.4455Z" stroke="#1C0F1A" stroke-width="3" stroke-linejoin="round"/>
<path d="M44.7969 11.4455V43.1686C44.7969 45.3778 46.5877 47.1686 48.7969 47.1686H62.1963C64.4054 47.1686 66.1963 45.3778 66.1963 43.1686V11.4455C66.1963 10.2251 65.6391 9.07144 64.6833 8.31265L57.9836 2.99424C56.5271 1.83809 54.4661 1.83809 53.0096 2.99424L46.3099 8.31265C45.354 9.07144 44.7969 10.2251 44.7969 11.4455Z" fill="#7E503D" stroke="#1C0F1A" stroke-width="3" stroke-linejoin="round"/>
<path d="M53.0096 2.99424L44.7969 9.51373C44.7969 9.51373 50.9309 12.7165 55.4966 12.7165C60.0623 12.7165 66.1963 9.51373 66.1963 9.51373L57.9836 2.99424C56.5271 1.83809 54.4661 1.83809 53.0096 2.99424Z" fill="#A27461"/>
<path d="M66.1968 9.51373L55.4971 1.02002L60.426 11.8482C63.5423 10.8997 66.1968 9.51373 66.1968 9.51373Z" fill="#8D6352"/>
<path d="M44.7969 11.4455V43.1686C44.7969 45.3778 46.5877 47.1686 48.7969 47.1686H62.1963C64.4054 47.1686 66.1963 45.3778 66.1963 43.1686V11.4455C66.1963 10.2251 65.6391 9.07144 64.6833 8.31265L57.9836 2.99424C56.5271 1.83809 54.4661 1.83809 53.0096 2.99424L46.3099 8.31265C45.354 9.07144 44.7969 10.2251 44.7969 11.4455Z" stroke="#1C0F1A" stroke-width="3" stroke-linejoin="round"/>
<path d="M82.2324 11.4455V43.1686C82.2324 45.3778 84.0233 47.1686 86.2324 47.1686H99.6319C101.841 47.1686 103.632 45.3778 103.632 43.1686V11.4455C103.632 10.2251 103.075 9.07144 102.119 8.31265L95.4191 2.99424C93.9627 1.83809 91.9016 1.83809 90.4452 2.99424L83.7455 8.31265C82.7896 9.07144 82.2324 10.2251 82.2324 11.4455Z" fill="#7E503D" stroke="#1C0F1A" stroke-width="3" stroke-linejoin="round"/>
<path d="M90.4452 2.99424L82.2324 9.51373C82.2324 9.51373 88.3665 12.7165 92.9321 12.7165C97.4978 12.7165 103.632 9.51373 103.632 9.51373L95.4191 2.99424C93.9627 1.83809 91.9016 1.83809 90.4452 2.99424Z" fill="#A27461"/>
<path d="M103.632 9.51373L92.9326 1.02002L97.8616 11.8482C100.978 10.8997 103.632 9.51373 103.632 9.51373Z" fill="#8D6352"/>
<path d="M82.2324 11.4455V43.1686C82.2324 45.3778 84.0233 47.1686 86.2324 47.1686H99.6319C101.841 47.1686 103.632 45.3778 103.632 43.1686V11.4455C103.632 10.2251 103.075 9.07144 102.119 8.31265L95.4191 2.99424C93.9627 1.83809 91.9016 1.83809 90.4452 2.99424L83.7455 8.31265C82.7896 9.07144 82.2324 10.2251 82.2324 11.4455Z" stroke="#1C0F1A" stroke-width="3" stroke-linejoin="round"/>
<rect x="1.96191" y="18.0195" width="107.07" height="16.8195" rx="4" fill="#7E503D" stroke="#1C0F1A" stroke-width="3" stroke-linejoin="round"/>
<path d="M1.96191 19.188C1.96191 18.5427 2.48506 18.0195 3.13039 18.0195H107.864C108.509 18.0195 109.032 18.5427 109.032 19.188C109.032 19.8333 108.509 20.3565 107.864 20.3565H3.13039C2.48506 20.3565 1.96191 19.8333 1.96191 19.188Z" fill="#A27461"/>
<rect x="1.96191" y="18.0195" width="107.07" height="16.8195" rx="4" stroke="#1C0F1A" stroke-width="3" stroke-linejoin="round"/>
<circle cx="18.0626" cy="26.4298" r="4.04602" fill="#D9D9D9"/>
<circle cx="55.4982" cy="26.4293" r="4.04602" fill="#D9D9D9"/>
<circle cx="92.9318" cy="26.4298" r="4.04602" fill="#D9D9D9"/>
</svg>
