<svg width="12" height="13" viewBox="0 0 12 13" fill="none" xmlns="http://www.w3.org/2000/svg">
<path d="M8.94279 3.93472L1.87172 11.0058C1.7413 11.1362 1.7413 11.3468 1.87172 11.4772C2.00214 11.6076 2.2127 11.6076 2.34312 11.4772L9.41419 4.40612C9.54461 4.2757 9.54461 4.06514 9.41419 3.93472C9.28377 3.80429 9.07321 3.80429 8.94279 3.93472Z" fill="#AAB8C1"/>
<path d="M8.94426 3.93988C8.88376 4.00037 8.84605 4.08523 8.84683 4.17715L8.86805 7.86903C8.86962 8.05288 9.01968 8.20137 9.20274 8.20059C9.38659 8.19902 9.53508 8.04895 9.5343 7.86589L9.51308 4.17401C9.51151 3.99016 9.36145 3.84167 9.17839 3.84245C9.08646 3.84324 9.00397 3.88017 8.94426 3.93988Z" fill="#AAB8C1"/>
<path d="M5.24342 3.95561C5.18292 4.0161 5.14521 4.10095 5.14599 4.19288C5.14756 4.37673 5.29763 4.52522 5.48069 4.52443L9.17257 4.50322C9.35642 4.50165 9.50491 4.35159 9.50413 4.16852C9.50256 3.98468 9.35249 3.83618 9.16943 3.83697L5.47755 3.85818C5.38562 3.85897 5.30313 3.89589 5.24342 3.95561Z" fill="#AAB8C1"/>
</svg>
