<svg width="24" height="24" viewBox="0 0 24 24" fill="none" xmlns="http://www.w3.org/2000/svg">
<path d="M12.0002 2.24609C9.62568 2.24604 7.32858 3.09098 5.52001 4.6297C3.71145 6.16842 2.50945 8.30051 2.12912 10.6444C1.7488 12.9883 2.21496 15.3911 3.44419 17.4227C4.67342 19.4544 6.58549 20.9823 8.83825 21.7331C9.33825 21.8211 9.52525 21.5211 9.52525 21.2581C9.52525 21.0211 9.51325 20.2331 9.51325 19.3961C7.00025 19.8581 6.35025 18.7831 6.15025 18.2211C5.92825 17.6739 5.57646 17.189 5.12525 16.8081C4.77525 16.6211 4.27525 16.1581 5.11225 16.1461C5.43215 16.1806 5.739 16.2918 6.00675 16.4703C6.2745 16.6487 6.49524 16.8891 6.65025 17.1711C6.78698 17.4168 6.97084 17.6331 7.19131 17.8075C7.41178 17.982 7.66451 18.1113 7.93503 18.1879C8.20554 18.2646 8.48852 18.2871 8.76775 18.2542C9.04698 18.2212 9.31697 18.1335 9.56225 17.9961C9.6052 17.4874 9.83201 17.0117 10.2002 16.6581C7.97524 16.4081 5.65025 15.5461 5.65025 11.7211C5.63689 10.7272 6.00353 9.76574 6.67525 9.03309C6.37016 8.16922 6.40593 7.22152 6.77525 6.38309C6.77525 6.38309 7.61225 6.12109 9.52525 7.40809C11.1616 6.95819 12.8889 6.95819 14.5252 7.40809C16.4372 6.10809 17.2752 6.38309 17.2752 6.38309C17.6446 7.22152 17.6803 8.16922 17.3752 9.03309C18.0496 9.7641 18.4167 10.7267 18.4002 11.7211C18.4002 15.5581 16.0622 16.4081 13.8382 16.6581C14.0766 16.9001 14.2602 17.1906 14.3765 17.5098C14.4927 17.829 14.5391 18.1694 14.5122 18.5081C14.5122 19.8461 14.5002 20.9211 14.5002 21.2581C14.5002 21.5211 14.6872 21.8331 15.1872 21.7331C17.4359 20.976 19.3422 19.4445 20.5661 17.4118C21.7899 15.3792 22.2516 12.9778 21.8686 10.6363C21.4857 8.29475 20.2831 6.16552 18.4755 4.62867C16.6678 3.09182 14.3729 2.24738 12.0002 2.24609Z" fill="#141414"/>
</svg>
