<svg width="30" height="27" viewBox="0 0 30 27" fill="none" xmlns="http://www.w3.org/2000/svg">
<path d="M7.81215 13.9924C10.9824 16.1936 14.4457 21.6095 14.4457 25.8479H17.6401C18.4387 17.801 13.9831 11.9422 11.4684 9.27414C8.67838 6.31407 3.85073 4.66865 2.28336 6.8669C0.825894 8.91102 4.23906 11.5116 7.81215 13.9924Z" fill="#6CA864"/>
<path d="M14.4458 25.976C14.4458 21.7375 11.7041 16.1466 7.04578 13.3923C4.17657 11.6958 1.18814 8.76576 2.28345 6.99496C3.9998 4.22013 8.67847 6.44213 11.4684 9.4022C13.9832 12.0702 18.4388 17.929 17.6402 25.976" stroke="#385A33" stroke-width="2.61654" stroke-linejoin="round"/>
<path d="M8.08638 21.1755C10.3696 22.3695 11.1179 24.6972 11.1179 26.5404H14.712C14.712 22.8314 13.3017 20.368 10.3696 18.2008C6.70455 15.4919 4.53137 19.3165 8.08638 21.1755Z" fill="#6CA864"/>
<path d="M11.1185 26.5406C11.1185 24.4191 10.6238 22.8111 8.34053 21.6172C4.78553 19.7581 6.79695 14.7311 10.462 17.44C13.394 19.6072 14.7126 22.8316 14.7126 26.5406" stroke="#385A33" stroke-width="2.61654" stroke-linejoin="round"/>
<path d="M25.3099 17.9356C21.0608 19.5505 19.2507 24.3626 19.2507 26.5406L15.7949 26.5406C15.7949 21.5477 17.3929 15.5986 22.1227 13.2081C27.8947 10.2908 30.6214 15.9171 25.3099 17.9356Z" fill="#6CA864"/>
<path d="M19.2507 26.5406C19.2507 24.3626 21.0608 19.5505 25.3099 17.9356C30.6214 15.9171 27.8947 10.2908 22.1227 13.2081C17.3929 15.5986 15.7949 21.5477 15.7949 26.5406" stroke="#385A33" stroke-width="2.61654" stroke-linejoin="round"/>
<path d="M20.8655 3.4251C13.6793 8.89633 13.8645 16.6228 15.4249 26.5408H18.7559C17.9941 16.5724 20.3995 11.4177 22.8805 9.52014C28.7626 5.02117 26.357 -0.755866 20.8655 3.4251Z" fill="#6CA864"/>
<path d="M14.7594 26.5409C14.7595 21.1194 13.0471 8.70883 20.2333 3.2376C25.7248 -0.943366 28.5393 5.29021 23.4295 9.19799C19.8475 11.9373 18.2191 19.6605 18.2191 26.5409" stroke="#385A33" stroke-width="2.61654" stroke-linejoin="round"/>
</svg>
