<svg width="100" height="100" viewBox="0 0 100 100" fill="none" xmlns="http://www.w3.org/2000/svg">
<g clip-path="url(#clip0_2279_4019)">
<circle cx="50" cy="50" r="50" fill="#121212"/>
<path d="M-12.9312 10.6219C-4.6761 6.04146 4.24591 8.11121 12.7372 10.7015C16.5836 0.779918 22.9854 -7.90613 33.4952 -11.7003C41.5678 -14.6132 50.6131 -14.1538 58.7757 -11.5041C70.731 -7.62218 81.7844 0.0968009 87.9003 11.0389C92.2092 11.4289 96.4212 12.9064 99.9829 15.3687C103.96 18.1215 107.073 22.0698 108.923 26.5358C122.107 22.0776 140.487 37.636 142.458 49.7712C142.589 50.5733 142.666 51.3634 142.692 52.1422C142.901 58.0719 140.289 63.4022 136.882 68.227C136.991 70.1209 136.812 72.0338 136.333 73.87C135.344 77.6695 133.141 81.0769 130.441 83.9294C122.651 92.1589 110.458 95.8179 99.3374 93.6295C92.1383 92.2139 85.6884 88.6395 79.6149 84.4154C75.7833 85.9824 71.5921 86.8883 67.8851 87.5546C51.7132 90.463 31.2167 87.1972 21.1528 73.7249C14.6471 73.5374 7.93258 72.5155 1.95179 70.3033C-1.67515 68.9616 -4.97626 66.7582 -7.35677 63.9619C-11.7521 62.945 -15.9971 61.2411 -19.5582 58.4989C-23.9874 55.0869 -27.2471 49.9057 -27.4801 44.3201C-27.5936 41.5607 -26.8667 38.7491 -25.4704 36.3708C-25.5852 26.2279 -22.34 15.8426 -12.9287 10.6226L-12.9312 10.6219Z" fill="#ADC5ED"/>
<path d="M-23.9888 31.1513C-22.2245 25.238 -18.7598 20.0216 -12.9314 16.7898C-4.67626 12.2094 4.24575 14.2792 12.7371 16.8695C16.5834 6.94788 22.9852 -1.73817 33.495 -5.53229C41.5677 -8.44529 50.613 -7.9858 58.7755 -5.33611C70.7309 -1.45422 81.7843 6.26476 87.9001 17.2069C92.209 17.5968 96.421 19.0743 99.9827 21.5367C103.959 24.2894 107.073 28.2377 108.923 32.7038C118.961 29.3104 132.011 37.5194 138.534 46.9835C136.016 52.068 132.226 56.5078 127.266 59.1894C123.348 61.3088 118.67 62.1383 114.293 61.4715C110.633 65.6236 105.519 68.4995 100.044 69.3499C95.3588 70.0768 90.4715 69.3083 86.1947 67.294C82.5994 71.0235 77.5042 73.4534 72.3158 74.2003C67.3004 74.9211 62.2282 74.2921 57.3311 72.9149C52.6187 74.5231 47.1288 74.258 42.152 73.2013C37.7093 72.2584 33.2804 70.7296 29.7668 67.8538C28.2422 66.6045 26.9111 65.0659 25.9206 63.3651C21.0209 63.941 16.0294 63.7418 11.1934 62.7563C7.15233 61.9343 3.10462 60.5019 0.0625581 57.7199C-1.39523 56.3857 -2.58042 54.6914 -3.29813 52.848C-6.49288 52.6166 -9.60667 51.3856 -12.1194 49.4091C-16.8816 51.4765 -22.1703 52.3317 -27.3457 51.9108C-27.4146 51.4381 -27.4579 50.9616 -27.4757 50.4812C-27.5892 47.7218 -26.8622 44.9101 -25.466 42.5318C-25.5089 38.6722 -25.0666 34.7771 -23.9824 31.1476L-23.9888 31.1513ZM69.1383 49.0442C69.114 49.1924 69.0928 49.3389 69.0736 49.4885C68.8203 51.5631 69.1991 53.6913 70.0823 55.5855C71.0976 52.2768 72.7955 49.204 76.1569 47.7663C80.5087 45.9072 84.8824 47.8556 88.666 50.232C90.2178 47.9806 92.9123 46.6755 95.7693 46.404C100.233 45.9804 104.231 48.0107 107.52 50.8655C106.997 47.3989 105.442 44.0572 102.901 41.6489C100.153 39.0427 96.2138 37.6317 92.4786 38.2522C90.2041 38.629 88.0579 39.8072 86.5043 41.4902C83.5794 39.5801 79.745 39.0647 76.4497 40.2514C72.6879 41.6038 69.7957 45.1075 69.144 49.0431L69.1383 49.0442ZM53.5201 12.4847C56.2536 11.4837 59.2963 11.6354 62.128 12.3189C65.3676 13.1007 68.4676 14.5805 70.9435 16.8106C72.2622 17.998 73.6024 19.3245 74.527 20.8496C74.1219 18.9858 73.5863 17.0429 72.6853 15.4917C70.8654 12.3653 68.0076 9.78327 64.5793 8.62919C61.151 7.47511 57.1604 7.8572 54.2035 9.94101C53.7623 10.2522 53.3456 10.6027 52.9638 10.9845C52.1144 11.8332 51.4204 12.8387 50.9235 13.9281C51.7078 13.3169 52.5924 12.8257 53.5201 12.4847ZM6.93986 42.5881C7.13459 46.2012 9.05224 49.7049 11.931 51.8334C11.3709 45.9734 12.5486 39.8804 17.0489 35.7439C17.6442 35.1978 18.27 34.709 18.9206 34.2785C23.3429 31.349 28.9127 31.0545 33.9986 32.5161C34.933 30.5737 36.4103 28.8915 38.2555 27.7803C41.1191 26.0568 44.7772 25.7576 47.9074 26.9088C45.9554 25.0179 43.6877 23.4563 41.1676 22.4587C37.9561 21.1874 34.318 20.878 31.0135 21.8802C28.4088 22.6692 26.0422 24.3142 24.4706 26.5194C20.6211 26.5352 16.7776 27.5609 13.6165 29.7355C9.46025 32.5966 6.66707 37.5541 6.9417 42.5913L6.93986 42.5881Z" fill="#DEEBFF"/>
<circle cx="80.4348" cy="138.043" r="105.435" fill="#9CC378" stroke="#406851" stroke-width="3.26087"/>
<path d="M56.615 23.0375C60.1043 24.2006 60.0073 27.3991 59.5227 28.853L47.8919 27.8838C49.3457 25.7837 53.1257 21.8744 56.615 23.0375Z" fill="#AB706A" stroke="#1C0F1A" stroke-width="3.96459"/>
<path d="M22.692 28.3666C28.1198 25.265 34.323 28.3666 36.7461 30.3051L27.0536 38.0589C21.2381 36.6051 15.9072 32.2436 22.692 28.3666Z" fill="#AB706A" stroke="#1C0F1A" stroke-width="3.96459"/>
<path opacity="0.3" d="M26.0575 33.5436C25.344 33.6975 24.6409 33.2439 24.487 32.5304C24.3331 31.817 24.7867 31.1139 25.5002 30.96L26.0575 33.5436ZM29.2786 34.8011C29.2786 34.8011 29.2783 34.8003 29.2775 34.7987C29.2767 34.7972 29.2755 34.7949 29.2739 34.7919C29.2707 34.7859 29.266 34.7776 29.2595 34.767C29.2464 34.7455 29.2276 34.7174 29.2022 34.6833C29.1508 34.6145 29.079 34.5307 28.9855 34.4384C28.7975 34.253 28.5442 34.0554 28.2402 33.8877C27.6347 33.5537 26.884 33.3653 26.0575 33.5436L25.5002 30.96C27.0712 30.6211 28.4712 30.9967 29.5167 31.5734C30.5144 32.1237 31.3312 32.9377 31.6804 33.6978L29.2786 34.8011Z" fill="#1C0F1A"/>
<mask id="mask0_2279_4019" style="mask-type:alpha" maskUnits="userSpaceOnUse" x="-4" y="28" width="93" height="95">
<path fill-rule="evenodd" clip-rule="evenodd" d="M88.1114 63.7464C91.5038 50.6616 84.2344 32.2458 59.5186 28.8535C35.1696 25.5115 21.1681 34.8687 14.2707 68.9727L13.9639 68.595C13.9639 68.595 6.44675 75.1673 -2.02874 87.4953C-6.99433 94.718 3.17759 106.146 12.0367 100.628C13.5244 111.613 18.0583 115.116 20.7485 115.116L20.2187 117.103C19.5076 119.77 21.5172 122.386 24.2769 122.386H32.8641C36.3534 122.386 38.195 119.155 38.6796 117.539H50.7952C50.9568 119.155 52.443 122.386 57.0954 122.386H69.211C74.0572 122.386 73.088 114.147 71.6341 112.693C75.5111 109.301 82.4897 97.379 79.3881 76.831V76.2182C82.9288 73.7938 86.5369 69.8195 88.1114 63.7464Z" fill="#E1AC7A"/>
</mask>
<g mask="url(#mask0_2279_4019)">
<path fill-rule="evenodd" clip-rule="evenodd" d="M88.1114 63.7464C91.5038 50.6616 84.2344 32.2458 59.5186 28.8535C35.1696 25.5115 21.1681 34.8687 14.2707 68.9727L13.9639 68.595C13.9639 68.595 6.44675 75.1673 -2.02874 87.4953C-6.99433 94.718 3.17759 106.146 12.0367 100.628C13.5244 111.613 18.0583 115.116 20.7485 115.116L20.2187 117.103C19.5076 119.77 21.5172 122.386 24.2769 122.386H32.8641C36.3534 122.386 38.195 119.155 38.6796 117.539H50.7952C50.9568 119.155 52.443 122.386 57.0954 122.386H69.211C74.0572 122.386 73.088 114.147 71.6341 112.693C75.5111 109.301 82.4897 97.379 79.3881 76.831V76.2182C82.9288 73.7938 86.5369 69.8195 88.1114 63.7464Z" fill="#E1AC7A"/>
<path d="M67.274 56.4793C65.3355 40.196 77.7742 37.4174 84.2358 38.0636C87.4667 45.3333 92.8621 61.5202 88.5975 68.1111C83.2666 76.3498 69.6971 76.8336 67.274 56.4793Z" fill="#B77150"/>
<path d="M80.8428 67.1396C80.8428 64.2319 80.8428 57.641 80.8428 54.5394C80.8428 50.6624 78.9043 48.7239 73.0888 48.7239" stroke="#5A3030" stroke-width="3.96459" stroke-linecap="round"/>
<path d="M82.2988 46.3008C81.4913 46.9468 79.7794 48.6264 79.3918 50.1768" stroke="#5A3030" stroke-width="3.96459" stroke-linecap="round"/>
<path d="M48.374 48.2383L38.1969 52.1153" stroke="black" stroke-width="3.96459" stroke-linecap="round"/>
<ellipse opacity="0.2" cx="3.34512" cy="2.32152" rx="3.34512" ry="2.32152" transform="matrix(-0.922331 0.3864 0.3864 0.922331 43.2979 33.4431)" fill="white"/>
<path d="M13.4777 96.2193C54.9615 114.441 89.8868 102.519 102.164 94.2808L111.856 164.067L-25.7769 161.644C-29.9769 132.243 -28.0061 77.9974 13.4777 96.2193Z" fill="#C69273"/>
</g>
<path d="M12.9115 107.149C38.0577 104.263 72.0668 89.8351 80.1055 81.4873L78.9074 76.8313L73.5765 79.7391C64.7255 84.2622 41.098 94.3752 17.7549 96.7014L13.9418 97.6706H11.06C11.06 99.9348 10.8072 107.39 12.9115 107.149Z" fill="#6A3D27"/>
<path d="M79.04 77.0942C70.189 81.6174 41.1829 93.8897 17.8399 96.2159" stroke="#1D0F06" stroke-width="3.96459"/>
<path d="M11.9686 100.094C11.1278 93.2986 11.4317 83.7383 13.9648 70.5302C20.7495 35.1526 34.8037 25.4601 59.5195 28.8525C84.2354 32.2449 91.5047 50.6606 88.1124 63.7454C85.3985 74.2133 80.2303 76.3453 79.389 76.83C82.4906 97.3781 75.5121 109.3 71.6351 112.692C73.0889 114.146 74.0582 122.385 69.2119 122.385C64.3657 122.385 62.9118 122.385 57.0963 122.385C52.4439 122.385 50.9578 119.154 50.7962 117.538H38.6806C38.196 119.154 36.3544 122.385 32.8651 122.385C30.6997 122.385 27.0535 122.385 23.8262 122.385C21.2945 122.385 19.451 119.985 20.1033 117.538V117.538L20.75 115.117" stroke="#1C0F1A" stroke-width="3.96459"/>
<mask id="mask1_2279_4019" style="mask-type:alpha" maskUnits="userSpaceOnUse" x="-4" y="68" width="31" height="35">
<path d="M-2.0274 87.4929C6.44808 75.1649 13.9652 68.5925 13.9652 68.5925L26.5654 84.1005C25.4346 86.2005 21.3315 92.1453 13.9652 99.1239C4.75734 107.847 -7.35827 95.2469 -2.0274 87.4929Z" fill="#E1AC7A"/>
</mask>
<g mask="url(#mask1_2279_4019)">
<path d="M-2.0274 87.4929C6.44808 75.1649 13.9652 68.5925 13.9652 68.5925L26.5654 84.1005C25.4346 86.2005 21.3315 92.1453 13.9652 99.1239C4.75734 107.847 -7.35827 95.2469 -2.0274 87.4929Z" fill="#E1AC7A"/>
<path d="M7.66581 90.6153C13.869 91.003 17.0352 96.5923 17.8429 99.3385L27.0508 119.208L-8.32679 120.177L-24.804 103.216C-19.4732 94.3307 -7.26062 77.1427 -1.05743 79.4689C5.14576 81.7951 7.34273 87.8691 7.66581 90.6153Z" fill="#AC716A"/>
</g>
<path d="M-2.02741 87.493L-3.6609 86.37L-2.02741 87.493ZM13.9652 99.124L12.6019 97.685L13.9652 99.124ZM24.8201 83.1609C25.3391 82.1969 26.5413 81.8363 27.5052 82.3553C28.4692 82.8744 28.8298 84.0766 28.3108 85.0405L24.8201 83.1609ZM14.6764 69.2976C15.8273 70.9116 15.8277 70.9113 15.828 70.9111C15.8281 70.9111 15.8284 70.9108 15.8285 70.9107C15.8288 70.9105 15.8289 70.9104 15.829 70.9104C15.829 70.9104 15.8286 70.9107 15.8277 70.9113C15.8258 70.9126 15.822 70.9154 15.8163 70.9196C15.8048 70.9279 15.7855 70.942 15.7587 70.9617C15.7051 71.0013 15.6214 71.0637 15.5096 71.1491C15.286 71.3199 14.9499 71.5827 14.5168 71.9386C13.6505 72.6504 12.3968 73.7342 10.8794 75.1987C7.84384 78.1284 3.75788 82.5771 -0.393913 88.6161L-3.6609 86.37C0.662792 80.081 4.92872 75.432 8.12619 72.346C9.72528 70.8027 11.0584 69.649 11.9998 68.8755C12.4705 68.4887 12.8435 68.1968 13.1029 67.9986C13.2327 67.8995 13.3341 67.8238 13.4051 67.7713C13.4407 67.7451 13.4686 67.7247 13.4888 67.7101C13.4988 67.7028 13.507 67.6969 13.5131 67.6925C13.5162 67.6903 13.5187 67.6885 13.5208 67.687C13.5218 67.6863 13.5227 67.6856 13.5235 67.6851C13.5239 67.6848 13.5244 67.6844 13.5246 67.6843C13.5251 67.684 13.5255 67.6837 14.6764 69.2976ZM-0.393913 88.6161C-2.27092 91.3463 -1.26409 95.335 1.81119 97.9861C3.28329 99.2551 5.07326 100.037 6.89604 100.096C8.67676 100.153 10.656 99.5285 12.6019 97.685L15.3285 100.563C12.6705 103.081 9.68231 104.152 6.76822 104.058C3.89621 103.966 1.26398 102.749 -0.777447 100.989C-4.72922 97.5822 -7.11476 91.3938 -3.6609 86.37L-0.393913 88.6161ZM12.6019 97.685C19.8553 90.8134 23.8125 85.0321 24.8201 83.1609L28.3108 85.0405C27.0568 87.3694 22.8077 93.4775 15.3285 100.563L12.6019 97.685Z" fill="#1C0F1A"/>
<path d="M80.2227 82.0566C75.4816 88.3429 25.8074 108.336 13.3372 107.1C10.8475 106.853 11.6884 101.122 11.6884 101.122" stroke="#1D0F06" stroke-width="3.96459"/>
<path d="M57.4795 87.0763C57.4795 85.7453 56.169 84.8103 54.9104 85.2432L48.6738 87.3886C47.8913 87.6578 47.3659 88.3941 47.3659 89.2217V96.986C47.3659 98.3685 48.7716 99.3066 50.0483 98.7761L56.2848 96.1846C57.0081 95.8841 57.4795 95.1778 57.4795 94.3945V87.0763Z" fill="#6A3D27"/>
<path fill-rule="evenodd" clip-rule="evenodd" d="M58.9336 87.077C58.9336 84.7478 56.6402 83.1114 54.4377 83.8691L48.2011 86.0145C46.8316 86.4856 45.9123 87.7742 45.9123 89.2224V96.9867C45.9123 99.406 48.3723 101.048 50.6064 100.119L56.843 97.5279C58.1087 97.0019 58.9336 95.7659 58.9336 94.3952V87.077ZM55.3836 86.6187C55.6982 86.5105 56.0258 86.7442 56.0258 87.077V94.3952C56.0258 94.591 55.908 94.7676 55.7272 94.8427L49.4906 97.4343C49.1714 97.5669 48.82 97.3323 48.82 96.9867V89.2224C48.82 89.0155 48.9514 88.8314 49.147 88.7641L55.3836 86.6187Z" fill="#E8A635" stroke="#1C0F1A" stroke-width="1.85014"/>
<path fill-rule="evenodd" clip-rule="evenodd" d="M60.8896 88.567C60.5754 87.8281 59.7217 87.4838 58.9828 87.7979L52.6893 90.4736C51.9503 90.7878 51.606 91.6415 51.9201 92.3804C52.2343 93.1194 53.088 93.4637 53.827 93.1496L60.1205 90.4739C60.8594 90.1597 61.2037 89.306 60.8896 88.567Z" fill="#E8A635" stroke="#1C0F1A" stroke-width="1.85014"/>
</g>
<defs>
<clipPath id="clip0_2279_4019">
<rect width="100" height="100" rx="50" fill="white"/>
</clipPath>
</defs>
</svg>
