<svg width="68" height="70" viewBox="0 0 68 70" fill="none" xmlns="http://www.w3.org/2000/svg">
<mask id="mask0_2021_1205" style="mask-type:alpha" maskUnits="userSpaceOnUse" x="1" y="37" width="23" height="20">
<path d="M10.8741 56.1322C19.1519 50.7503 23.0849 40.7942 23.0849 40.7942L11.999 37.5518C10.5943 38.2621 8.20239 40.6418 3.47278 45.3829C-2.43924 51.3093 5.66758 59.5173 10.8741 56.1322Z" fill="#E1AC7A"/>
</mask>
<g mask="url(#mask0_2021_1205)">
<path d="M10.8745 56.1318C19.1523 50.75 23.7857 40.9343 23.7857 40.9343L13.5995 37.3252C12.1947 38.0355 8.20275 40.6414 3.47314 45.3825C-2.43888 51.3089 5.66794 59.5169 10.8745 56.1318Z" fill="#E1AC7A"/>
<path d="M8.97934 49.6848C8.82917 45.5856 5.19548 43.4015 3.3974 42.8219L-9.55472 36.4086L-10.7966 59.7327L0.113349 70.8925C6.06593 67.5267 17.6138 59.7621 16.1847 55.6299C14.7556 51.4976 10.7857 49.9447 8.97934 49.6848Z" fill="#AC716A"/>
</g>
<path d="M23.73 40.1222C23.73 40.1222 19.152 50.7508 10.8742 56.1326C5.66764 59.5177 -2.43917 51.3098 3.47285 45.3833C8.20246 40.6422 10.2721 37.3229 11.6769 36.6126" stroke="#1C0F1A" stroke-width="2.61654"/>
<path d="M26.7053 2.43326C24.4025 3.20088 24.4664 5.31184 24.7863 6.27136L32.4623 5.63168C31.5028 4.2457 29.0082 1.66564 26.7053 2.43326Z" fill="#AB706A" stroke="#1C0F1A" stroke-width="2.61654"/>
<path d="M49.0947 5.95044C45.5125 3.90345 41.4185 5.95044 39.8193 7.2298L46.2162 12.3472C50.0543 11.3877 53.5725 8.50917 49.0947 5.95044Z" fill="#AB706A" stroke="#1C0F1A" stroke-width="2.61654"/>
<path opacity="0.3" d="M46.8725 9.36726C47.3434 9.46883 47.8074 9.16946 47.909 8.6986C48.0106 8.22774 47.7112 7.76369 47.2403 7.66212L46.8725 9.36726ZM44.7467 10.1972C44.7467 10.1972 44.7469 10.1967 44.7474 10.1956C44.7479 10.1946 44.7487 10.1931 44.7498 10.1911C44.7519 10.1872 44.755 10.1817 44.7593 10.1747C44.7679 10.1605 44.7803 10.1419 44.7971 10.1194C44.831 10.074 44.8784 10.0187 44.9401 9.95784C45.0642 9.83542 45.2313 9.70506 45.432 9.59437C45.8316 9.37395 46.3271 9.2496 46.8725 9.36726L47.2403 7.66212C46.2035 7.43846 45.2796 7.68634 44.5895 8.06696C43.931 8.43016 43.392 8.96739 43.1615 9.46903L44.7467 10.1972Z" fill="#1C0F1A"/>
<mask id="mask1_2021_1205" style="mask-type:alpha" maskUnits="userSpaceOnUse" x="5" y="5" width="62" height="63">
<path fill-rule="evenodd" clip-rule="evenodd" d="M5.91593 29.2994C3.67704 20.6637 8.47466 8.50968 24.7866 6.27079C40.8563 4.06514 50.097 10.2407 54.6491 32.7484L54.8519 32.4988C54.8519 32.4988 59.8131 36.8364 65.4067 44.9726C68.6839 49.7395 61.9705 57.2815 56.1237 53.6395C55.1419 60.8904 52.1495 63.2024 50.374 63.2024L50.7237 64.5138C51.1929 66.2735 49.8666 68 48.0453 68H42.3779C40.0751 68 38.8597 65.8677 38.5398 64.8016H30.5438C30.4372 65.8677 29.4563 68 26.3858 68H18.3898C15.1914 68 15.8311 62.5627 16.7906 61.6032C14.2319 59.3643 9.62615 51.4962 11.6731 37.9349V37.5305C9.33634 35.9304 6.95508 33.3075 5.91593 29.2994Z" fill="#E1AC7A"/>
</mask>
<g mask="url(#mask1_2021_1205)">
<path fill-rule="evenodd" clip-rule="evenodd" d="M5.91593 29.2994C3.67704 20.6637 8.47466 8.50968 24.7866 6.27079C40.8563 4.06514 50.097 10.2407 54.6491 32.7484L54.8519 32.4988C54.8519 32.4988 59.8131 36.8364 65.4067 44.9726C68.6839 49.7395 61.9705 57.2815 56.1237 53.6395C55.1419 60.8904 52.1495 63.2024 50.374 63.2024L50.7237 64.5138C51.1929 66.2735 49.8666 68 48.0453 68H42.3779C40.0751 68 38.8597 65.8677 38.5398 64.8016H30.5438C30.4372 65.8677 29.4563 68 26.3858 68H18.3898C15.1914 68 15.8311 62.5627 16.7906 61.6032C14.2319 59.3643 9.62615 51.4962 11.6731 37.9349V37.5305C9.33634 35.9304 6.95508 33.3075 5.91593 29.2994Z" fill="#E1AC7A"/>
<path d="M19.6694 24.5036C20.9488 13.7569 12.7395 11.9232 8.47494 12.3496C6.34267 17.1474 2.78177 27.8305 5.59637 32.1803C9.11463 37.6176 18.0702 37.9369 19.6694 24.5036Z" fill="#B77150"/>
<path d="M10.7129 31.5392C10.7129 29.6202 10.7129 25.2703 10.7129 23.2234C10.7129 20.6646 11.9923 19.3853 15.8304 19.3853" stroke="#5A3030" stroke-width="2.61654" stroke-linecap="round"/>
<path d="M9.75391 17.7861C10.2868 18.2125 11.4166 19.321 11.6725 20.3442" stroke="#5A3030" stroke-width="2.61654" stroke-linecap="round"/>
<path d="M32.1436 19.0649L38.8602 21.6237" stroke="black" stroke-width="2.61654" stroke-linecap="round"/>
<ellipse opacity="0.2" cx="36.9354" cy="11.566" rx="2.20771" ry="1.53216" transform="rotate(22.7307 36.9354 11.566)" fill="white"/>
<path d="M55.1729 50.7311C27.7945 62.7571 4.7446 54.889 -3.35805 49.4517L-9.75488 95.5088L81.0801 93.9097C83.8521 74.506 82.5514 38.705 55.1729 50.7311Z" fill="#C69273"/>
<rect x="14.2314" y="65.7622" width="45.4175" height="5.11746" fill="#4C3731"/>
</g>
<path d="M50.8008 64.8019L50.374 63.2039C51.8538 62.4576 54.6292 59.8136 55.1716 57.7666" stroke="#1C0F1A" stroke-width="2.61654"/>
<path d="M55.5477 57.945C38.9518 56.0405 16.5065 46.5182 11.2012 41.0089L11.9919 37.936L15.5102 39.8551C21.3516 42.8403 36.9453 49.5146 52.3512 51.0498L54.8678 51.6895H56.7697C56.7697 53.1839 56.9365 58.1044 55.5477 57.945Z" fill="#6A3D27"/>
<path d="M11.9023 38.1094C17.7438 41.0946 36.8872 49.194 52.2931 50.7292" stroke="#1D0F06" stroke-width="2.61654"/>
<path d="M56.1691 53.2885C56.7241 48.8038 56.5235 42.4942 54.8517 33.7772C50.374 10.4287 41.0985 4.0319 24.7866 6.27079C8.47466 8.50968 3.67704 20.6637 5.91593 29.2994C7.70705 36.2079 11.1179 37.615 11.6731 37.9349C9.62615 51.4962 14.2319 59.3643 16.7906 61.6032C15.8311 62.5627 15.1914 68 18.3898 68C21.5882 68 22.5478 68 26.3858 68C29.4563 68 30.4372 65.8677 30.5438 64.8016H38.5398C38.8597 65.8677 40.0751 68 42.3779 68C43.8071 68 46.2135 68 48.3434 68C50.0143 68 51.231 66.4161 50.8004 64.8016V64.8016L50.3737 63.2036" stroke="#1C0F1A" stroke-width="2.61654"/>
<mask id="mask2_2021_1205" style="mask-type:alpha" maskUnits="userSpaceOnUse" x="46" y="32" width="21" height="23">
<path d="M65.4078 44.9728C59.8141 36.8366 54.853 32.499 54.853 32.499L46.5371 42.734C47.2834 44.1199 49.9914 48.0433 54.853 52.649C60.93 58.4062 68.926 50.0903 65.4078 44.9728Z" fill="#E1AC7A"/>
</mask>
<g mask="url(#mask2_2021_1205)">
<path d="M65.4078 44.9728C59.8141 36.8366 54.853 32.499 54.853 32.499L46.5371 42.734C47.2834 44.1199 49.9914 48.0433 54.853 52.649C60.93 58.4062 68.926 50.0903 65.4078 44.9728Z" fill="#E1AC7A"/>
<path d="M59.0105 47.0334C54.9165 47.2893 52.8269 50.9781 52.2938 52.7906L46.2168 65.9038L69.5652 66.5435L80.4398 55.3493C76.9216 49.4855 68.8616 38.1418 64.7676 39.6771C60.6736 41.2123 59.2237 45.221 59.0105 47.0334Z" fill="#AC716A"/>
</g>
<path d="M65.4078 44.9728L66.4858 44.2316L65.4078 44.9728ZM54.853 52.649L55.7527 51.6992L54.853 52.649ZM47.689 42.1136C47.3464 41.4775 46.553 41.2395 45.9169 41.582C45.2807 41.9246 45.0427 42.718 45.3852 43.3542L47.689 42.1136ZM54.3836 32.9642C53.6241 34.0294 53.6238 34.0292 53.6236 34.0291C53.6235 34.029 53.6233 34.0289 53.6232 34.0288C53.6231 34.0287 53.623 34.0286 53.6229 34.0286C53.6229 34.0286 53.6232 34.0288 53.6238 34.0292C53.625 34.0301 53.6275 34.0319 53.6313 34.0347C53.6389 34.0402 53.6516 34.0494 53.6693 34.0625C53.7047 34.0886 53.7599 34.1298 53.8337 34.1861C53.9813 34.2989 54.2031 34.4723 54.4889 34.7072C55.0607 35.177 55.8881 35.8922 56.8895 36.8588C58.8929 38.7923 61.5896 41.7284 64.3297 45.714L66.4858 44.2316C63.6323 40.081 60.8169 37.0128 58.7066 34.9761C57.6512 33.9575 56.7714 33.1961 56.1501 32.6856C55.8394 32.4303 55.5933 32.2377 55.4221 32.1069C55.3364 32.0414 55.2695 31.9915 55.2226 31.9569C55.1992 31.9396 55.1807 31.9261 55.1674 31.9165C55.1608 31.9117 55.1554 31.9078 55.1514 31.9049C55.1493 31.9034 55.1477 31.9022 55.1463 31.9012C55.1456 31.9007 55.145 31.9003 55.1445 31.8999C55.1442 31.8998 55.1439 31.8995 55.1438 31.8994C55.1435 31.8992 55.1432 31.899 54.3836 32.9642ZM64.3297 45.714C65.5685 47.5158 64.904 50.1483 62.8744 51.898C61.9028 52.7355 60.7215 53.2516 59.5185 53.2904C58.3432 53.3283 57.037 52.9159 55.7527 51.6992L53.9532 53.5987C55.7075 55.2606 57.6796 55.9677 59.6028 55.9056C61.4983 55.8445 63.2355 55.0412 64.5828 53.8798C67.1909 51.6314 68.7653 47.5472 66.4858 44.2316L64.3297 45.714ZM55.7527 51.6992C50.9657 47.1641 48.354 43.3486 47.689 42.1136L45.3852 43.3542C46.2128 44.8912 49.0171 48.9224 53.9532 53.5987L55.7527 51.6992Z" fill="#1C0F1A"/>
<path d="M11.126 41.3848C14.255 45.5336 47.0388 58.7287 55.2689 57.9125C56.912 57.7496 56.3571 53.9676 56.3571 53.9676" stroke="#1D0F06" stroke-width="2.61654"/>
<path d="M26.1348 44.6979C26.1348 43.8195 26.9997 43.2023 27.8303 43.4881L31.9463 44.904C32.4628 45.0817 32.8095 45.5676 32.8095 46.1138V51.2381C32.8095 52.1505 31.8818 52.7696 31.0392 52.4195L26.9232 50.7092C26.4459 50.5108 26.1348 50.0447 26.1348 49.5278V44.6979Z" fill="#6A3D27"/>
<path fill-rule="evenodd" clip-rule="evenodd" d="M25.1758 44.6982C25.1758 43.161 26.6894 42.081 28.143 42.5811L32.259 43.997C33.1628 44.3079 33.7696 45.1583 33.7696 46.1141V51.2384C33.7696 52.8351 32.146 53.9186 30.6716 53.3059L26.5556 51.5956C25.7202 51.2485 25.1758 50.4327 25.1758 49.5281V44.6982ZM27.5187 44.3958C27.3111 44.3243 27.0948 44.4786 27.0948 44.6982V49.5281C27.0948 49.6573 27.1726 49.7739 27.2919 49.8234L31.408 51.5338C31.6186 51.6213 31.8505 51.4665 31.8505 51.2384V46.1141C31.8505 45.9776 31.7638 45.8561 31.6347 45.8117L27.5187 44.3958Z" fill="#E8A635" stroke="#1C0F1A" stroke-width="1.22105"/>
<path fill-rule="evenodd" clip-rule="evenodd" d="M23.8853 45.6815C24.0927 45.1938 24.6561 44.9666 25.1438 45.1739L29.2974 46.9398C29.785 47.1472 30.0123 47.7106 29.805 48.1983C29.5976 48.686 29.0342 48.9132 28.5465 48.7059L24.3929 46.94C23.9053 46.7326 23.678 46.1692 23.8853 45.6815Z" fill="#E8A635" stroke="#1C0F1A" stroke-width="1.22105"/>
</svg>
