<svg width="20" height="20" viewBox="0 0 20 20" fill="none" xmlns="http://www.w3.org/2000/svg">
<path d="M20 10.0081C19.9993 15.5512 15.5311 20.0021 9.9693 20C4.4488 19.9979 -0.00410629 15.5209 2.84163e-06 9.97689C0.0041724 4.43864 4.47884 -0.00531292 10.0458 4.76741e-06C15.5488 0.00532245 20.0007 4.48136 20 10.0081ZM4.70363 10.0407C6.95278 11.3704 8.60012 13.2722 10.0814 15.3579C11.3176 13.0364 13.3206 11.5224 15.3636 10.0291C13.0759 8.73497 11.4861 6.79039 10.024 4.68223C8.54495 6.76742 6.97604 8.72209 4.70363 10.0407Z" fill="url(#paint0_linear_2215_504)"/>
<defs>
<linearGradient id="paint0_linear_2215_504" x1="16.5789" y1="8.71623e-07" x2="3.15158" y2="21.0587" gradientUnits="userSpaceOnUse">
<stop stop-color="#9884FF"/>
<stop offset="0.573662" stop-color="#66CDFF"/>
<stop offset="1" stop-color="#05D394"/>
</linearGradient>
</defs>
</svg>
