<svg width="17" height="17" viewBox="0 0 17 17" fill="none" xmlns="http://www.w3.org/2000/svg">
<path d="M9.07051 14.5845C10.4899 14.5845 11.8689 14.3939 12.9136 13.8189C13.4455 13.5261 13.9009 13.1279 14.2207 12.5986C14.5412 12.0682 14.7045 11.4411 14.7045 10.7241C14.7045 7.83769 12.1156 5.61179 9.07051 5.61179C6.02547 5.61179 3.4365 7.83769 3.4365 10.7241C3.4365 11.4411 3.59978 12.0682 3.92028 12.5986C4.24013 13.1279 4.69554 13.5261 5.22744 13.8189C6.27212 14.3939 7.65117 14.5845 9.07051 14.5845Z" fill="#FFAA3A" stroke="#FF723A" stroke-width="1.252"/>
<path d="M9.92676 6.89303C10.2987 6.28265 10.0376 5.58431 9.72604 5.10787C9.38622 4.58816 8.83938 4.08172 8.1793 3.67947C7.46244 3.24262 6.67941 3.09857 6.0646 3.08949C5.75607 3.08493 5.47203 3.11399 5.24105 3.16685C5.12691 3.19297 5.00999 3.22846 4.90375 3.27735C4.82565 3.3133 4.64065 3.40517 4.52222 3.59952C4.40378 3.79387 4.40694 4.00039 4.41079 4.08628C4.41604 4.20311 4.4381 4.3233 4.4672 4.43671C4.5261 4.66622 4.63049 4.93199 4.77596 5.2041C5.06586 5.74634 5.55283 6.37623 6.26968 6.81308C6.92977 7.21533 7.63053 7.46918 8.2482 7.53296C8.81443 7.59142 9.5548 7.50341 9.92676 6.89303Z" fill="#9CC378" stroke="#406851" stroke-width="1.252"/>
<path d="M8.07212 7.16083C8.57755 7.66626 9.31779 7.57716 9.85426 7.3868C10.4395 7.17915 11.0606 6.76718 11.6072 6.22059C12.2008 5.627 12.5254 4.90003 12.6793 4.30471C12.7565 4.00596 12.7952 3.72307 12.7983 3.48614C12.7999 3.36907 12.793 3.24707 12.7705 3.1323C12.754 3.04792 12.7083 2.84648 12.5474 2.68555C12.3865 2.52461 12.185 2.47897 12.1007 2.46246C11.9859 2.44 11.8639 2.43309 11.7468 2.43463C11.5099 2.43773 11.227 2.47649 10.9282 2.55368C10.3329 2.70751 9.60596 3.03218 9.01236 3.62578C8.46577 4.17237 8.0538 4.79349 7.84615 5.37869C7.65579 5.91516 7.5667 6.6554 8.07212 7.16083Z" fill="#9CC378" stroke="#406851" stroke-width="1.252"/>
</svg>
