<svg width="118" height="42" viewBox="0 0 118 42" fill="none" xmlns="http://www.w3.org/2000/svg">
<path d="M50.8477 24.1153V37.9256C50.8477 39.0011 51.7195 39.873 52.7951 39.873H58.3899C59.4654 39.873 60.3373 39.0011 60.3373 37.9256V24.1153C60.3373 23.5211 60.0661 22.9594 59.6007 22.59L56.8033 20.3694C56.0942 19.8065 55.0908 19.8065 54.3817 20.3694L51.5843 22.59C51.1189 22.9594 50.8477 23.5211 50.8477 24.1153Z" fill="#7E503D" stroke="#1C0F1A" stroke-width="1.46056" stroke-linejoin="round"/>
<path d="M54.3817 20.3694L50.8477 23.1748C50.8477 23.1748 53.5678 24.5951 55.5925 24.5951C57.6172 24.5951 60.3373 23.1748 60.3373 23.1748L56.8033 20.3694C56.0942 19.8065 55.0908 19.8065 54.3817 20.3694Z" fill="#A27461"/>
<path d="M60.3386 23.1748L55.5938 19.4082L57.7795 24.21C59.1614 23.7894 60.3386 23.1748 60.3386 23.1748Z" fill="#8D6352"/>
<path d="M50.8477 24.1153V37.9256C50.8477 39.0011 51.7195 39.873 52.7951 39.873H58.3899C59.4654 39.873 60.3373 39.0011 60.3373 37.9256V24.1153C60.3373 23.5211 60.0661 22.9594 59.6007 22.59L56.8033 20.3694C56.0942 19.8065 55.0908 19.8065 54.3817 20.3694L51.5843 22.59C51.1189 22.9594 50.8477 23.5211 50.8477 24.1153Z" stroke="#1C0F1A" stroke-width="1.46056" stroke-linejoin="round"/>
<path d="M67.4492 24.1153V37.9256C67.4492 39.0011 68.3211 39.873 69.3966 39.873H74.9915C76.067 39.873 76.9389 39.0011 76.9389 37.9256V24.1153C76.9389 23.5211 76.6676 22.9594 76.2023 22.59L73.4048 20.3694C72.6958 19.8065 71.6923 19.8065 70.9833 20.3694L68.1858 22.59C67.7205 22.9594 67.4492 23.5211 67.4492 24.1153Z" fill="#7E503D" stroke="#1C0F1A" stroke-width="1.46056" stroke-linejoin="round"/>
<path d="M70.9833 20.3694L67.4492 23.1748C67.4492 23.1748 70.1694 24.5951 72.1941 24.5951C74.2187 24.5951 76.9389 23.1748 76.9389 23.1748L73.4048 20.3694C72.6958 19.8065 71.6923 19.8065 70.9833 20.3694Z" fill="#A27461"/>
<path d="M76.9382 23.1748L72.1934 19.4082L74.3791 24.21C75.761 23.7894 76.9382 23.1748 76.9382 23.1748Z" fill="#8D6352"/>
<path d="M67.4492 24.1153V37.9256C67.4492 39.0011 68.3211 39.873 69.3966 39.873H74.9915C76.067 39.873 76.9389 39.0011 76.9389 37.9256V24.1153C76.9389 23.5211 76.6676 22.9594 76.2023 22.59L73.4048 20.3694C72.6958 19.8065 71.6923 19.8065 70.9833 20.3694L68.1858 22.59C67.7205 22.9594 67.4492 23.5211 67.4492 24.1153Z" stroke="#1C0F1A" stroke-width="1.46056" stroke-linejoin="round"/>
<path d="M84.0488 24.1153V37.9256C84.0488 39.0011 84.9207 39.873 85.9962 39.873H91.5911C92.6666 39.873 93.5385 39.0011 93.5385 37.9256V24.1153C93.5385 23.5211 93.2672 22.9594 92.8019 22.59L90.0045 20.3694C89.2954 19.8065 88.2919 19.8065 87.5829 20.3694L84.7855 22.59C84.3201 22.9594 84.0488 23.5211 84.0488 24.1153Z" fill="#7E503D" stroke="#1C0F1A" stroke-width="1.46056" stroke-linejoin="round"/>
<path d="M87.5829 20.3694L84.0488 23.1748C84.0488 23.1748 86.769 24.5951 88.7937 24.5951C90.8183 24.5951 93.5385 23.1748 93.5385 23.1748L90.0045 20.3694C89.2954 19.8065 88.2919 19.8065 87.5829 20.3694Z" fill="#A27461"/>
<path d="M93.5378 23.1748L88.793 19.4082L90.9787 24.21C92.3607 23.7894 93.5378 23.1748 93.5378 23.1748Z" fill="#8D6352"/>
<path d="M84.0488 24.1153V37.9256C84.0488 39.0011 84.9207 39.873 85.9962 39.873H91.5911C92.6666 39.873 93.5385 39.0011 93.5385 37.9256V24.1153C93.5385 23.5211 93.2672 22.9594 92.8019 22.59L90.0045 20.3694C89.2954 19.8065 88.2919 19.8065 87.5829 20.3694L84.7855 22.59C84.3201 22.9594 84.0488 23.5211 84.0488 24.1153Z" stroke="#1C0F1A" stroke-width="1.46056" stroke-linejoin="round"/>
<rect x="48.4531" y="26.9463" width="47.4809" height="7.45869" rx="1.94741" fill="#7E503D" stroke="#1C0F1A" stroke-width="1.46056" stroke-linejoin="round"/>
<path d="M48.4531 27.4645C48.4531 27.1783 48.6851 26.9463 48.9713 26.9463H95.4158C95.702 26.9463 95.934 27.1783 95.934 27.4645C95.934 27.7506 95.702 27.9826 95.4158 27.9826H48.9713C48.6851 27.9826 48.4531 27.7506 48.4531 27.4645Z" fill="#A27461"/>
<rect x="48.4531" y="26.9463" width="47.4809" height="7.45869" rx="1.94741" stroke="#1C0F1A" stroke-width="1.46056" stroke-linejoin="round"/>
<circle cx="55.5931" cy="30.6761" r="1.79423" fill="#D9D9D9"/>
<circle cx="72.1946" cy="30.6761" r="1.79423" fill="#D9D9D9"/>
<circle cx="88.7942" cy="30.6761" r="1.79423" fill="#D9D9D9"/>
<path d="M107.71 33.5317C109.116 34.5078 110.652 36.9095 110.652 38.789H112.068C112.423 35.2206 110.447 32.6225 109.332 31.4393C108.094 30.1267 105.953 29.397 105.258 30.3718C104.612 31.2783 106.126 32.4315 107.71 33.5317Z" fill="#6CA864"/>
<path d="M110.652 38.8459C110.652 36.9663 109.437 34.487 107.371 33.2656C106.099 32.5133 104.773 31.214 105.259 30.4287C106.02 29.1982 108.095 30.1835 109.332 31.4962C110.447 32.6793 112.423 35.2775 112.069 38.8459" stroke="#385A33" stroke-width="1.27387" stroke-linejoin="round"/>
<path d="M107.832 36.7182C108.844 37.2477 109.176 38.28 109.176 39.0973H110.77C110.77 37.4525 110.145 36.3601 108.844 35.3991C107.219 34.1978 106.255 35.8938 107.832 36.7182Z" fill="#6CA864"/>
<path d="M109.177 39.0975C109.177 38.1568 108.958 37.4437 107.945 36.9142C106.369 36.0899 107.261 33.8606 108.886 35.0619C110.186 36.0229 110.771 37.4528 110.771 39.0975" stroke="#385A33" stroke-width="1.27387" stroke-linejoin="round"/>
<path d="M115.469 35.2814C113.585 35.9976 112.782 38.1315 112.782 39.0974L111.25 39.0973C111.25 36.8832 111.959 34.2451 114.056 33.185C116.616 31.8913 117.825 34.3863 115.469 35.2814Z" fill="#6CA864"/>
<path d="M112.782 39.0974C112.782 38.1315 113.585 35.9976 115.469 35.2814C117.825 34.3863 116.616 31.8913 114.056 33.185C111.959 34.2451 111.25 36.8832 111.25 39.0973" stroke="#385A33" stroke-width="1.27387" stroke-linejoin="round"/>
<path d="M113.5 28.8459C110.313 31.2722 110.396 34.6985 111.087 39.0967H112.565C112.227 34.6762 113.294 32.3903 114.394 31.5488C117.002 29.5537 115.935 26.9919 113.5 28.8459Z" fill="#6CA864"/>
<path d="M110.792 39.0967C110.792 36.6925 110.033 31.189 113.219 28.7628C115.655 26.9087 116.903 29.673 114.637 31.4059C113.048 32.6207 112.326 36.0456 112.326 39.0967" stroke="#385A33" stroke-width="1.27387" stroke-linejoin="round"/>
<g clip-path="url(#clip0_2366_1923)">
<rect x="29.3672" y="36.8789" width="5.12727" height="8.2712" fill="#3C405D" stroke="#262A48" stroke-width="1.27387"/>
<path d="M26.0637 36.5275C26.1434 35.7989 26.4293 34.8746 26.5623 34.5036L29.3545 32.7832L36.5344 34.8071C36.9333 35.3469 37.5516 36.6692 36.8336 37.6407C36.1156 38.6122 35.0718 38.1804 34.6397 37.8431C34.5097 38.2836 34.4602 38.6931 32.9444 38.855C31.861 38.9708 30.7388 38.677 30.5511 38.2479C30.4253 38.4982 30.232 38.6324 29.3545 38.5514C28.4769 38.4705 28.0581 38.0455 27.9584 37.8431C27.36 38.2479 25.9639 37.4383 26.0637 36.5275Z" fill="#44889C" stroke="#295B6B" stroke-width="1.27387"/>
<path d="M38.2305 33.5933C37.9114 32.6218 36.8344 30.6249 36.3358 29.7478L33.7429 29.1406L29.1557 29.1406C28.225 30.2201 26.2838 32.5206 25.9647 33.0873C25.5658 33.7957 25.2666 34.6053 26.4633 35.0101C27.4206 35.3339 27.5603 34.9652 27.9592 34.5041C27.9989 35.0328 27.8993 35.6375 30.0533 36.1232C32.2073 36.609 32.486 35.935 32.7458 35.516L32.7497 35.522C33.0383 35.9662 33.3182 36.3971 34.2416 36.3256C35.4348 36.2333 35.8351 35.9487 35.9369 35.516C37.2333 36.022 38.6294 34.8077 38.2305 33.5933Z" fill="#53BAA6"/>
<path fill-rule="evenodd" clip-rule="evenodd" d="M36.3358 29.7478C36.8344 30.6249 37.9114 32.6218 38.2305 33.5933C38.6294 34.8077 37.2333 36.022 35.9369 35.516C35.8351 35.9487 35.4348 36.2333 34.2416 36.3256C33.3182 36.3971 33.0383 35.9662 32.7497 35.522L32.7458 35.516C32.7329 35.5369 32.7199 35.5584 32.7066 35.5804C32.4536 35.9993 32.1 36.5848 30.0533 36.1232C28.0281 35.6665 27.995 35.1047 27.9653 34.5997C27.9634 34.5676 27.9615 34.5357 27.9592 34.5041C27.9125 34.5581 27.8693 34.6108 27.828 34.6613C27.5164 35.0421 27.3085 35.296 26.4633 35.0101C25.2666 34.6053 25.5658 33.7957 25.9647 33.0873C25.9912 33.0403 26.0288 32.9813 26.0762 32.912C26.0007 33.2664 26.1519 33.5934 26.8489 33.7945C27.6348 34.0212 27.828 33.8199 28.1178 33.518C28.1562 33.4779 28.1963 33.4361 28.2398 33.3933C28.242 33.4184 28.2437 33.4437 28.2455 33.4691C28.2731 33.8695 28.3039 34.315 30.1869 34.6771C32.0898 35.0431 32.4187 34.5788 32.6539 34.2467C32.6662 34.2293 32.6783 34.2122 32.6903 34.1957L32.6939 34.2004C32.9623 34.5526 33.2226 34.8943 34.0811 34.8376C35.1905 34.7644 35.5627 34.5387 35.6574 34.1957C36.8627 34.5969 38.1608 33.634 37.7899 32.6711C37.5019 31.9235 36.5501 30.4099 36.0705 29.6857L36.3358 29.7478ZM34.4697 29.3108L33.7429 29.1406L33.6174 29.1406L34.4697 29.3108ZM29.3523 29.1406L29.1557 29.1406C28.8461 29.4997 28.4247 29.9939 27.9884 30.5144C28.4886 30.0014 28.9988 29.4902 29.3523 29.1406Z" fill="#44879D"/>
<path d="M38.2305 33.5933C37.9114 32.6218 36.8344 30.6249 36.3358 29.7478L33.7429 29.1406L29.1557 29.1406C28.225 30.2201 26.2838 32.5206 25.9647 33.0873C25.5658 33.7957 25.2666 34.6053 26.4633 35.0101C27.4206 35.3339 27.5603 34.9652 27.9592 34.5041C27.9989 35.0328 27.8993 35.6375 30.0533 36.1232C32.2073 36.609 32.486 35.935 32.7458 35.516L32.7497 35.522C33.0383 35.9662 33.3182 36.3971 34.2416 36.3256C35.4348 36.2333 35.8351 35.9487 35.9369 35.516C37.2333 36.022 38.6294 34.8077 38.2305 33.5933Z" stroke="#295B6B" stroke-width="1.27387"/>
<path d="M36.9338 28.9385C36.2357 27.5218 33.4435 23.3727 32.3466 23.2715C30.5515 23.2715 29.4547 26.8134 28.8564 28.2301C28.3442 29.4429 27.8591 30.6589 29.2552 30.9625C30.3721 31.2053 30.9505 30.9625 31.0502 30.3553C31.2497 30.9625 31.4491 30.9625 33.0446 30.9625C34.3211 30.9625 34.8396 30.6251 34.9393 30.4565C35.6374 31.2661 37.6318 30.3553 36.9338 28.9385Z" fill="#53BAA6"/>
<path fill-rule="evenodd" clip-rule="evenodd" d="M33.4168 23.9894C34.6989 25.2614 36.4087 27.8729 36.9338 28.9385C37.6318 30.3553 35.6374 31.2661 34.9393 30.4565C34.8396 30.6251 34.3211 30.9625 33.0446 30.9625C31.4491 30.9625 31.2497 30.9625 31.0502 30.3553C30.9505 30.9625 30.3721 31.2053 29.2552 30.9625C27.8591 30.6589 28.3442 29.4429 28.8564 28.2301C28.9385 28.0358 29.0299 27.8014 29.1313 27.5416C29.7688 25.9082 30.7978 23.2715 32.3466 23.2715C32.3497 23.2718 32.3528 23.2721 32.3559 23.2724C31.0735 23.3249 30.2185 25.5158 29.6864 26.8793C29.6007 27.0988 29.5234 27.2968 29.4541 27.461C29.0214 28.4857 28.6115 29.5131 29.791 29.7696C30.7347 29.9748 31.2234 29.7696 31.3077 29.2565C31.4762 29.7696 31.6446 29.7696 32.9927 29.7696C34.0711 29.7696 34.5093 29.4846 34.5935 29.342C35.1833 30.0261 36.8684 29.2565 36.2786 28.0595C35.8498 27.1892 34.4857 25.0987 33.4168 23.9894Z" fill="#44889F"/>
<path d="M36.9338 28.9385C36.2357 27.5218 33.4435 23.3727 32.3466 23.2715C30.5515 23.2715 29.4547 26.8134 28.8564 28.2301C28.3442 29.4429 27.8591 30.6589 29.2552 30.9625C30.3721 31.2053 30.9505 30.9625 31.0502 30.3553C31.2497 30.9625 31.4491 30.9625 33.0446 30.9625C34.3211 30.9625 34.8396 30.6251 34.9393 30.4565C35.6374 31.2661 37.6318 30.3553 36.9338 28.9385Z" stroke="#295B6B" stroke-width="1.27387"/>
<rect x="10.9609" y="35.2363" width="7.97772" height="8.90535" fill="#3C405D" stroke="#262A48" stroke-width="1.27387"/>
<path d="M2.48362 33.1105C3.36117 31.3295 4.11241 30.0746 4.37833 29.6698L8.56665 26.9375C14.0846 27.1736 25.3996 28.2935 26.5165 30.8842C27.9126 34.1225 27.9126 35.1345 25.5193 36.5512C24.0762 37.4055 22.9164 36.6109 21.9293 35.4381C21.9381 36.9014 20.9218 38.0177 17.6413 38.2716C13.7306 38.5742 13.2941 37.6601 12.8547 36.5512C12.5062 37.8225 11.6349 38.0733 9.46414 37.8668C7.29341 37.6603 7.30922 36.9804 7.27027 35.4381C6.57232 36.049 6.0367 36.668 4.79009 36.2885C3.79287 35.9849 1.38669 35.3369 2.48362 33.1105Z" fill="#265B7E" stroke="#0B3D5D" stroke-width="1.27387"/>
<path d="M1.88427 26.9385C3.02961 24.855 5.17508 21.845 6.07257 20.3607L8.56565 18.8428L24.4214 19.6524C25.1527 21.1028 26.9543 24.5908 28.3105 26.9385C30.0058 29.8733 29.0447 30.7299 27.2498 31.7419C25.8138 32.5515 24.3562 31.8313 23.5239 30.8852C23.484 32.2032 22.9279 32.7875 20.7317 33.0104C18.3384 33.2533 17.7472 33.0532 17.2414 31.8972C16.6762 33.4405 14.9504 33.1504 10.8592 33.0104C7.83513 32.9069 7.0709 32.0526 7.26927 30.3793C5.66365 31.9585 4.63895 31.6319 3.67926 31.1888C2.58249 30.6825 0.630536 29.2193 1.88427 26.9385Z" fill="#389688"/>
<path fill-rule="evenodd" clip-rule="evenodd" d="M4.63897 22.5689C3.69421 23.9909 2.59609 25.6436 1.88427 26.9385C0.630536 29.2193 2.58249 30.6825 3.67926 31.1888C4.63895 31.6319 5.66365 31.9585 7.26927 30.3793C7.0709 32.0526 7.83513 32.9069 10.8592 33.0104C11.3593 33.0275 11.8241 33.0469 12.2557 33.0648C15.355 33.194 16.7453 33.2519 17.2414 31.8972C17.7472 33.0532 18.3384 33.2533 20.7317 33.0104C22.9279 32.7875 23.484 32.2032 23.5239 30.8852C24.3562 31.8313 25.8138 32.5515 27.2498 31.7419C29.0447 30.7299 30.0058 29.8733 28.3105 26.9385C26.9543 24.5908 25.1527 21.1028 24.4214 19.6524L23.8807 19.6247C24.5886 20.936 26.2359 23.9165 27.4817 25.935C29.0685 28.5059 28.169 29.2564 26.4889 30.1429C25.1448 30.8521 23.7805 30.2212 23.0015 29.3924C22.9642 30.547 22.4436 31.0589 20.388 31.2541C18.1479 31.4669 17.5946 31.2916 17.1211 30.279C16.6568 31.4657 15.3554 31.415 12.4546 31.3018C12.0506 31.2861 11.6156 31.2691 11.1475 31.2541C8.31693 31.1634 7.60162 30.4151 7.78729 28.9492C6.28444 30.3327 5.32533 30.0465 4.42706 29.6584C3.4005 29.2148 1.57348 27.933 2.74697 25.935C3.41323 24.8006 4.44106 23.3527 5.32535 22.107C5.86391 21.3484 6.34923 20.6647 6.66719 20.1726L8.96491 18.8632L8.56565 18.8428L6.07257 20.3607C5.73287 20.9225 5.21436 21.7029 4.63897 22.5689Z" fill="#265B7E"/>
<path d="M1.88427 26.9385C3.02961 24.855 5.17508 21.845 6.07257 20.3607L8.56565 18.8428L24.4214 19.6524C25.1527 21.1028 26.9543 24.5908 28.3105 26.9385C30.0058 29.8733 29.0447 30.7299 27.2498 31.7419C25.8138 32.5515 24.3562 31.8313 23.5239 30.8852C23.484 32.2032 22.9279 32.7875 20.7317 33.0104C18.3384 33.2533 17.7472 33.0532 17.2414 31.8972C16.6762 33.4405 14.9504 33.1504 10.8592 33.0104C7.83513 32.9069 7.0709 32.0526 7.26927 30.3793C5.66365 31.9585 4.63895 31.6319 3.67926 31.1888C2.58249 30.6825 0.630536 29.2193 1.88427 26.9385Z" stroke="#0B3D5D" stroke-width="1.27387"/>
<path d="M4.37814 18.6401C5.47511 17.0209 7.20359 14.5585 7.96812 13.2766L11.2589 10.6455L22.6272 13.0742C23.7906 14.4235 26.2371 17.6281 26.7157 19.6521C27.3141 22.182 21.8144 23.368 19.6205 23.368C18.3204 23.368 17.5966 23.0525 17.0428 21.676C16.5028 23.1372 16.1328 23.5364 13.1536 23.3964C9.64628 23.2314 9.1506 22.4529 9.26448 21.2712C8.24329 22.357 7.46951 22.4856 6.17313 22.0808C4.87675 21.676 3.25673 20.2953 4.37814 18.6401Z" fill="#389688" stroke="#0B3D5D" stroke-width="1.27387"/>
<path fill-rule="evenodd" clip-rule="evenodd" d="M6.06649 16.278C5.75447 16.7296 5.45599 17.1615 5.19587 17.5427C4.15786 19.0635 5.65739 20.332 6.85735 20.704C8.05731 21.0759 8.77355 20.9577 9.71878 19.9601C9.61338 21.0459 10.0722 21.7612 13.3187 21.9127C16.0763 22.0414 16.4188 21.6745 16.9186 20.332C17.4312 21.5968 18.1012 21.8866 19.3046 21.8866C21.3353 21.8866 26.4259 20.7969 25.8721 18.4725C25.4947 16.8884 23.7956 14.5172 22.6347 13.0831C23.8012 14.4374 26.2381 17.6325 26.7157 19.6521C27.3141 22.182 21.8144 23.368 19.6205 23.368C18.3204 23.368 17.5966 23.0525 17.0428 21.676C16.5028 23.1372 16.1328 23.5364 13.1536 23.3964C9.64628 23.2315 9.1506 22.453 9.26448 21.2712C8.24329 22.357 7.46951 22.4856 6.17313 22.0808C4.87675 21.676 3.25673 20.2954 4.37814 18.6401C4.65916 18.2253 4.98163 17.7552 5.31872 17.2637C6.29745 15.8368 7.39944 14.2301 7.96812 13.2767L8.24574 13.0547C7.68401 13.9372 6.83427 15.1669 6.06649 16.278Z" fill="#265B7E"/>
<path d="M4.37814 18.6401C5.47511 17.0209 7.20359 14.5585 7.96812 13.2766L11.2589 10.6455L22.6272 13.0742C23.7906 14.4235 26.2371 17.6281 26.7157 19.6521C27.3141 22.182 21.8144 23.368 19.6205 23.368C18.3204 23.368 17.5966 23.0525 17.0428 21.676C16.5028 23.1372 16.1328 23.5364 13.1536 23.3964C9.64628 23.2314 9.1506 22.4529 9.26448 21.2712C8.24329 22.357 7.46951 22.4856 6.17313 22.0808C4.87675 21.676 3.25673 20.2953 4.37814 18.6401Z" stroke="#0B3D5D" stroke-width="1.27387"/>
<path d="M24.8197 12.3664C24.4208 10.4437 20.5317 1.33594 15.6453 1.33594C11.7562 1.33594 6.96955 9.43171 6.67039 11.8604C6.37123 14.2892 9.86148 15.2 11.9556 15.5035C13.6309 15.7464 13.7965 15.0909 14.1495 14.3904C14.538 15.6425 14.7443 15.9753 18.1384 15.8071C20.4425 15.693 20.6034 15.1731 20.6314 14.0868C22.3393 15.6477 25.2186 14.2892 24.8197 12.3664Z" fill="#389688" stroke="#0B3D5D" stroke-width="1.27387"/>
<path fill-rule="evenodd" clip-rule="evenodd" d="M18.4438 2.30273C21.4779 4.63928 23.6591 9.90672 23.9405 11.2633C24.3053 13.0217 21.6721 14.264 20.1102 12.8366C20.0847 13.83 19.9375 14.3055 17.8303 14.4099C14.7264 14.5637 14.5378 14.2593 14.1825 13.1142C14.1571 13.1645 14.1329 13.2145 14.1089 13.2639C13.8274 13.8439 13.588 14.3369 12.1761 14.1322C10.261 13.8546 7.06908 13.0217 7.34268 10.8006C7.47866 9.69659 8.62847 7.3123 10.1874 5.19314C8.27907 7.6312 6.83067 10.5591 6.67039 11.8604C6.37123 14.2891 9.86148 15.1999 11.9556 15.5035C13.4995 15.7273 13.7612 15.1881 14.0691 14.5539C14.0953 14.4999 14.1218 14.4453 14.1495 14.3903C14.538 15.6424 14.7443 15.9752 18.1384 15.8071C20.4425 15.6929 20.6034 15.173 20.6314 14.0867C22.3393 15.6476 25.2186 14.2891 24.8197 12.3664C24.5008 10.8291 21.9508 4.69888 18.4438 2.30273Z" fill="#389688"/>
<path fill-rule="evenodd" clip-rule="evenodd" d="M18.4438 2.30273C21.4779 4.63928 23.6591 9.90672 23.9405 11.2633C24.3053 13.0217 21.6721 14.264 20.1102 12.8366C20.0847 13.83 19.9375 14.3055 17.8303 14.4099C14.7264 14.5637 14.5378 14.2593 14.1825 13.1142C14.1571 13.1645 14.1329 13.2145 14.1089 13.2639C13.8274 13.8439 13.588 14.3369 12.1761 14.1322C10.261 13.8546 7.06908 13.0217 7.34268 10.8006C7.47866 9.69659 8.62847 7.3123 10.1874 5.19314C8.27907 7.6312 6.83067 10.5591 6.67039 11.8604C6.37123 14.2891 9.86148 15.1999 11.9556 15.5035C13.4995 15.7273 13.7612 15.1881 14.0691 14.5539C14.0953 14.4999 14.1218 14.4453 14.1495 14.3903C14.538 15.6424 14.7443 15.9752 18.1384 15.8071C20.4425 15.6929 20.6034 15.173 20.6314 14.0867C22.3393 15.6476 25.2186 14.2891 24.8197 12.3664C24.5008 10.8291 21.9508 4.69888 18.4438 2.30273Z" fill="#265B7E"/>
<path d="M24.8197 12.3664C24.4208 10.4437 20.5317 1.33594 15.6453 1.33594C11.7562 1.33594 6.96955 9.43171 6.67039 11.8604C6.37123 14.2892 9.86148 15.2 11.9556 15.5035C13.6309 15.7464 13.7965 15.0909 14.1495 14.3904C14.538 15.6425 14.7443 15.9753 18.1384 15.8071C20.4425 15.693 20.6034 15.1731 20.6314 14.0868C22.3393 15.6477 25.2186 14.2892 24.8197 12.3664Z" stroke="#0B3D5D" stroke-width="1.27387"/>
</g>
<defs>
<clipPath id="clip0_2366_1923">
<rect width="39.024" height="41.2179" fill="white" transform="translate(0 0.296875)"/>
</clipPath>
</defs>
</svg>
