<svg width="77" height="42" viewBox="0 0 77 42" fill="none" xmlns="http://www.w3.org/2000/svg">
<g clip-path="url(#clip0_2366_2505)">
<rect x="66.3672" y="36.582" width="5.12727" height="8.2712" fill="#3C405D" stroke="#262A48" stroke-width="1.27387"/>
<path d="M63.0637 36.2306C63.1434 35.502 63.4293 34.5777 63.5623 34.2067L66.3545 32.4863L73.5344 34.5103C73.9333 35.05 74.5516 36.3723 73.8336 37.3438C73.1156 38.3153 72.0718 37.8835 71.6397 37.5462C71.5097 37.9868 71.4602 38.3962 69.9444 38.5582C68.861 38.6739 67.7388 38.3801 67.5511 37.951C67.4253 38.2014 67.232 38.3355 66.3545 38.2546C65.4769 38.1736 65.0581 37.7486 64.9584 37.5462C64.36 37.951 62.9639 37.1414 63.0637 36.2306Z" fill="#44889C" stroke="#295B6B" stroke-width="1.27387"/>
<path d="M75.2305 33.2964C74.9114 32.3249 73.8344 30.328 73.3358 29.4509L70.7429 28.8437L66.1557 28.8437C65.225 29.9232 63.2838 32.2237 62.9647 32.7904C62.5658 33.4988 62.2666 34.3084 63.4633 34.7132C64.4206 35.037 64.5603 34.6684 64.9592 34.2072C64.9989 34.7359 64.8993 35.3406 67.0533 35.8264C69.2073 36.3121 69.486 35.6381 69.7458 35.2192L69.7497 35.2251C70.0383 35.6693 70.3182 36.1002 71.2416 36.0288C72.4348 35.9364 72.8351 35.6518 72.9369 35.2192C74.2333 35.7252 75.6294 34.5108 75.2305 33.2964Z" fill="#53BAA6"/>
<path fill-rule="evenodd" clip-rule="evenodd" d="M73.3358 29.4509C73.8344 30.328 74.9114 32.3249 75.2305 33.2964C75.6294 34.5108 74.2333 35.7252 72.9369 35.2192C72.8351 35.6518 72.4348 35.9364 71.2416 36.0288C70.3182 36.1002 70.0383 35.6693 69.7497 35.2251L69.7458 35.2192C69.7329 35.24 69.7199 35.2616 69.7066 35.2835C69.4536 35.7024 69.1 36.2879 67.0533 35.8264C65.0281 35.3697 64.995 34.8078 64.9653 34.3028C64.9634 34.2707 64.9615 34.2388 64.9592 34.2072C64.9125 34.2612 64.8693 34.3139 64.828 34.3644C64.5164 34.7452 64.3085 34.9991 63.4633 34.7132C62.2666 34.3084 62.5658 33.4988 62.9647 32.7904C62.9912 32.7434 63.0288 32.6844 63.0762 32.6152C63.0007 32.9695 63.1519 33.2966 63.8489 33.4976C64.6348 33.7243 64.828 33.523 65.1178 33.2211C65.1562 33.181 65.1963 33.1392 65.2398 33.0964C65.242 33.1215 65.2437 33.1468 65.2455 33.1722C65.2731 33.5726 65.3039 34.0181 67.1869 34.3803C69.0898 34.7462 69.4187 34.282 69.6539 33.9498C69.6662 33.9324 69.6783 33.9154 69.6903 33.8988L69.6939 33.9035C69.9623 34.2557 70.2226 34.5974 71.0811 34.5407C72.1905 34.4675 72.5627 34.2419 72.6574 33.8988C73.8627 34.3 75.1608 33.3371 74.7899 32.3743C74.5019 31.6266 73.5501 30.113 73.0705 29.3888L73.3358 29.4509ZM71.4697 29.014L70.7429 28.8437L70.6174 28.8437L71.4697 29.014ZM66.3523 28.8437L66.1557 28.8437C65.8461 29.2028 65.4247 29.697 64.9884 30.2175C65.4886 29.7045 65.9988 29.1934 66.3523 28.8437Z" fill="#44879D"/>
<path d="M75.2305 33.2964C74.9114 32.3249 73.8344 30.328 73.3358 29.4509L70.7429 28.8437L66.1557 28.8437C65.225 29.9232 63.2838 32.2237 62.9647 32.7904C62.5658 33.4988 62.2666 34.3084 63.4633 34.7132C64.4206 35.037 64.5603 34.6684 64.9592 34.2072C64.9989 34.7359 64.8993 35.3406 67.0533 35.8264C69.2073 36.3121 69.486 35.6381 69.7458 35.2192L69.7497 35.2251C70.0383 35.6693 70.3182 36.1002 71.2416 36.0288C72.4348 35.9364 72.8351 35.6518 72.9369 35.2192C74.2333 35.7252 75.6294 34.5108 75.2305 33.2964Z" stroke="#295B6B" stroke-width="1.27387"/>
<path d="M73.9338 28.6417C73.2357 27.2249 70.4435 23.0758 69.3466 22.9746C67.5515 22.9746 66.4547 26.5165 65.8564 27.9333C65.3442 29.146 64.8591 30.362 66.2552 30.6656C67.3721 30.9085 67.9505 30.6656 68.0502 30.0584C68.2497 30.6656 68.4491 30.6656 70.0446 30.6656C71.3211 30.6656 71.8396 30.3283 71.9393 30.1596C72.6374 30.9692 74.6318 30.0584 73.9338 28.6417Z" fill="#53BAA6"/>
<path fill-rule="evenodd" clip-rule="evenodd" d="M70.4168 23.6925C71.6989 24.9645 73.4087 27.576 73.9338 28.6417C74.6318 30.0584 72.6374 30.9692 71.9393 30.1596C71.8396 30.3283 71.3211 30.6656 70.0446 30.6656C68.4491 30.6656 68.2497 30.6656 68.0502 30.0584C67.9505 30.6656 67.3721 30.9085 66.2552 30.6656C64.8591 30.362 65.3442 29.146 65.8564 27.9333C65.9385 27.7389 66.0299 27.5045 66.1313 27.2448C66.7688 25.6113 67.7978 22.9746 69.3466 22.9746C69.3497 22.9749 69.3528 22.9752 69.3559 22.9756C68.0735 23.028 67.2185 25.2189 66.6864 26.5824C66.6007 26.8019 66.5234 26.9999 66.4541 27.1642C66.0214 28.1888 65.6115 29.2162 66.791 29.4727C67.7347 29.6779 68.2234 29.4727 68.3077 28.9597C68.4762 29.4727 68.6446 29.4727 69.9927 29.4727C71.0711 29.4727 71.5093 29.1877 71.5935 29.0452C72.1833 29.7292 73.8684 28.9597 73.2786 27.7627C72.8498 26.8924 71.4857 24.8018 70.4168 23.6925Z" fill="#44889F"/>
<path d="M73.9338 28.6417C73.2357 27.2249 70.4435 23.0758 69.3466 22.9746C67.5515 22.9746 66.4547 26.5165 65.8564 27.9333C65.3442 29.146 64.8591 30.362 66.2552 30.6656C67.3721 30.9085 67.9505 30.6656 68.0502 30.0584C68.2497 30.6656 68.4491 30.6656 70.0446 30.6656C71.3211 30.6656 71.8396 30.3283 71.9393 30.1596C72.6374 30.9692 74.6318 30.0584 73.9338 28.6417Z" stroke="#295B6B" stroke-width="1.27387"/>
<rect x="47.9609" y="34.9395" width="7.97772" height="8.90535" fill="#3C405D" stroke="#262A48" stroke-width="1.27387"/>
<path d="M39.4836 32.8137C40.3612 31.0326 41.1124 29.7777 41.3783 29.3729L45.5666 26.6406C51.0846 26.8768 62.3996 27.9967 63.5165 30.5873C64.9126 33.8256 64.9126 34.8376 62.5193 36.2544C61.0762 37.1086 59.9164 36.3141 58.9293 35.1412C58.9381 36.6045 57.9218 37.7208 54.6413 37.9747C50.7306 38.2774 50.2941 37.3632 49.8547 36.2544C49.5062 37.5257 48.6349 37.7764 46.4641 37.5699C44.2934 37.3634 44.3092 36.6835 44.2703 35.1412C43.5723 35.7521 43.0367 36.3711 41.7901 35.9916C40.7929 35.688 38.3867 35.04 39.4836 32.8137Z" fill="#265B7E" stroke="#0B3D5D" stroke-width="1.27387"/>
<path d="M38.8843 26.6417C40.0296 24.5581 42.1751 21.5481 43.0726 20.0639L45.5656 18.5459L61.4214 19.3555C62.1527 20.806 63.9543 24.2939 65.3105 26.6417C67.0058 29.5764 66.0447 30.433 64.2498 31.445C62.8138 32.2546 61.3562 31.5344 60.5239 30.5884C60.484 31.9064 59.9279 32.4906 57.7317 32.7135C55.3384 32.9564 54.7472 32.7563 54.2414 31.6003C53.6762 33.1437 51.9504 32.8535 47.8592 32.7135C44.8351 32.61 44.0709 31.7557 44.2693 30.0824C42.6636 31.6616 41.639 31.335 40.6793 30.892C39.5825 30.3856 37.6305 28.9224 38.8843 26.6417Z" fill="#389688"/>
<path fill-rule="evenodd" clip-rule="evenodd" d="M41.639 22.2721C40.6942 23.694 39.5961 25.3468 38.8843 26.6417C37.6305 28.9224 39.5825 30.3856 40.6793 30.892C41.639 31.335 42.6636 31.6616 44.2693 30.0824C44.0709 31.7557 44.8351 32.61 47.8592 32.7135C48.3593 32.7306 48.8241 32.75 49.2557 32.768C52.355 32.8971 53.7453 32.955 54.2414 31.6003C54.7472 32.7563 55.3384 32.9564 57.7317 32.7135C59.9279 32.4906 60.484 31.9064 60.5239 30.5884C61.3562 31.5344 62.8138 32.2546 64.2498 31.445C66.0447 30.433 67.0058 29.5764 65.3105 26.6417C63.9543 24.2939 62.1527 20.806 61.4214 19.3555L60.8807 19.3279C61.5886 20.6391 63.2359 23.6196 64.4817 25.6381C66.0685 28.209 65.169 28.9595 63.4889 29.846C62.1448 30.5552 60.7805 29.9243 60.0015 29.0956C59.9642 30.2502 59.4436 30.762 57.388 30.9573C55.1479 31.17 54.5946 30.9947 54.1211 29.9821C53.6568 31.1688 52.3554 31.1181 49.4546 31.005C49.0506 30.9892 48.6156 30.9723 48.1475 30.9573C45.3169 30.8666 44.6016 30.1182 44.7873 28.6523C43.2844 30.0358 42.3253 29.7497 41.4271 29.3615C40.4005 28.9179 38.5735 27.6361 39.747 25.6381C40.4132 24.5037 41.4411 23.0558 42.3254 21.8101C42.8639 21.0515 43.3492 20.3678 43.6672 19.8757L45.9649 18.5663L45.5656 18.5459L43.0726 20.0639C42.7329 20.6256 42.2144 21.406 41.639 22.2721Z" fill="#265B7E"/>
<path d="M38.8843 26.6417C40.0296 24.5581 42.1751 21.5481 43.0726 20.0639L45.5656 18.5459L61.4214 19.3555C62.1527 20.806 63.9543 24.2939 65.3105 26.6417C67.0058 29.5764 66.0447 30.433 64.2498 31.445C62.8138 32.2546 61.3562 31.5344 60.5239 30.5884C60.484 31.9064 59.9279 32.4906 57.7317 32.7135C55.3384 32.9564 54.7472 32.7563 54.2414 31.6003C53.6762 33.1437 51.9504 32.8535 47.8592 32.7135C44.8351 32.61 44.0709 31.7557 44.2693 30.0824C42.6636 31.6616 41.639 31.335 40.6793 30.892C39.5825 30.3856 37.6305 28.9224 38.8843 26.6417Z" stroke="#0B3D5D" stroke-width="1.27387"/>
<path d="M41.3781 18.3432C42.4751 16.7241 44.2036 14.2616 44.9681 12.9798L48.2589 10.3486L59.6272 12.7774C60.7906 14.1267 63.2371 17.3312 63.7157 19.3552C64.3141 21.8851 58.8144 23.0711 56.6205 23.0711C55.3204 23.0711 54.5966 22.7556 54.0428 21.3791C53.5028 22.8403 53.1328 23.2396 50.1536 23.0995C46.6463 22.9346 46.1506 22.1561 46.2645 20.9743C45.2433 22.0601 44.4695 22.1887 43.1731 21.7839C41.8768 21.3791 40.2567 19.9985 41.3781 18.3432Z" fill="#389688" stroke="#0B3D5D" stroke-width="1.27387"/>
<path fill-rule="evenodd" clip-rule="evenodd" d="M43.0665 15.9812C42.7545 16.4327 42.456 16.8647 42.1959 17.2458C41.1579 18.7666 42.6574 20.0352 43.8574 20.4071C45.0573 20.779 45.7735 20.6609 46.7188 19.6633C46.6134 20.749 47.0722 21.4643 50.3187 21.6158C53.0763 21.7445 53.4188 21.3777 53.9186 20.0352C54.4312 21.2999 55.1012 21.5898 56.3046 21.5898C58.3353 21.5898 63.4259 20.5001 62.8721 18.1756C62.4947 16.5915 60.7956 14.2204 59.6347 12.7862C60.8012 14.1406 63.2381 17.3356 63.7157 19.3552C64.3141 21.8851 58.8144 23.0711 56.6205 23.0711C55.3204 23.0711 54.5966 22.7557 54.0428 21.3791C53.5028 22.8403 53.1328 23.2396 50.1536 23.0995C46.6463 22.9346 46.1506 22.1561 46.2645 20.9744C45.2433 22.0602 44.4695 22.1887 43.1731 21.7839C41.8768 21.3791 40.2567 19.9985 41.3781 18.3432C41.6592 17.9284 41.9816 17.4583 42.3187 16.9668C43.2974 15.5399 44.3994 13.9332 44.9681 12.9798L45.2457 12.7578C44.684 13.6403 43.8343 14.87 43.0665 15.9812Z" fill="#265B7E"/>
<path d="M41.3781 18.3432C42.4751 16.7241 44.2036 14.2616 44.9681 12.9798L48.2589 10.3486L59.6272 12.7774C60.7906 14.1267 63.2371 17.3312 63.7157 19.3552C64.3141 21.8851 58.8144 23.0711 56.6205 23.0711C55.3204 23.0711 54.5966 22.7556 54.0428 21.3791C53.5028 22.8403 53.1328 23.2396 50.1536 23.0995C46.6463 22.9346 46.1506 22.1561 46.2645 20.9743C45.2433 22.0601 44.4695 22.1887 43.1731 21.7839C41.8768 21.3791 40.2567 19.9985 41.3781 18.3432Z" stroke="#0B3D5D" stroke-width="1.27387"/>
<path d="M61.8197 12.0696C61.4208 10.1468 57.5317 1.03906 52.6453 1.03906C48.7562 1.03906 43.9696 9.13484 43.6704 11.5636C43.3712 13.9923 46.8615 14.9031 48.9556 15.2067C50.6309 15.4495 50.7965 14.794 51.1495 14.0935C51.538 15.3456 51.7443 15.6784 55.1384 15.5103C57.4425 15.3961 57.6034 14.8762 57.6314 13.7899C59.3393 15.3508 62.2186 13.9923 61.8197 12.0696Z" fill="#389688" stroke="#0B3D5D" stroke-width="1.27387"/>
<path fill-rule="evenodd" clip-rule="evenodd" d="M55.4438 2.00586C58.4779 4.3424 60.6591 9.60985 60.9405 10.9664C61.3053 12.7248 58.6721 13.9672 57.1102 12.5397C57.0847 13.5331 56.9375 14.0086 54.8303 14.113C51.7264 14.2668 51.5378 13.9624 51.1825 12.8173C51.1571 12.8676 51.1329 12.9176 51.1089 12.967C50.8274 13.547 50.588 14.04 49.1761 13.8354C47.261 13.5577 44.0691 12.7248 44.3427 10.5037C44.4787 9.39971 45.6285 7.01543 47.1874 4.89627C45.2791 7.33432 43.8307 10.2623 43.6704 11.5635C43.3712 13.9922 46.8615 14.903 48.9556 15.2066C50.4995 15.4304 50.7612 14.8913 51.0691 14.257C51.0953 14.2031 51.1218 14.1484 51.1495 14.0934C51.538 15.3455 51.7443 15.6784 55.1384 15.5102C57.4425 15.396 57.6034 14.8761 57.6314 13.7898C59.3393 15.3507 62.2186 13.9922 61.8197 12.0695C61.5008 10.5322 58.9508 4.402 55.4438 2.00586Z" fill="#389688"/>
<path fill-rule="evenodd" clip-rule="evenodd" d="M55.4438 2.00586C58.4779 4.3424 60.6591 9.60985 60.9405 10.9664C61.3053 12.7248 58.6721 13.9672 57.1102 12.5397C57.0847 13.5331 56.9375 14.0086 54.8303 14.113C51.7264 14.2668 51.5378 13.9624 51.1825 12.8173C51.1571 12.8676 51.1329 12.9176 51.1089 12.967C50.8274 13.547 50.588 14.04 49.1761 13.8354C47.261 13.5577 44.0691 12.7248 44.3427 10.5037C44.4787 9.39971 45.6285 7.01543 47.1874 4.89627C45.2791 7.33432 43.8307 10.2623 43.6704 11.5635C43.3712 13.9922 46.8615 14.903 48.9556 15.2066C50.4995 15.4304 50.7612 14.8913 51.0691 14.257C51.0953 14.2031 51.1218 14.1484 51.1495 14.0934C51.538 15.3455 51.7443 15.6784 55.1384 15.5102C57.4425 15.396 57.6034 14.8761 57.6314 13.7898C59.3393 15.3507 62.2186 13.9922 61.8197 12.0695C61.5008 10.5322 58.9508 4.402 55.4438 2.00586Z" fill="#265B7E"/>
<path d="M61.8197 12.0696C61.4208 10.1468 57.5317 1.03906 52.6453 1.03906C48.7562 1.03906 43.9696 9.13484 43.6704 11.5636C43.3712 13.9923 46.8615 14.9031 48.9556 15.2067C50.6309 15.4495 50.7965 14.794 51.1495 14.0935C51.538 15.3456 51.7443 15.6784 55.1384 15.5103C57.4425 15.3961 57.6034 14.8762 57.6314 13.7899C59.3393 15.3508 62.2186 13.9923 61.8197 12.0696Z" stroke="#0B3D5D" stroke-width="1.27387"/>
</g>
<mask id="mask0_2366_2505" style="mask-type:alpha" maskUnits="userSpaceOnUse" x="1" y="27" width="10" height="10">
<path d="M5.3016 35.7126C8.99063 33.3141 10.7434 28.8772 10.7434 28.8772L5.80293 27.4322C5.17689 27.7487 4.11095 28.8092 2.00319 30.9221C-0.631515 33.5633 2.9813 37.2211 5.3016 35.7126Z" fill="#E1AC7A"/>
</mask>
<g mask="url(#mask0_2366_2505)">
<path d="M5.30134 35.7123C8.99036 33.3138 11.0553 28.9395 11.0553 28.9395L6.51575 27.3311C5.88971 27.6476 4.11069 28.8089 2.00292 30.9218C-0.631779 33.5629 2.98104 37.2208 5.30134 35.7123Z" fill="#E1AC7A"/>
<path d="M4.45793 32.839C4.39101 31.0122 2.77164 30.0388 1.97032 29.7805L-3.80181 26.9224L-4.35525 37.3169L0.506781 42.2903C3.15956 40.7903 8.3059 37.3299 7.66902 35.4884C7.03213 33.6469 5.26292 32.9548 4.45793 32.839Z" fill="#AC716A"/>
</g>
<path d="M11.0296 28.5768C11.0296 28.5768 8.98943 33.3135 5.30041 35.7119C2.98011 37.2205 -0.632708 33.5626 2.002 30.9215C4.10976 28.8086 5.0321 27.3293 5.65814 27.0128" stroke="#1C0F1A" stroke-width="1.16607"/>
<path d="M12.3553 11.7801C11.329 12.1222 11.3575 13.0629 11.5 13.4905L14.9209 13.2055C14.4933 12.5878 13.3815 11.438 12.3553 11.7801Z" fill="#AB706A" stroke="#1C0F1A" stroke-width="1.16607"/>
<path d="M22.3328 13.3479C20.7364 12.4357 18.9119 13.3479 18.1992 13.9181L21.05 16.1987C22.7604 15.7711 24.3284 14.4882 22.3328 13.3479Z" fill="#AB706A" stroke="#1C0F1A" stroke-width="1.16607"/>
<path opacity="0.3" d="M21.3416 14.8698C21.5515 14.9151 21.7583 14.7817 21.8035 14.5719C21.8488 14.362 21.7154 14.1552 21.5055 14.1099L21.3416 14.8698ZM20.3942 15.2397C20.3942 15.2397 20.3943 15.2395 20.3946 15.239C20.3948 15.2385 20.3951 15.2379 20.3956 15.237C20.3965 15.2352 20.3979 15.2328 20.3998 15.2297C20.4037 15.2234 20.4092 15.2151 20.4167 15.2051C20.4318 15.1848 20.4529 15.1602 20.4804 15.133C20.5357 15.0785 20.6102 15.0204 20.6996 14.9711C20.8777 14.8728 21.0985 14.8174 21.3416 14.8698L21.5055 14.1099C21.0435 14.0103 20.6317 14.1207 20.3242 14.2904C20.0307 14.4522 19.7905 14.6916 19.6878 14.9152L20.3942 15.2397Z" fill="#1C0F1A"/>
<mask id="mask1_2366_2505" style="mask-type:alpha" maskUnits="userSpaceOnUse" x="2" y="13" width="28" height="28">
<path fill-rule="evenodd" clip-rule="evenodd" d="M3.09 23.7531C2.09223 19.9045 4.2303 14.4881 11.4997 13.4903C18.661 12.5074 22.7791 15.2593 24.8078 25.289L24.8974 25.1787C24.8974 25.1787 27.1083 27.1118 29.6012 30.7377C31.0615 32.8618 28.0706 36.2223 25.4651 34.6007C25.0275 37.8318 23.694 38.862 22.9028 38.862L23.0587 39.4464C23.2678 40.2307 22.6767 41.0001 21.8651 41.0001H19.3394C18.3131 41.0001 17.7714 40.0498 17.6289 39.5747H14.0655C14.0179 40.0498 13.5808 41.0001 12.2125 41.0001H8.64901C7.22363 41.0001 7.5087 38.5769 7.93632 38.1493C6.79601 37.1516 4.74347 33.6451 5.65571 27.6015V27.4213C4.61431 26.7082 3.5531 25.5393 3.09 23.7531Z" fill="#E1AC7A"/>
</mask>
<g mask="url(#mask1_2366_2505)">
<path fill-rule="evenodd" clip-rule="evenodd" d="M3.09 23.7531C2.09223 19.9045 4.2303 14.4881 11.4997 13.4903C18.661 12.5074 22.7791 15.2593 24.8078 25.289L24.8974 25.1787C24.8974 25.1787 27.1083 27.1118 29.6012 30.7377C31.0615 32.8618 28.0706 36.2223 25.4651 34.6007C25.0275 37.8318 23.694 38.862 22.9028 38.862L23.0587 39.4464C23.2678 40.2307 22.6767 41.0001 21.8651 41.0001H19.3394C18.3131 41.0001 17.7714 40.0498 17.6289 39.5747H14.0655C14.0179 40.0498 13.5808 41.0001 12.2125 41.0001H8.64901C7.22363 41.0001 7.5087 38.5769 7.93632 38.1493C6.79601 37.1516 4.74347 33.6451 5.65571 27.6015V27.4213C4.61431 26.7082 3.5531 25.5393 3.09 23.7531Z" fill="#E1AC7A"/>
<path d="M9.21941 21.6151C9.78956 16.8258 6.13108 16.0086 4.23058 16.1986C3.28032 18.3368 1.6934 23.0977 2.94773 25.0362C4.51565 27.4594 8.50672 27.6017 9.21941 21.6151Z" fill="#B77150"/>
<path d="M5.22852 24.7514C5.22852 23.8962 5.22852 21.9577 5.22852 21.0454C5.22852 19.9051 5.79867 19.335 7.50912 19.335" stroke="#5A3030" stroke-width="1.16607" stroke-linecap="round"/>
<path d="M4.80078 18.6221C5.03828 18.8121 5.54178 19.3061 5.65578 19.7621" stroke="#5A3030" stroke-width="1.16607" stroke-linecap="round"/>
<path d="M14.7773 19.1924L17.7706 20.3327" stroke="black" stroke-width="1.16607" stroke-linecap="round"/>
<ellipse opacity="0.2" cx="16.9151" cy="15.8498" rx="0.983869" ry="0.682808" transform="rotate(22.7307 16.9151 15.8498)" fill="white"/>
<path d="M25.0426 33.3039C12.8414 38.6633 2.56915 35.1569 -1.04182 32.7337L-3.89258 53.2591L36.5882 52.5465C37.8236 43.8992 37.2439 27.9444 25.0426 33.3039Z" fill="#C69273"/>
<rect x="6.79492" y="40.0029" width="20.2404" height="2.28061" fill="#4C3731"/>
</g>
<path d="M23.0925 39.5747L22.9023 38.8626C23.5618 38.53 24.7987 37.3517 25.0404 36.4395" stroke="#1C0F1A" stroke-width="1.16607"/>
<path d="M25.2085 36.5186C17.8124 35.6699 7.80965 31.4262 5.44531 28.971L5.7977 27.6016L7.36562 28.4568C9.96888 29.7871 16.9182 32.7616 23.7839 33.4458L24.9054 33.7308H25.753C25.753 34.3968 25.8274 36.5896 25.2085 36.5186Z" fill="#6A3D27"/>
<path d="M5.75781 27.6797C8.36108 29.01 16.8924 32.6196 23.758 33.3038" stroke="#1D0F06" stroke-width="1.16607"/>
<path d="M25.4854 34.4439C25.7328 32.4453 25.6434 29.6334 24.8983 25.7486C22.9028 15.3433 18.7692 12.4926 11.4997 13.4903C4.2303 14.4881 2.09223 19.9045 3.09 23.7531C3.88821 26.8319 5.40827 27.4589 5.65571 27.6015C4.74347 33.6451 6.79601 37.1516 7.93632 38.1493C7.5087 38.5769 7.22363 41.0001 8.64901 41.0001C10.0744 41.0001 10.502 41.0001 12.2125 41.0001C13.5808 41.0001 14.0179 40.0498 14.0655 39.5747H17.6289C17.7714 40.0498 18.3131 41.0001 19.3394 41.0001C19.9763 41.0001 21.0487 41.0001 21.9979 41.0001C22.7425 41.0001 23.2847 40.2942 23.0929 39.5747V39.5747L22.9027 38.8626" stroke="#1C0F1A" stroke-width="1.16607"/>
<mask id="mask2_2366_2505" style="mask-type:alpha" maskUnits="userSpaceOnUse" x="21" y="25" width="9" height="11">
<path d="M29.6031 30.7377C27.1103 27.1118 24.8993 25.1787 24.8993 25.1787L21.1934 29.7399C21.5259 30.3576 22.7328 32.1061 24.8993 34.1586C27.6076 36.7243 31.171 33.0183 29.6031 30.7377Z" fill="#E1AC7A"/>
</mask>
<g mask="url(#mask2_2366_2505)">
<path d="M29.6031 30.7377C27.1103 27.1118 24.8993 25.1787 24.8993 25.1787L21.1934 29.7399C21.5259 30.3576 22.7328 32.1061 24.8993 34.1586C27.6076 36.7243 31.171 33.0183 29.6031 30.7377Z" fill="#E1AC7A"/>
<path d="M26.7523 31.6559C24.9278 31.7699 23.9966 33.4138 23.759 34.2215L21.0508 40.0655L31.4561 40.3506L36.3024 35.3618C34.7344 32.7486 31.1425 27.6933 29.318 28.3775C27.4935 29.0617 26.8473 30.8481 26.7523 31.6559Z" fill="#AC716A"/>
</g>
<path d="M29.6031 30.7373L30.0835 30.407L29.6031 30.7373ZM24.8993 34.1582L25.3003 33.735L24.8993 34.1582ZM21.7067 29.4631C21.554 29.1796 21.2005 29.0736 20.9169 29.2262C20.6334 29.3789 20.5274 29.7325 20.68 30.016L21.7067 29.4631ZM24.6902 25.3857C24.3517 25.8604 24.3516 25.8603 24.3515 25.8602C24.3514 25.8602 24.3514 25.8602 24.3513 25.8601C24.3512 25.8601 24.3512 25.86 24.3512 25.86C24.3512 25.86 24.3513 25.8601 24.3516 25.8603C24.3521 25.8607 24.3532 25.8615 24.3549 25.8627C24.3583 25.8652 24.364 25.8693 24.3718 25.8751C24.3876 25.8868 24.4122 25.9051 24.4451 25.9302C24.5109 25.9805 24.6097 26.0578 24.7371 26.1624C24.9919 26.3718 25.3606 26.6906 25.8069 27.1213C26.6998 27.983 27.9015 29.2914 29.1227 31.0676L30.0835 30.407C28.8119 28.5573 27.5572 27.1899 26.6167 26.2823C26.1464 25.8283 25.7543 25.489 25.4774 25.2615C25.339 25.1477 25.2293 25.0619 25.153 25.0036C25.1148 24.9744 25.085 24.9522 25.0641 24.9368C25.0536 24.929 25.0454 24.923 25.0395 24.9188C25.0365 24.9166 25.0341 24.9149 25.0323 24.9136C25.0314 24.9129 25.0307 24.9124 25.0301 24.912C25.0298 24.9117 25.0295 24.9116 25.0293 24.9114C25.0291 24.9113 25.029 24.9112 25.0289 24.9112C25.0288 24.9111 25.0287 24.911 24.6902 25.3857ZM29.1227 31.0676C29.6747 31.8706 29.3786 33.0438 28.4741 33.8235C28.0411 34.1968 27.5147 34.4268 26.9785 34.4441C26.4548 34.461 25.8727 34.2772 25.3003 33.735L24.4984 34.5815C25.2801 35.3221 26.159 35.6372 27.0161 35.6096C27.8608 35.5823 28.635 35.2243 29.2355 34.7067C30.3978 33.7048 31.0994 31.8846 30.0835 30.407L29.1227 31.0676ZM25.3003 33.735C23.167 31.7139 22.0031 30.0135 21.7067 29.4631L20.68 30.016C21.0488 30.7009 22.2986 32.4975 24.4984 34.5815L25.3003 33.735Z" fill="#1C0F1A"/>
<path d="M5.41211 29.1387C6.80655 30.9876 21.4168 36.8681 25.0845 36.5043C25.8168 36.4317 25.5694 34.7462 25.5694 34.7462" stroke="#1D0F06" stroke-width="1.16607"/>
<path d="M12.1016 30.6146C12.1016 30.2231 12.487 29.9481 12.8572 30.0754L14.6915 30.7064C14.9217 30.7856 15.0762 31.0022 15.0762 31.2456V33.5292C15.0762 33.9358 14.6627 34.2118 14.2872 34.0557L12.4529 33.2935C12.2402 33.2051 12.1016 32.9974 12.1016 32.767V30.6146Z" fill="#6A3D27"/>
<path fill-rule="evenodd" clip-rule="evenodd" d="M11.6738 30.6148C11.6738 29.9297 12.3484 29.4484 12.9962 29.6713L14.8305 30.3023C15.2333 30.4408 15.5037 30.8198 15.5037 31.2458V33.5294C15.5037 34.241 14.7801 34.7239 14.123 34.4508L12.2887 33.6886C11.9164 33.5339 11.6738 33.1704 11.6738 32.7672V30.6148ZM12.718 30.48C12.6254 30.4482 12.5291 30.5169 12.5291 30.6148V32.7672C12.5291 32.8248 12.5637 32.8768 12.6169 32.8988L14.4512 33.6611C14.5451 33.7001 14.6484 33.6311 14.6484 33.5294V31.2458C14.6484 31.1849 14.6098 31.1308 14.5523 31.111L12.718 30.48Z" fill="#E8A635" stroke="#1C0F1A" stroke-width="0.544165"/>
<path fill-rule="evenodd" clip-rule="evenodd" d="M11.0987 31.0534C11.1911 30.836 11.4421 30.7348 11.6595 30.8272L13.5105 31.6141C13.7279 31.7066 13.8292 31.9576 13.7368 32.175C13.6443 32.3923 13.3933 32.4936 13.1759 32.4012L11.3249 31.6142C11.1075 31.5218 11.0063 31.2707 11.0987 31.0534Z" fill="#E8A635" stroke="#1C0F1A" stroke-width="0.544165"/>
<defs>
<clipPath id="clip0_2366_2505">
<rect width="39.024" height="41.2179" fill="white" transform="translate(37)"/>
</clipPath>
</defs>
</svg>
