<svg width="192" height="267" viewBox="0 0 192 267" fill="none" xmlns="http://www.w3.org/2000/svg">
<rect x="12" y="12" width="48" height="48" rx="8" fill="#36393A"/>
<path d="M46.1476 31.8556C46.7813 31.7417 47.3876 32.1621 47.5034 32.7954C47.6196 33.4314 47.1972 34.0409 46.5609 34.1553L25.8934 37.871C25.258 37.9852 24.6507 37.5621 24.5377 36.9265C24.4251 36.2927 24.8469 35.6875 25.4805 35.5737L27.7757 35.1613L27.3673 32.863C27.2507 32.233 27.6707 31.6263 28.3123 31.5096C28.9423 31.393 29.549 31.813 29.6657 32.4546L30.074 34.7413L41.554 32.688L41.1457 30.3896C41.029 29.748 41.449 29.1413 42.0907 29.013C42.7206 28.9196 43.3273 29.3396 43.444 29.9696L43.8523 32.268L46.1476 31.8556Z" fill="#818688"/>
<path d="M30.6323 43.6338L32.8995 39.4468C33.0703 39.1313 33.3769 38.9119 33.7307 38.8521L37.4861 38.2165C37.9755 38.1336 38.4638 38.3696 38.703 38.8045L41.3572 43.6304C41.5711 44.0192 41.2898 44.4949 40.8461 44.4949H31.1453C30.7033 44.4949 30.4218 44.0224 30.6323 43.6338Z" fill="#818688"/>
<path opacity="0.04" fill-rule="evenodd" clip-rule="evenodd" d="M192 16C192 7.16344 184.837 0 176 0H88C79.1634 0 72 7.16344 72 16V56C72 64.8366 64.8366 72 56 72H16C7.16344 72 0 79.1634 0 88V251C0 259.837 7.16344 267 16 267H176C184.837 267 192 259.837 192 251V96V72V16Z" fill="white"/>
</svg>
