<svg width="224" height="90" viewBox="0 0 224 90" fill="none" xmlns="http://www.w3.org/2000/svg">
<g clip-path="url(#clip0_2366_3122)">
<path d="M169.205 47.5964C178.775 37.0197 223.39 45.6853 223.385 103.418L200.703 126.337L-76.0933 129.332C-76.0933 129.332 -86.3687 101.899 -82.7844 86.5549C-78.2703 67.2312 -49.3312 59.8013 -48.2096 65.2426C-43.1844 54.7298 -33.0677 50.5022 -28.6374 49.7024C-38.1095 49.6144 -56.6549 47.132 -55.0603 37.9064C-53.4657 28.6808 -38.3046 26.4617 -30.9232 26.5053C-39.4095 22.1999 -33.8638 10.6851 -10.0386 6.74331C8.01327 3.75668 15.5102 18.4189 15.5973 24.6121C20.7434 20.5112 30.1811 10.5598 38.0777 20.8201C44.9602 29.7627 42.2018 36.3299 42.9077 40.0809C60.2647 37.0051 68.601 51.076 70.5996 58.496C81.3914 56.7514 89.6889 64.3482 92.4887 68.3648C100.765 54.9745 113.065 54.5803 118.181 56.057C121.353 44.7296 125.567 37.8328 137.461 33.6626C155.868 27.2089 166.293 40.2628 169.205 47.5964Z" fill="#89E4E9"/>
<g clip-path="url(#clip1_2366_3122)">
<rect width="11.2987" height="17.9103" transform="matrix(1 -0.000216514 -0.000217127 1 89.252 77.6406)" fill="#3C405D" stroke="#262A48" stroke-width="1.89474"/>
<path d="M81.9723 76.8852C82.1485 75.3074 82.7788 73.3059 83.072 72.5023L89.2258 68.7758L105.047 73.155C105.926 74.3235 107.287 77.1865 105.705 79.2905C104.122 81.3944 101.822 80.46 100.87 79.7298C100.583 80.6838 100.474 81.5705 97.134 81.9219C94.7464 82.173 92.2736 81.5373 91.8603 80.6082C91.5829 81.1505 91.1569 81.4411 89.2231 81.2662C87.2893 81.0913 86.3666 80.1712 86.147 79.7329C84.8283 80.6098 81.7521 78.8574 81.9723 76.8852Z" fill="#53BAA6" stroke="#285A6B" stroke-width="1.89474"/>
<path d="M108.782 70.5244C108.079 68.4209 105.707 64.0972 104.609 62.1983L98.8953 60.8848L88.7868 60.887C86.7353 63.2248 82.4565 68.2073 81.753 69.4346C80.8737 70.9687 80.214 72.7219 82.8508 73.5978C84.9603 74.2986 85.2682 73.5002 86.1474 72.5015C86.2347 73.6463 86.0151 74.9557 90.7614 76.0065C95.5078 77.0573 96.1224 75.5977 96.695 74.6905L96.7035 74.7033C97.3393 75.6651 97.956 76.598 99.9909 76.4428C102.62 76.2423 103.502 75.6258 103.727 74.6889C106.584 75.784 109.661 73.1538 108.782 70.5244Z" fill="#53BAA6" stroke="#285A6B" stroke-width="1.89474"/>
<path d="M105.929 60.4449C104.392 57.3774 98.2407 48.3944 95.8235 48.1758C91.8679 48.1767 89.4492 55.8468 88.1301 58.9149C87.0009 61.5412 85.9313 64.1745 89.0077 64.8312C91.4688 65.3566 92.7435 64.8304 92.9636 63.5156C93.4028 64.8302 93.8422 64.8301 97.3582 64.8294C100.171 64.8288 101.314 64.0981 101.534 63.7328C103.072 65.4855 107.467 63.5124 105.929 60.4449Z" fill="#53BAA6" stroke="#285A6B" stroke-width="1.89474"/>
<rect width="17.58" height="19.2835" transform="matrix(1 -0.000216514 -0.000217127 1 50.6855 75.5469)" fill="#3C405D" stroke="#262A48" stroke-width="1.89474"/>
<path d="M32.0078 70.9488C33.9424 67.0917 35.5985 64.3742 36.1847 63.4975L45.4155 57.579C57.5749 58.0877 82.5088 60.5073 84.9687 66.1165C88.0437 73.128 88.0432 75.3193 82.7686 78.3883C79.5881 80.2388 77.0326 78.5188 74.8581 75.9796C74.8767 79.1483 72.6367 81.5659 65.4075 82.1172C56.7895 82.7745 55.8281 80.7952 54.8603 78.3943C54.0919 81.1473 52.1715 81.6908 47.3881 81.2446C42.6047 80.7985 42.6399 79.3263 42.5547 75.9866C41.0164 77.3097 39.8358 78.6505 37.0889 77.8293C34.8916 77.1723 29.5895 75.7702 32.0078 70.9488Z" fill="#389688" stroke="#0B3D5D" stroke-width="1.89474"/>
<path d="M30.6911 57.583C33.216 53.0708 37.9453 46.5518 39.9237 43.3375L45.4183 40.0494L80.3582 41.7948C81.969 44.9353 85.9376 52.4872 88.9251 57.5704C92.6595 63.9243 90.5413 65.7798 86.5853 67.9719C83.4205 69.7256 80.2088 68.1668 78.3752 66.1187C78.2867 68.9727 77.0609 70.2381 72.2212 70.7218C66.9471 71.2488 65.6446 70.8159 64.5304 68.313C63.2842 71.6552 59.4812 71.0278 50.4659 70.7265C43.8019 70.5038 42.1182 68.6543 42.5561 65.0308C39.0172 68.4513 36.7592 67.7445 34.6446 66.7856C32.228 65.6896 27.9273 62.5222 30.6911 57.583Z" fill="#389688" stroke="#0B3D5D" stroke-width="1.89474"/>
<path d="M36.1905 39.6138C38.6085 36.1072 42.4186 30.7742 44.104 27.9982L51.357 22.2993L76.4074 27.553C78.9705 30.4742 84.3602 37.4121 85.4141 41.7945C86.7314 47.2725 74.6115 49.8432 69.777 49.8443C66.9119 49.8449 65.3171 49.1621 64.0973 46.1817C62.9068 49.3459 62.0912 50.2107 55.5262 49.9088C47.7974 49.5534 46.7055 47.8678 46.957 45.3089C44.7061 47.6605 43.0009 47.9393 40.1444 47.0634C37.2878 46.1875 33.7185 43.1986 36.1905 39.6138Z" fill="#389688" stroke="#0B3D5D" stroke-width="1.89474"/>
<path d="M81.2421 26.0171C80.364 21.8539 71.798 2.134 61.0302 2.13633C52.46 2.13819 41.9081 19.6709 41.2477 24.9302C40.5873 30.1894 48.2782 32.1599 52.8928 32.8163C56.5845 33.3414 56.9495 31.9219 57.7278 30.4048C58.5834 33.1159 59.0378 33.8366 66.5172 33.4708C71.5946 33.2224 71.9495 32.0966 72.0117 29.7444C75.7745 33.1234 82.1202 30.1804 81.2421 26.0171Z" fill="#389688" stroke="#0B3D5D" stroke-width="1.89474"/>
</g>
<mask id="mask0_2366_3122" style="mask-type:alpha" maskUnits="userSpaceOnUse" x="177" y="69" width="12" height="10">
<path d="M187.543 75.4627C183.007 78.5955 177.03 78.5135 177.03 78.5135L177.709 72.0999C178.374 71.5252 180.11 70.795 183.563 69.3586C187.878 67.5633 190.397 73.4923 187.543 75.4627Z" fill="#E1AC7A"/>
</mask>
<g mask="url(#mask0_2366_3122)">
<path d="M187.544 75.4631C183.007 78.5959 176.954 78.9054 176.954 78.9054L177.252 72.8786C177.917 72.3039 180.111 70.7953 183.563 69.359C187.879 67.5636 190.397 73.4926 187.544 75.4631Z" fill="#E1AC7A"/>
<path d="M184.614 73.1165C182.528 72.1688 182.172 69.8286 182.254 68.7769L181.691 60.7265L194 65.0358L197.448 73.039C194.446 75.3989 187.985 79.7148 186.154 78.0996C184.324 76.4844 184.364 74.1045 184.614 73.1165Z" fill="#AC716A"/>
</g>
<path d="M176.545 78.7042C176.545 78.7042 183.006 78.5958 187.543 75.463C190.396 73.4926 187.878 67.5636 183.562 69.359C180.11 70.7953 177.956 71.1596 177.291 71.7344" stroke="#1C0F1A" stroke-width="1.37101"/>
<path d="M187.998 81.4151C185.74 83.1639 184.89 76.7909 184.89 76.7909C184.89 76.7909 178.509 67.2419 177.644 66.1456C176.563 64.7752 170.701 59.5898 169.71 57.6248C168.341 54.9127 158.304 40.3123 155.203 35.5717C154.785 35.0122 154.133 33.7647 154.869 33.251C155.605 32.7373 156.619 33.8118 157.034 34.4133C159.098 37.2541 167.977 49.6112 170.144 52.8473C172.852 56.8924 178.185 61.951 180.298 63.5902C182.41 65.2294 188.503 75.8528 189.466 77.2066C190.428 78.5604 190.82 79.2291 187.998 81.4151Z" fill="#D2B0FF" stroke="#1C0F1A" stroke-width="1.37101" stroke-linejoin="round"/>
<mask id="path-16-outside-1_2366_3122" maskUnits="userSpaceOnUse" x="152.291" y="34.4085" width="18.2594" height="17.6518" fill="black">
<rect fill="white" x="152.291" y="34.4085" width="18.2594" height="17.6518"/>
<path fill-rule="evenodd" clip-rule="evenodd" d="M156.829 44.8348C155.203 44.4259 156.044 41.9247 157.457 41.0212L161.303 38.5622C162.578 37.747 164.522 38.0384 164.853 39.5152C164.927 39.8457 164.82 40.2928 164.576 40.7789C164.151 41.6218 164.029 42.6425 164.568 43.4166C165.197 44.3183 164.987 45.5569 164.098 46.202L163.973 46.2922C163.024 46.9807 161.7 46.7917 160.981 45.8653L160.924 45.7925C160.304 44.9933 159.239 44.7718 158.236 44.9029C157.761 44.965 157.293 44.9515 156.829 44.8348Z"/>
</mask>
<path fill-rule="evenodd" clip-rule="evenodd" d="M156.829 44.8348C155.203 44.4259 156.044 41.9247 157.457 41.0212L161.303 38.5622C162.578 37.747 164.522 38.0384 164.853 39.5152C164.927 39.8457 164.82 40.2928 164.576 40.7789C164.151 41.6218 164.029 42.6425 164.568 43.4166C165.197 44.3183 164.987 45.5569 164.098 46.202L163.973 46.2922C163.024 46.9807 161.7 46.7917 160.981 45.8653L160.924 45.7925C160.304 44.9933 159.239 44.7718 158.236 44.9029C157.761 44.965 157.293 44.9515 156.829 44.8348Z" fill="#9849FF"/>
<path d="M164.098 46.202L164.902 47.3119L164.098 46.202ZM160.981 45.8653L162.064 45.0248L160.981 45.8653ZM162.041 39.7173L158.196 42.1763L156.718 39.8661L160.564 37.4072L162.041 39.7173ZM163.351 40.1627C163.436 39.9939 163.478 39.8676 163.496 39.7885C163.515 39.7024 163.494 39.7229 163.515 39.8146L166.191 39.2158C166.37 40.0151 166.09 40.8186 165.8 41.3951L163.351 40.1627ZM163.168 45.1824L163.293 45.0921L164.902 47.3119L164.778 47.4021L163.168 45.1824ZM162.007 44.9519L162.064 45.0248L159.897 46.7059L159.841 46.6331L162.007 44.9519ZM157.163 43.5052C157.435 43.5734 157.726 43.5868 158.058 43.5435L158.413 46.2624C157.796 46.3431 157.152 46.3296 156.495 46.1644L157.163 43.5052ZM159.841 46.6331C159.64 46.3736 159.167 46.1638 158.413 46.2624L158.058 43.5435C159.31 43.3798 160.968 43.613 162.007 44.9519L159.841 46.6331ZM165.693 42.6329C166.749 44.1475 166.397 46.2282 164.902 47.3119L163.293 45.0921C163.578 44.8856 163.645 44.4891 163.443 44.2004L165.693 42.6329ZM165.8 41.3951C165.491 42.0089 165.559 42.4408 165.693 42.6329L163.443 44.2004C162.498 42.8441 162.811 41.2347 163.351 40.1627L165.8 41.3951ZM158.196 42.1763C158.024 42.2859 157.833 42.4708 157.665 42.7158C157.497 42.9603 157.387 43.2149 157.339 43.4242C157.286 43.6493 157.327 43.713 157.308 43.6654C157.26 43.5512 157.153 43.5026 157.163 43.5052L156.495 46.1644C155.692 45.9625 155.08 45.4479 154.777 44.7216C154.502 44.0618 154.537 43.367 154.668 42.8028C154.926 41.6931 155.687 40.5257 156.718 39.8661L158.196 42.1763ZM164.778 47.4021C163.23 48.5249 161.07 48.2168 159.897 46.7059L162.064 45.0248C162.329 45.3667 162.818 45.4365 163.168 45.1824L164.778 47.4021ZM160.564 37.4072C161.51 36.8024 162.69 36.6054 163.735 36.8421C164.812 37.0859 165.884 37.845 166.191 39.2158L163.515 39.8146C163.491 39.7086 163.426 39.5836 163.129 39.5164C162.8 39.4419 162.37 39.5068 162.041 39.7173L160.564 37.4072Z" fill="#1C0F1A" mask="url(#path-16-outside-1_2366_3122)"/>
<path opacity="0.6" d="M161.321 45.2412C161.803 45.9432 162.757 46.118 163.461 45.6335C164.16 45.1526 164.334 44.1979 163.851 43.4961C163.368 42.795 162.415 42.6217 161.71 43.107C161.014 43.5868 160.839 44.5413 161.321 45.2412ZM163.261 43.9136C163.092 44.2779 163.049 44.6622 163.043 45.0553C162.684 44.8689 162.298 44.8515 161.91 44.8402C162.087 44.4771 162.119 44.0924 162.12 43.6981C162.489 43.8335 162.858 43.9445 163.261 43.9136Z" fill="white"/>
<path d="M187.648 78.5375C187.407 78.8302 186.975 78.8727 186.683 78.6325C186.39 78.3924 186.348 77.9604 186.588 77.6678L187.648 78.5375ZM185.832 76.1286L186.097 76.7606L186.097 76.7606L185.832 76.1286ZM186.588 77.6678C186.797 77.4126 186.807 77.0638 186.697 76.855C186.649 76.763 186.59 76.7187 186.532 76.6991C186.474 76.6796 186.339 76.6589 186.097 76.7606L185.566 75.4966C186.046 75.2948 186.53 75.252 186.969 75.3995C187.407 75.5469 187.723 75.8584 187.912 76.2188C188.276 76.9147 188.206 77.8565 187.648 78.5375L186.588 77.6678ZM186.097 76.7606C185.938 76.8276 185.827 76.9537 185.785 77.2685C185.74 77.6101 185.799 78.0676 185.933 78.5718C186.063 79.0637 186.247 79.5422 186.403 79.9029C186.48 80.0819 186.548 80.2286 186.597 80.3297C186.621 80.3801 186.64 80.419 186.653 80.4446C186.66 80.4574 186.664 80.4669 186.667 80.4728C186.669 80.4758 186.67 80.4778 186.671 80.479C186.671 80.4796 186.671 80.4799 186.671 80.48C186.671 80.4801 186.671 80.4801 186.671 80.48C186.671 80.48 186.671 80.4799 186.671 80.4799C186.671 80.4798 186.671 80.4797 186.063 80.7965C185.455 81.1133 185.455 81.1132 185.455 81.113C185.455 81.113 185.455 81.1128 185.455 81.1126C185.455 81.1123 185.454 81.112 185.454 81.1116C185.454 81.1107 185.453 81.1097 185.453 81.1084C185.451 81.1058 185.449 81.1022 185.447 81.0978C185.443 81.0888 185.436 81.0763 185.428 81.0602C185.412 81.0282 185.389 80.9824 185.361 80.9245C185.306 80.8088 185.229 80.6442 185.143 80.4448C184.973 80.0488 184.761 79.5027 184.607 78.9224C184.457 78.3544 184.346 77.6924 184.426 77.0876C184.51 76.4561 184.823 75.8089 185.566 75.4966L186.097 76.7606Z" fill="#1C0F1A"/>
<path d="M184.151 75.5166L187.151 73.4871L186.106 71.7963L182.971 73.7278L184.151 75.5166Z" fill="#F9BF76" stroke="#1C0F1A" stroke-width="1.37101" stroke-linecap="round" stroke-linejoin="round"/>
<path d="M182.902 73.7024L186.098 71.7748L184.941 70.0437L181.868 72.1424L182.902 73.7024Z" fill="#FF9763" stroke="#1C0F1A" stroke-width="1.37101" stroke-linecap="round" stroke-linejoin="round"/>
<path d="M181.791 72.0599L185.003 70.0392L183.974 68.4352L180.784 70.4712L181.791 72.0599Z" fill="#F9BF76" stroke="#1C0F1A" stroke-width="1.37101" stroke-linecap="round" stroke-linejoin="round"/>
<path d="M180.72 70.3851L183.858 68.4335L182.793 66.8068L179.602 68.7701L180.72 70.3851Z" fill="#FF9763" stroke="#1C0F1A" stroke-width="1.37101" stroke-linecap="round" stroke-linejoin="round"/>
<path d="M155.75 21.5491C162.021 22.1187 166.642 27.664 166.073 33.9346C165.503 40.2054 159.958 44.827 153.687 44.2574C147.416 43.6878 142.795 38.1426 143.364 31.8719C143.934 25.6013 149.479 20.9795 155.75 21.5491Z" fill="#DEC4FF" stroke="#1C0F1A" stroke-width="1.37101"/>
<path d="M164.633 33.8052C165.13 28.3295 161.094 23.4874 155.619 22.99C150.143 22.4926 145.301 26.5284 144.803 32.004C144.306 37.4796 148.342 42.3218 153.817 42.8192C159.293 43.3166 164.135 39.2809 164.633 33.8052Z" fill="#B276FF"/>
<path opacity="0.96" d="M149.121 30.6195C149.309 29.2647 148.254 27.9771 150.452 26.1488C152.127 24.756 153.629 26.1858 155.107 26.549C157.591 27.1597 159.494 25.8526 160.848 28.5574C161.804 30.4656 160.178 31.4807 160.412 32.4517C160.642 33.4057 162.199 33.8051 161.605 35.1626C161.038 36.4557 158.412 35.9689 157.449 36.6466C156.554 37.2762 156.683 38.3445 156.133 39.2168C155.52 40.1877 153.567 40.6298 152.533 39.9524C151.461 39.2495 151.814 37.6035 150.763 36.5353C149.724 35.48 148.064 36.0283 147.705 34.5359C147.281 32.767 148.941 31.9159 149.121 30.6194L149.121 30.6195Z" fill="#9747FF"/>
<g opacity="0.26">
<path d="M157.421 41.4633C159.71 40.5123 161.265 39.3181 162.489 37.4427C163.003 36.655 163.85 34.9558 163.119 34.0355C162.529 33.2918 161.563 33.9647 161.2 34.5761C160.727 35.3758 160.53 36.3621 160.162 37.2089C159.604 38.4975 158.671 39.4116 157.515 40.1719C156.288 40.9784 154.852 41.4042 155.055 41.7739C155.284 42.1912 156.858 41.6973 157.421 41.4633Z" fill="white"/>
<path d="M160.054 26.0058C161.528 27.1221 162.485 28.5056 163.073 30.2209C163.27 30.793 163.574 31.7019 162.975 32.1592C162.664 32.3965 162.267 31.9938 162.139 31.7504C161.921 31.3329 161.77 30.3706 161.234 29.4721C160.018 27.4368 156.57 26.7826 157.327 25.5864C157.846 24.7662 159.42 25.5264 160.054 26.0059L160.054 26.0058Z" fill="white"/>
</g>
<path d="M150.157 30.3661L150.553 28.8217L151.821 28.6131L150.611 28.1796L150.5 26.5891L150.104 28.1335L148.836 28.3421L150.046 28.7756L150.157 30.3661Z" fill="white"/>
<path d="M153.137 31.5026L153.399 30.4802L154.238 30.342L153.437 30.0551L153.364 29.0021L153.102 30.0246L152.263 30.1626L153.063 30.4497L153.137 31.5026Z" fill="white"/>
<path d="M150.748 38.2133L151.072 36.949L152.11 36.7784L151.12 36.4234L151.029 35.1215L150.704 36.3857L149.667 36.5565L150.657 36.9113L150.748 38.2133Z" fill="#E1AC7A"/>
<path d="M158.932 32.4564L159.187 31.4626L160.003 31.3285L159.225 31.0495L159.153 30.0261L158.898 31.0198L158.083 31.154L158.861 31.4329L158.932 32.4564Z" fill="#E1AC7A"/>
<path d="M157.928 38.7959L158.324 37.2515L159.592 37.0429L158.383 36.6093L158.272 35.0188L157.876 36.5632L156.608 36.7719L157.817 37.2054L157.928 38.7959Z" fill="white"/>
<path d="M172.328 53.3906C173.614 53.8192 173.578 54.9979 173.4 55.5337L169.114 55.1765C169.649 54.4026 171.042 52.9619 172.328 53.3906Z" fill="#AB706A" stroke="#1C0F1A" stroke-width="1.37101"/>
<path d="M159.827 55.354C161.827 54.2111 164.113 55.354 165.006 56.0684L161.434 58.9258C159.291 58.39 157.326 56.7828 159.827 55.354Z" fill="#AB706A" stroke="#1C0F1A" stroke-width="1.37101"/>
<mask id="mask1_2366_3122" style="mask-type:alpha" maskUnits="userSpaceOnUse" x="150" y="55" width="35" height="36">
<path fill-rule="evenodd" clip-rule="evenodd" d="M183.936 68.3951C185.186 63.5731 182.507 56.7867 173.399 55.5365C164.426 54.3049 159.266 57.7533 156.724 70.3216L156.611 70.1816C156.611 70.1816 153.84 72.6036 150.717 77.1467C148.887 79.8085 152.636 84.0201 155.901 81.9857C156.449 86.0346 158.12 87.3256 159.112 87.3256L159.01 87.7054C158.701 88.8659 159.575 90.0044 160.776 90.0044H163.576C164.862 90.0044 165.541 88.8138 165.719 88.2185H170.184C170.244 88.8138 170.791 90.0044 172.506 90.0044H176.971C178.756 90.0044 178.399 86.9684 177.864 86.4326C179.292 85.1825 181.864 80.7892 180.721 73.2169V72.9911C182.026 72.0977 183.355 70.6331 183.936 68.3951Z" fill="#E1AC7A"/>
</mask>
<g mask="url(#mask1_2366_3122)">
<path fill-rule="evenodd" clip-rule="evenodd" d="M183.936 68.3951C185.186 63.5731 182.507 56.7867 173.399 55.5365C164.426 54.3049 159.266 57.7533 156.724 70.3216L156.611 70.1816C156.611 70.1816 153.84 72.6036 150.717 77.1467C148.887 79.8085 152.636 84.0201 155.901 81.9857C156.449 86.0346 158.12 87.3256 159.112 87.3256L159.01 87.7054C158.701 88.8659 159.575 90.0044 160.776 90.0044H163.576C164.862 90.0044 165.541 88.8138 165.719 88.2185H170.184C170.244 88.8138 170.791 90.0044 172.506 90.0044H176.971C178.756 90.0044 178.399 86.9684 177.864 86.4326C179.292 85.1825 181.864 80.7892 180.721 73.2169V72.9911C182.026 72.0977 183.355 70.6331 183.936 68.3951Z" fill="#E1AC7A"/>
<path d="M176.257 65.716C175.542 59.7153 180.126 58.6914 182.507 58.9295C183.698 61.6085 185.686 67.5736 184.115 70.0025C182.15 73.0385 177.15 73.2168 176.257 65.716Z" fill="#B77150"/>
<path d="M181.256 69.6478C181.256 68.5762 181.256 66.1474 181.256 65.0044C181.256 63.5757 180.541 62.8613 178.398 62.8613" stroke="#5A3030" stroke-width="0.914004" stroke-linecap="round"/>
<path d="M181.793 61.9668C181.495 62.2051 180.864 62.8245 180.721 63.3963" stroke="#5A3030" stroke-width="0.914004" stroke-linecap="round"/>
<path d="M169.291 62.6816L165.541 64.1104" stroke="black" stroke-width="2.74201" stroke-linecap="round"/>
<path d="M156.434 80.3622C171.721 87.0772 184.591 82.6839 189.116 79.6479L192.688 105.365L141.968 104.472C140.42 93.6375 141.146 73.6472 156.434 80.3622Z" fill="#C69273"/>
<path d="M158.397 90.0033L158.873 88.2174L159.111 87.3251C158.285 86.9084 156.735 85.432 156.432 84.2891" stroke="#1C0F1A" stroke-width="1.37101"/>
<rect width="25.3599" height="2.85745" transform="matrix(-1 0 0 1 179.291 88.7559)" fill="#4C3731"/>
</g>
<path d="M156.221 84.3912C165.487 83.3278 178.02 78.0108 180.982 74.9346L180.541 73.2188L178.576 74.2903C175.315 75.9571 166.608 79.6839 158.005 80.5411L156.6 80.8983H155.538C155.538 81.7327 155.445 84.4802 156.221 84.3912Z" fill="#6A3D27"/>
<path d="M180.381 73.2285C177.119 74.8954 166.641 79.5056 158.039 80.3628" stroke="#1D0F06" stroke-width="0.914004"/>
<path d="M155.876 81.79C155.566 79.2858 155.678 75.7627 156.611 70.8953C159.112 57.8582 164.291 54.2864 173.399 55.5365C182.507 56.7867 185.186 63.5731 183.936 68.3951C182.936 72.2526 181.031 73.0383 180.721 73.2169C181.864 80.7892 179.292 85.1825 177.864 86.4326C178.399 86.9684 178.756 90.0044 176.971 90.0044C175.185 90.0044 174.649 90.0044 172.506 90.0044C170.791 90.0044 170.244 88.8138 170.184 88.2185H165.719C165.541 88.8138 164.862 90.0044 163.576 90.0044C162.778 90.0044 161.435 90.0044 160.245 90.0044C159.312 90.0044 158.633 89.12 158.873 88.2185V88.2185L159.112 87.3263" stroke="#1C0F1A" stroke-width="1.37101"/>
<mask id="mask2_2366_3122" style="mask-type:alpha" maskUnits="userSpaceOnUse" x="150" y="70" width="12" height="13">
<path d="M150.719 77.1467C153.842 72.6036 156.613 70.1816 156.613 70.1816L161.256 75.8965C160.839 76.6704 159.327 78.8611 156.613 81.4329C153.219 84.6475 148.755 80.0041 150.719 77.1467Z" fill="#E1AC7A"/>
</mask>
<g mask="url(#mask2_2366_3122)">
<path d="M150.719 77.1467C153.842 72.6036 156.613 70.1816 156.613 70.1816L161.256 75.8965C160.839 76.6704 159.327 78.8611 156.613 81.4329C153.219 84.6475 148.755 80.0041 150.719 77.1467Z" fill="#E1AC7A"/>
<path d="M154.292 78.2979C156.578 78.4407 157.745 80.5005 158.042 81.5125L161.436 88.8346L148.398 89.1918L142.326 82.9412C144.291 79.6671 148.791 73.3331 151.077 74.1903C153.363 75.0475 154.173 77.2859 154.292 78.2979Z" fill="#AC716A"/>
</g>
<path d="M156.97 70.3594C156.97 70.3594 153.842 72.6028 150.719 77.1458C148.755 80.0033 153.219 84.6466 156.613 81.432C159.327 78.8603 160.839 76.6696 161.256 75.8957" stroke="#1C0F1A" stroke-width="1.37101"/>
<path d="M180.832 75.0488C179.085 77.3654 160.779 84.7332 156.184 84.2775C155.266 84.1865 155.576 82.0747 155.576 82.0747" stroke="#1D0F06" stroke-width="0.914004"/>
<path d="M172.646 76.9942C172.646 76.5038 172.164 76.1592 171.7 76.3187L169.401 77.1093C169.113 77.2085 168.919 77.4799 168.919 77.7848V80.6461C168.919 81.1556 169.438 81.5013 169.908 81.3058L172.206 80.3508C172.473 80.24 172.646 79.9797 172.646 79.6911V76.9942Z" fill="#6A3D27"/>
<path fill-rule="evenodd" clip-rule="evenodd" d="M173.182 76.9933C173.182 76.135 172.336 75.532 171.525 75.8112L169.227 76.6018C168.722 76.7754 168.383 77.2502 168.383 77.7839V80.6452C168.383 81.5368 169.29 82.1417 170.113 81.7996L172.411 80.8446C172.878 80.6508 173.182 80.1953 173.182 79.6902V76.9933ZM171.873 76.8244C171.989 76.7846 172.11 76.8707 172.11 76.9933V79.6902C172.11 79.7624 172.067 79.8274 172 79.8551L169.702 80.8101C169.584 80.859 169.455 80.7726 169.455 80.6452V77.7839C169.455 77.7077 169.503 77.6399 169.575 77.6151L171.873 76.8244Z" fill="#E8A635" stroke="#1C0F1A" stroke-width="0.914004"/>
<path fill-rule="evenodd" clip-rule="evenodd" d="M173.902 77.5431C173.787 77.2708 173.472 77.1439 173.2 77.2596L170.881 78.2457C170.608 78.3615 170.481 78.6761 170.597 78.9484C170.713 79.2207 171.027 79.3476 171.3 79.2318L173.619 78.2458C173.891 78.13 174.018 77.8154 173.902 77.5431Z" fill="#E8A635" stroke="#1C0F1A" stroke-width="0.914004"/>
</g>
<defs>
<clipPath id="clip0_2366_3122">
<rect width="224" height="90" fill="white"/>
</clipPath>
<clipPath id="clip1_2366_3122">
<rect width="85.8947" height="90.9474" fill="white" transform="translate(26.5273 -0.947266)"/>
</clipPath>
</defs>
</svg>
