<svg width="192" height="304" viewBox="0 0 192 304" fill="none" xmlns="http://www.w3.org/2000/svg">
<rect x="12" y="12" width="48" height="48" rx="8" fill="#36393A"/>
<path d="M30.1673 25.894C26.6801 27.9113 24.334 31.6816 24.334 35.9999M30.1673 25.894V30.1666M30.1673 25.894H25.8948" stroke="#818688" stroke-width="2" stroke-linecap="round" stroke-linejoin="round"/>
<path d="M25.8945 41.8335C27.9117 45.3207 31.6821 47.6668 36.0004 47.6668M25.8945 41.8335H30.1671M25.8945 41.8335V46.1061" stroke="#818688" stroke-width="2" stroke-linecap="round" stroke-linejoin="round"/>
<path d="M41.834 46.1059C45.3212 44.0887 47.6673 40.3183 47.6673 36M41.834 46.1059V41.8333M41.834 46.1059H46.1066" stroke="#818688" stroke-width="2" stroke-linecap="round" stroke-linejoin="round"/>
<path d="M46.1058 30.1667C44.0886 26.6795 40.3183 24.3334 36 24.3334M46.1058 30.1667H41.8333M46.1058 30.1667V25.8942" stroke="#818688" stroke-width="2" stroke-linecap="round" stroke-linejoin="round"/>
<path d="M38.916 30.9481C39.8028 31.4601 40.5392 32.1965 41.0512 33.0833C41.5632 33.9701 41.8327 34.976 41.8327 36C41.8327 37.0239 41.5631 38.0299 41.0511 38.9166C40.5391 39.8034 39.8027 40.5398 38.916 41.0518C38.0292 41.5637 37.0232 41.8333 35.9993 41.8333C34.9753 41.8332 33.9694 41.5637 33.0826 41.0517C32.1958 40.5397 31.4594 39.8033 30.9475 38.9165C30.4355 38.0297 30.166 37.0237 30.166 35.9998L30.1689 35.8108C30.2016 34.8034 30.4948 33.8216 31.0198 32.9612C31.5449 32.1008 32.2839 31.3911 33.1649 30.9014C34.0458 30.4116 35.0387 30.1585 36.0466 30.1667C37.0545 30.1749 38.0431 30.4441 38.916 30.9481ZM35.9993 32.4998C35.8446 32.4998 35.6963 32.5612 35.5869 32.6706C35.4775 32.78 35.416 32.9284 35.416 33.0831C34.9519 33.0831 34.5068 33.2675 34.1786 33.5957C33.8504 33.9239 33.666 34.369 33.666 34.8331C33.666 35.2972 33.8504 35.7424 34.1786 36.0705C34.5068 36.3987 34.9519 36.5831 35.416 36.5831V37.7498C35.3193 37.7551 35.2227 37.7368 35.1346 37.6963C35.0466 37.6559 34.9698 37.5945 34.9108 37.5176L34.8712 37.4587C34.7914 37.33 34.6646 37.2374 34.5178 37.2004C34.3709 37.1634 34.2154 37.1851 34.0842 37.2607C33.953 37.3363 33.8563 37.46 33.8146 37.6056C33.7729 37.7512 33.7895 37.9073 33.8608 38.0409C34.0097 38.2991 34.2221 38.515 34.4778 38.6681C34.7336 38.8213 35.0242 38.9065 35.3221 38.9159H35.416C35.4159 39.0588 35.4683 39.1969 35.5632 39.3038C35.6582 39.4107 35.7891 39.479 35.9311 39.4957L35.9993 39.4998C36.1541 39.4998 36.3024 39.4383 36.4118 39.3289C36.5212 39.2195 36.5827 39.0712 36.5827 38.9164L36.6853 38.9135C37.1401 38.8872 37.5667 38.6847 37.8745 38.3488C38.1823 38.013 38.347 37.5704 38.3336 37.1151C38.3202 36.6598 38.1299 36.2276 37.8029 35.9104C37.476 35.5932 37.0382 35.416 36.5827 35.4164V34.2498C36.7915 34.2428 36.9741 34.3314 37.0878 34.4819L37.1275 34.5409C37.2073 34.6696 37.3341 34.7622 37.4809 34.7992C37.6278 34.8361 37.7833 34.8145 37.9145 34.7389C38.0457 34.6633 38.1424 34.5396 38.1841 34.394C38.2258 34.2484 38.2092 34.0923 38.1378 33.9587C37.989 33.7004 37.7767 33.4843 37.521 33.3311C37.2652 33.1779 36.9746 33.0925 36.6766 33.0831H36.5827C36.5827 32.9284 36.5212 32.78 36.4118 32.6706C36.3024 32.5612 36.1541 32.4998 35.9993 32.4998ZM36.5827 36.5831C36.7374 36.5831 36.8858 36.6446 36.9952 36.754C37.1046 36.8634 37.166 37.0117 37.166 37.1664C37.166 37.3212 37.1046 37.4695 36.9952 37.5789C36.8858 37.6883 36.7374 37.7498 36.5827 37.7498V36.5831ZM35.416 34.2498V35.4164C35.2613 35.4164 35.1129 35.355 35.0035 35.2456C34.8941 35.1362 34.8327 34.9878 34.8327 34.8331C34.8327 34.6784 34.8941 34.53 35.0035 34.4206C35.1129 34.3112 35.2613 34.2498 35.416 34.2498Z" fill="#818688"/>
<path opacity="0.04" fill-rule="evenodd" clip-rule="evenodd" d="M192 16C192 7.16344 184.837 0 176 0H88C79.1634 0 72 7.16344 72 16V56C72 64.8366 64.8366 72 56 72H16C7.16344 72 0 79.1635 0 88V289C0 297.837 7.16344 305 16 305H176C184.837 305 192 297.837 192 289V96V72V16Z" fill="white"/>
</svg>
