<svg width="224" height="324" viewBox="0 0 224 324" fill="none" xmlns="http://www.w3.org/2000/svg">
<rect x="12" y="12" width="48" height="48" rx="8" fill="#36393A"/>
<path d="M37.691 35.4749L40.0827 33.0833M33.666 37.1666C33.666 37.7854 33.9118 38.3789 34.3494 38.8165C34.787 39.2541 35.3805 39.4999 35.9993 39.4999C36.6182 39.4999 37.2117 39.2541 37.6493 38.8165C38.0868 38.3789 38.3327 37.7854 38.3327 37.1666C38.3327 36.5477 38.0868 35.9543 37.6493 35.5167C37.2117 35.0791 36.6182 34.8333 35.9993 34.8333C35.3805 34.8333 34.787 35.0791 34.3494 35.5167C33.9118 35.9543 33.666 36.5477 33.666 37.1666Z" stroke="#818688" stroke-width="2" stroke-linecap="round" stroke-linejoin="round"/>
<path d="M29.4667 45.3334C27.7612 43.9778 26.5196 42.1253 25.9139 40.0326C25.3083 37.9398 25.3685 35.7105 26.0864 33.6536C26.8043 31.5967 28.1442 29.814 29.9205 28.5526C31.6968 27.2912 33.8214 26.6135 36 26.6135C38.1786 26.6135 40.3032 27.2912 42.0795 28.5526C43.8558 29.814 45.1957 31.5967 45.9136 33.6536C46.6315 35.7105 46.6917 37.9398 46.0861 40.0326C45.4804 42.1253 44.2388 43.9778 42.5333 45.3334H29.4667Z" stroke="#818688" stroke-width="2" stroke-linecap="round" stroke-linejoin="round"/>
<path opacity="0.04" fill-rule="evenodd" clip-rule="evenodd" d="M224 16C224 7.16344 216.837 0 208 0H88C79.1634 0 72 7.16344 72 16V56C72 64.8366 64.8366 72 56 72H16C7.16344 72 0 79.1634 0 88V308C0 316.837 7.16345 324 16 324H208C216.837 324 224 316.837 224 308V96V72V16Z" fill="white"/>
</svg>
