<svg width="355" height="144" viewBox="0 0 355 144" fill="none" xmlns="http://www.w3.org/2000/svg">
<path d="M267.906 76.8595C283.059 60.1131 353.7 73.8336 353.693 165.244L317.779 201.532L-120.482 206.274C-120.482 206.274 -136.751 162.838 -131.076 138.544C-123.929 107.948 -78.1085 96.184 -76.3326 104.799C-68.3761 88.1541 -52.358 81.4603 -45.3434 80.1941C-60.3409 80.0547 -89.7044 76.1242 -87.1796 61.517C-84.6548 46.9098 -60.6497 43.3962 -48.9625 43.4652C-62.3992 36.6484 -53.6184 18.4166 -15.8953 12.1754C12.6869 7.44661 24.5571 30.6618 24.695 40.4677C32.8429 33.9746 47.786 18.2182 60.2889 34.4638C71.1861 48.6229 66.8187 59.0209 67.9364 64.96C95.4184 60.0899 108.617 82.3689 111.782 94.1172C128.869 91.3549 142.007 103.383 146.44 109.743C159.544 88.5416 179.019 87.9174 187.119 90.2555C192.141 72.3205 198.813 61.4005 217.645 54.7976C246.79 44.5793 263.296 65.2479 267.906 76.8595Z" fill="#89E4E9"/>
<g clip-path="url(#clip0_2219_639)">
<rect width="17.8896" height="28.358" transform="matrix(1 -0.000216514 -0.000217127 1 141.315 124.432)" fill="#3C405D" stroke="#262A48" stroke-width="3"/>
<path d="M129.791 123.231C130.07 120.733 131.068 117.564 131.532 116.291L141.276 110.391L166.326 117.325C167.717 119.175 169.874 123.708 167.368 127.039C164.862 130.371 161.22 128.891 159.713 127.735C159.259 129.246 159.086 130.649 153.797 131.206C150.017 131.603 146.102 130.597 145.447 129.126C145.008 129.984 144.333 130.444 141.272 130.168C138.21 129.891 136.749 128.434 136.401 127.74C134.313 129.128 129.443 126.354 129.791 123.231Z" fill="#53BAA6" stroke="#285A6B" stroke-width="3"/>
<path d="M172.241 113.16C171.128 109.829 167.372 102.984 165.633 99.977L156.587 97.8972L140.582 97.9006C137.333 101.602 130.559 109.491 129.445 111.434C128.053 113.863 127.008 116.639 131.183 118.026C134.523 119.136 135.011 117.872 136.403 116.29C136.541 118.103 136.193 120.176 143.708 121.84C151.223 123.504 152.196 121.193 153.103 119.756L153.116 119.777C154.123 121.299 155.1 122.776 158.321 122.531C162.485 122.213 163.881 121.237 164.237 119.754C168.76 121.488 173.632 117.323 172.241 113.16Z" fill="#53BAA6" stroke="#285A6B" stroke-width="3"/>
<path d="M167.722 97.2024C165.288 92.3455 155.548 78.1224 151.721 77.7763C145.458 77.7776 141.628 89.9219 139.54 94.7798C137.752 98.9382 136.058 103.107 140.929 104.147C144.826 104.979 146.844 104.146 147.193 102.064C147.888 104.146 148.584 104.146 154.151 104.144C158.605 104.143 160.414 102.987 160.762 102.408C163.197 105.183 170.157 102.059 167.722 97.2024Z" fill="#53BAA6" stroke="#285A6B" stroke-width="3"/>
<rect width="27.8351" height="30.5321" transform="matrix(1 -0.000216514 -0.000217127 1 80.248 121.118)" fill="#3C405D" stroke="#262A48" stroke-width="3"/>
<path d="M50.6743 113.836C53.7375 107.729 56.3595 103.426 57.2877 102.038L71.9032 92.6671C91.1556 93.4725 130.634 97.3036 134.529 106.185C139.398 117.286 139.397 120.756 131.046 125.615C126.01 128.545 121.964 125.822 118.521 121.801C118.55 126.818 115.003 130.646 103.557 131.519C89.912 132.56 88.3898 129.426 86.8573 125.625C85.6407 129.984 82.6002 130.844 75.0265 130.138C67.4527 129.431 67.5084 127.1 67.3736 121.812C64.938 123.907 63.0687 126.03 58.7194 124.73C55.2403 123.69 46.8453 121.47 50.6743 113.836Z" fill="#389688" stroke="#0B3D5D" stroke-width="3"/>
<path d="M48.5923 92.6742C52.5901 85.5299 60.0781 75.2082 63.2106 70.1188L71.9103 64.9126L127.232 67.6763C129.782 72.6488 136.066 84.6058 140.796 92.6542C146.709 102.715 143.355 105.652 137.091 109.123C132.081 111.9 126.995 109.432 124.092 106.189C123.952 110.708 122.011 112.712 114.348 113.477C105.998 114.312 103.935 113.626 102.171 109.663C100.198 114.955 94.1766 113.962 79.9024 113.485C69.351 113.132 66.6852 110.204 67.3785 104.467C61.7752 109.882 58.2002 108.763 54.852 107.245C51.0257 105.51 44.2162 100.495 48.5923 92.6742Z" fill="#389688" stroke="#0B3D5D" stroke-width="3"/>
<path d="M57.2968 64.2218C61.1255 58.6696 67.1581 50.2257 69.8266 45.8304L81.3105 36.807L120.974 45.1254C125.032 49.7506 133.566 60.7357 135.234 67.6744C137.32 76.3479 118.13 80.4183 110.476 80.42C105.939 80.4209 103.414 79.3398 101.483 74.6209C99.5977 79.6309 98.3063 81.0001 87.9118 80.5221C75.6745 79.9593 73.9456 77.2906 74.3438 73.2389C70.78 76.9623 68.0801 77.4038 63.5572 76.0169C59.0343 74.6301 53.3829 69.8976 57.2968 64.2218Z" fill="#389688" stroke="#0B3D5D" stroke-width="3"/>
<path d="M128.63 42.6951C127.239 36.1033 113.676 4.88014 96.6274 4.88383C83.0579 4.88677 66.3508 32.6469 65.3051 40.9741C64.2595 49.3012 76.4367 52.4212 83.7431 53.4605C89.5883 54.2919 90.1664 52.0443 91.3986 49.6423C92.7532 53.9348 93.4728 55.0759 105.315 54.4967C113.354 54.1035 113.916 52.3209 114.015 48.5965C119.973 53.9467 130.02 49.287 128.63 42.6951Z" fill="#389688" stroke="#0B3D5D" stroke-width="3"/>
</g>
<mask id="mask0_2219_639" style="mask-type:alpha" maskUnits="userSpaceOnUse" x="280" y="110" width="19" height="16">
<path d="M296.934 120.977C289.751 125.937 280.288 125.807 280.288 125.807L281.362 115.653C282.415 114.743 285.165 113.586 290.631 111.312C297.465 108.47 301.452 117.857 296.934 120.977Z" fill="#E1AC7A"/>
</mask>
<g mask="url(#mask0_2219_639)">
<path d="M296.934 120.977C289.751 125.937 280.168 126.427 280.168 126.427L280.64 116.885C281.693 115.975 285.165 113.586 290.632 111.312C297.465 108.469 301.452 117.857 296.934 120.977Z" fill="#E1AC7A"/>
<path d="M292.298 117.261C288.996 115.76 288.432 112.055 288.562 110.39L287.67 97.6434L307.161 104.466L312.62 117.138C307.867 120.875 297.637 127.708 294.738 125.151C291.839 122.594 291.904 118.825 292.298 117.261Z" fill="#AC716A"/>
</g>
<path d="M279.521 126.109C279.521 126.109 289.751 125.938 296.934 120.977C301.452 117.858 297.464 108.47 290.631 111.313C285.165 113.587 281.755 114.164 280.702 115.074" stroke="#1C0F1A" stroke-width="2.17076"/>
<path d="M297.661 130.43C294.086 133.199 292.74 123.108 292.74 123.108C292.74 123.108 282.636 107.989 281.267 106.253C279.556 104.083 270.274 95.8732 268.705 92.7621C266.538 88.4678 250.646 65.3506 245.735 57.8447C245.073 56.9588 244.041 54.9835 245.207 54.1702C246.372 53.3568 247.978 55.0581 248.636 56.0104C251.903 60.5084 265.962 80.0738 269.392 85.1976C273.679 91.6024 282.124 99.6119 285.469 102.207C288.814 104.803 298.461 121.623 299.985 123.766C301.509 125.91 302.129 126.969 297.661 130.43Z" fill="#D2B0FF" stroke="#1C0F1A" stroke-width="2.17076" stroke-linejoin="round"/>
<mask id="path-16-outside-1_2219_639" maskUnits="userSpaceOnUse" x="241.212" y="56.2285" width="28.2316" height="27.0165" fill="black">
<rect fill="white" x="241.212" y="56.2285" width="28.2316" height="27.0165"/>
<path fill-rule="evenodd" clip-rule="evenodd" d="M248.308 72.5066C245.732 71.8592 247.065 67.8989 249.302 66.4684L255.391 62.575C257.409 61.2842 260.489 61.7457 261.012 64.0839C261.129 64.6074 260.96 65.3157 260.572 66.0857C259.9 67.4211 259.706 69.0384 260.56 70.265C261.556 71.6933 261.224 73.6554 259.815 74.6774L259.619 74.8193C258.116 75.9093 256.019 75.6102 254.881 74.1433L254.789 74.0256C253.807 72.7593 252.119 72.4085 250.53 72.6151C249.78 72.7126 249.041 72.691 248.308 72.5066Z"/>
</mask>
<path fill-rule="evenodd" clip-rule="evenodd" d="M248.308 72.5066C245.732 71.8592 247.065 67.8989 249.302 66.4684L255.391 62.575C257.409 61.2842 260.489 61.7457 261.012 64.0839C261.129 64.6074 260.96 65.3157 260.572 66.0857C259.9 67.4211 259.706 69.0384 260.56 70.265C261.556 71.6933 261.224 73.6554 259.815 74.6774L259.619 74.8193C258.116 75.9093 256.019 75.6102 254.881 74.1433L254.789 74.0256C253.807 72.7593 252.119 72.4085 250.53 72.6151C249.78 72.7126 249.041 72.691 248.308 72.5066Z" fill="#9849FF"/>
<path d="M250.53 72.6151L250.25 70.4625L250.53 72.6151ZM259.815 74.6774L261.089 76.4347L259.815 74.6774ZM259.619 74.8193L260.893 76.5766L259.619 74.8193ZM256.56 64.4039L250.471 68.2972L248.132 64.6395L254.221 60.7462L256.56 64.4039ZM258.633 65.1097C258.768 64.8423 258.835 64.6421 258.863 64.5167C258.894 64.3802 258.861 64.4128 258.894 64.558L263.13 63.6099C263.414 64.8758 262.971 66.1486 262.511 67.0617L258.633 65.1097ZM258.345 73.062L258.54 72.9201L261.089 76.4347L260.893 76.5766L258.345 73.062ZM256.504 72.6947L256.596 72.8125L253.166 75.4742L253.075 75.3565L256.504 72.6947ZM248.837 70.4014C249.266 70.5092 249.726 70.5305 250.25 70.4625L250.809 74.7678C249.834 74.8946 248.816 74.8728 247.778 74.6119L248.837 70.4014ZM253.075 75.3565C252.755 74.9447 252.005 74.6123 250.809 74.7678L250.25 70.4625C252.233 70.2047 254.858 70.5738 256.504 72.6947L253.075 75.3565ZM262.342 69.024C264.013 71.4228 263.456 74.7183 261.089 76.4347L258.54 72.9201C258.992 72.5925 259.098 71.9637 258.779 71.506L262.342 69.024ZM262.511 67.0617C262.022 68.0344 262.129 68.7193 262.342 69.024L258.779 71.506C257.282 69.3574 257.779 66.8079 258.633 65.1097L262.511 67.0617ZM250.471 68.2972C250.2 68.4708 249.897 68.7636 249.631 69.1515C249.366 69.5386 249.191 69.9418 249.114 70.2731C249.031 70.6295 249.097 70.7303 249.065 70.655C248.99 70.4743 248.821 70.3973 248.837 70.4014L247.778 74.6119C246.507 74.2922 245.539 73.4774 245.059 72.3273C244.623 71.2827 244.678 70.1826 244.886 69.2892C245.295 67.5321 246.499 65.6839 248.132 64.6395L250.471 68.2972ZM260.893 76.5766C258.442 78.3543 255.022 77.8665 253.166 75.4742L256.596 72.8125C257.016 73.3539 257.79 73.4643 258.345 73.062L260.893 76.5766ZM254.221 60.7462C255.719 59.7886 257.587 59.4767 259.242 59.8514C260.947 60.2376 262.645 61.4395 263.13 63.6099L258.894 64.558C258.856 64.3901 258.753 64.1922 258.283 64.0857C257.762 63.9678 257.081 64.0706 256.56 64.4039L254.221 60.7462Z" fill="#1C0F1A" mask="url(#path-16-outside-1_2219_639)"/>
<path opacity="0.6" d="M255.421 73.1536C256.186 74.2651 257.695 74.5417 258.81 73.7747C259.917 73.0133 260.193 71.5017 259.428 70.3904C258.664 69.2803 257.154 69.006 256.038 69.7744C254.935 70.534 254.66 72.0453 255.421 73.1536ZM258.494 71.0516C258.226 71.6283 258.158 72.2367 258.148 72.8592C257.58 72.564 256.97 72.5365 256.354 72.5187C256.635 71.9438 256.685 71.3347 256.688 70.7104C257.272 70.9247 257.856 71.1004 258.494 71.0516Z" fill="white"/>
<path d="M297.107 125.872C296.727 126.335 296.043 126.403 295.579 126.023C295.116 125.642 295.049 124.958 295.429 124.495L297.107 125.872ZM294.232 122.058L294.652 123.059L294.232 122.058ZM295.429 124.495C295.761 124.091 295.776 123.539 295.602 123.208C295.526 123.062 295.433 122.992 295.34 122.961C295.249 122.93 295.035 122.898 294.652 123.059L293.811 121.057C294.572 120.738 295.337 120.67 296.032 120.904C296.726 121.137 297.226 121.63 297.525 122.201C298.102 123.303 297.992 124.794 297.107 125.872L295.429 124.495ZM294.652 123.059C294.4 123.165 294.225 123.364 294.159 123.863C294.087 124.404 294.181 125.128 294.392 125.926C294.598 126.705 294.89 127.463 295.136 128.034C295.258 128.317 295.366 128.55 295.443 128.71C295.482 128.79 295.512 128.851 295.532 128.892C295.543 128.912 295.55 128.927 295.555 128.936C295.557 128.941 295.559 128.944 295.56 128.946C295.561 128.947 295.561 128.948 295.561 128.948C295.561 128.948 295.561 128.948 295.561 128.948C295.561 128.948 295.561 128.948 295.561 128.948C295.561 128.947 295.561 128.947 294.598 129.449C293.636 129.95 293.636 129.95 293.635 129.95C293.635 129.95 293.635 129.95 293.635 129.949C293.635 129.949 293.635 129.948 293.634 129.948C293.634 129.946 293.633 129.945 293.632 129.943C293.629 129.938 293.627 129.933 293.623 129.926C293.616 129.912 293.606 129.892 293.593 129.866C293.567 129.816 293.531 129.743 293.487 129.651C293.399 129.468 293.278 129.208 293.142 128.892C292.872 128.265 292.536 127.4 292.293 126.481C292.055 125.582 291.879 124.534 292.007 123.576C292.14 122.576 292.634 121.552 293.811 121.057L294.652 123.059Z" fill="#1C0F1A"/>
<path d="M291.571 121.09L296.321 117.876L294.667 115.199L289.703 118.257L291.571 121.09Z" fill="#F9BF76" stroke="#1C0F1A" stroke-width="2.17076" stroke-linecap="round" stroke-linejoin="round"/>
<path d="M289.588 118.217L294.648 115.165L292.816 112.424L287.952 115.747L289.588 118.217Z" fill="#FF9763" stroke="#1C0F1A" stroke-width="2.17076" stroke-linecap="round" stroke-linejoin="round"/>
<path d="M287.833 115.618L292.917 112.418L291.289 109.878L286.237 113.102L287.833 115.618Z" fill="#F9BF76" stroke="#1C0F1A" stroke-width="2.17076" stroke-linecap="round" stroke-linejoin="round"/>
<path d="M286.138 112.966L291.107 109.876L289.421 107.301L284.367 110.409L286.138 112.966Z" fill="#FF9763" stroke="#1C0F1A" stroke-width="2.17076" stroke-linecap="round" stroke-linejoin="round"/>
<path d="M246.599 35.644C256.528 36.5459 263.845 45.3259 262.944 55.2544C262.042 65.1831 253.262 72.5007 243.333 71.5988C233.405 70.697 226.087 61.917 226.989 51.9885C227.891 42.0599 236.671 34.7422 246.599 35.644Z" fill="#DEC4FF" stroke="#1C0F1A" stroke-width="2.17076"/>
<path d="M260.664 55.0477C261.451 46.3778 255.061 38.7112 246.392 37.9237C237.722 37.1361 230.055 43.5261 229.268 52.1958C228.48 60.8656 234.87 68.5324 243.54 69.3199C252.21 70.1074 259.876 63.7176 260.664 55.0477Z" fill="#B276FF"/>
<path opacity="0.96" d="M236.105 50.0044C236.402 47.8594 234.732 45.8207 238.212 42.9259C240.864 40.7207 243.242 42.9845 245.582 43.5596C249.515 44.5264 252.528 42.4568 254.673 46.7395C256.186 49.7608 253.612 51.3681 253.982 52.9055C254.346 54.416 256.811 55.0484 255.87 57.1977C254.974 59.2451 250.815 58.4744 249.29 59.5474C247.873 60.5443 248.078 62.2357 247.206 63.6169C246.236 65.1541 243.143 65.8541 241.507 64.7815C239.81 63.6687 240.369 61.0624 238.704 59.3712C237.059 57.7003 234.431 58.5684 233.863 56.2054C233.191 53.4047 235.82 52.0571 236.104 50.0042L236.105 50.0044Z" fill="#9747FF"/>
<g opacity="0.26">
<path d="M249.247 67.1765C252.872 65.6707 255.335 63.7799 257.272 60.8105C258.086 59.5632 259.426 56.873 258.269 55.4157C257.335 54.2382 255.805 55.3036 255.232 56.2716C254.482 57.538 254.169 59.0996 253.588 60.4402C252.704 62.4805 251.227 63.9278 249.396 65.1317C247.454 66.4087 245.18 67.0829 245.502 67.6682C245.864 68.329 248.356 67.5469 249.247 67.1765Z" fill="white"/>
<path d="M253.416 42.7037C255.751 44.4712 257.266 46.6616 258.197 49.3775C258.508 50.2833 258.99 51.7225 258.041 52.4465C257.549 52.8224 256.92 52.1847 256.719 51.7993C256.372 51.1383 256.134 49.6146 255.284 48.192C253.36 44.9694 247.9 43.9336 249.099 42.0396C249.921 40.741 252.413 41.9447 253.416 42.7039L253.416 42.7037Z" fill="white"/>
</g>
<path d="M237.741 49.6027L238.368 47.1573L240.375 46.8271L238.46 46.1407L238.284 43.6223L237.657 46.0677L235.65 46.3979L237.565 47.0843L237.741 49.6027Z" fill="white"/>
<path d="M242.46 51.4049L242.875 49.7861L244.204 49.5674L242.936 49.1131L242.82 47.4458L242.405 49.0648L241.076 49.2833L242.344 49.7378L242.46 51.4049Z" fill="white"/>
<path d="M238.678 62.0333L239.191 60.0314L240.834 59.7612L239.267 59.1992L239.123 57.1378L238.61 59.1395L236.966 59.4099L238.534 59.9717L238.678 62.0333Z" fill="#E1AC7A"/>
<path d="M251.638 52.916L252.042 51.3425L253.333 51.1301L252.101 50.6883L251.988 49.068L251.584 50.6414L250.293 50.8539L251.525 51.2955L251.638 52.916Z" fill="#E1AC7A"/>
<path d="M250.048 62.9534L250.675 60.508L252.682 60.1778L250.768 59.4913L250.592 56.9729L249.965 59.4183L247.958 59.7487L249.872 60.4351L250.048 62.9534Z" fill="white"/>
<path d="M272.846 86.0338C274.882 86.7124 274.826 88.5787 274.543 89.427L267.757 88.8614C268.605 87.6361 270.811 85.3551 272.846 86.0338Z" fill="#AB706A" stroke="#1C0F1A" stroke-width="2.17076"/>
<path d="M253.053 89.1437C256.22 87.334 259.839 89.1437 261.253 90.2748L255.598 94.799C252.204 93.9507 249.094 91.4059 253.053 89.1437Z" fill="#AB706A" stroke="#1C0F1A" stroke-width="2.17076"/>
<mask id="mask1_2219_639" style="mask-type:alpha" maskUnits="userSpaceOnUse" x="237" y="89" width="55" height="55">
<path fill-rule="evenodd" clip-rule="evenodd" d="M291.226 109.785C293.205 102.15 288.964 91.4052 274.543 89.4259C260.336 87.4759 252.166 92.9356 248.142 112.835L247.962 112.614C247.962 112.614 243.576 116.449 238.631 123.642C235.733 127.856 241.669 134.524 246.838 131.304C247.706 137.715 250.351 139.758 251.921 139.758L251.761 140.36C251.271 142.197 252.656 144 254.557 144H258.99C261.026 144 262.101 142.115 262.384 141.172H269.453C269.547 142.115 270.414 144 273.129 144H280.198C283.026 144 282.46 139.193 281.612 138.345C283.874 136.365 287.946 129.409 286.136 117.42V117.062C288.202 115.648 290.307 113.329 291.226 109.785Z" fill="#E1AC7A"/>
</mask>
<g mask="url(#mask1_2219_639)">
<path fill-rule="evenodd" clip-rule="evenodd" d="M291.226 109.785C293.205 102.15 288.964 91.4052 274.543 89.4259C260.336 87.4759 252.166 92.9356 248.142 112.835L247.962 112.614C247.962 112.614 243.576 116.449 238.631 123.642C235.733 127.856 241.669 134.524 246.838 131.304C247.706 137.715 250.351 139.758 251.921 139.758L251.761 140.36C251.271 142.197 252.656 144 254.557 144H258.99C261.026 144 262.101 142.115 262.384 141.172H269.453C269.547 142.115 270.414 144 273.129 144H280.198C283.026 144 282.46 139.193 281.612 138.345C283.874 136.365 287.946 129.409 286.136 117.42V117.062C288.202 115.648 290.307 113.329 291.226 109.785Z" fill="#E1AC7A"/>
<path d="M279.067 105.545C277.936 96.0444 285.193 94.4232 288.964 94.8002C290.849 99.0419 293.997 108.487 291.509 112.332C288.398 117.139 280.481 117.422 279.067 105.545Z" fill="#B77150"/>
<path d="M286.985 111.766C286.985 110.069 286.985 106.223 286.985 104.414C286.985 102.152 285.854 101.021 282.461 101.021" stroke="#5A3030" stroke-width="1.44717" stroke-linecap="round"/>
<path d="M287.833 99.6064C287.362 99.9835 286.363 100.964 286.136 101.869" stroke="#5A3030" stroke-width="1.44717" stroke-linecap="round"/>
<path d="M268.039 100.737L262.101 102.999" stroke="black" stroke-width="4.34152" stroke-linecap="round"/>
<path d="M247.68 128.733C271.885 139.365 292.263 132.409 299.427 127.602L305.082 168.32L224.776 166.907C222.325 149.752 223.475 118.101 247.68 128.733Z" fill="#C69273"/>
<path d="M250.79 144L251.544 141.172L251.921 139.759C250.613 139.099 248.159 136.762 247.679 134.952" stroke="#1C0F1A" stroke-width="2.17076"/>
<rect width="40.1531" height="4.5243" transform="matrix(-1 0 0 1 283.874 142.021)" fill="#4C3731"/>
</g>
<path d="M247.346 135.111C262.019 133.427 281.862 125.008 286.553 120.138L285.854 117.421L282.743 119.118C277.579 121.757 263.793 127.657 250.172 129.015L247.948 129.58H246.266C246.266 130.901 246.119 135.252 247.346 135.111Z" fill="#6A3D27"/>
<path d="M285.601 117.436C280.436 120.075 263.846 127.374 250.225 128.732" stroke="#1D0F06" stroke-width="1.44717"/>
<path d="M246.798 130.994C246.307 127.029 246.484 121.451 247.962 113.744C251.921 93.1019 260.122 87.4465 274.543 89.4259C288.964 91.4052 293.205 102.15 291.226 109.785C289.643 115.893 286.627 117.137 286.136 117.42C287.946 129.409 283.874 136.365 281.612 138.345C282.46 139.193 283.026 144 280.198 144C277.37 144 276.522 144 273.129 144C270.414 144 269.547 142.115 269.453 141.172H262.384C262.101 142.115 261.026 144 258.99 144C257.727 144 255.599 144 253.716 144C252.239 144 251.164 142.6 251.544 141.172V141.172L251.921 139.76" stroke="#1C0F1A" stroke-width="2.17076"/>
<mask id="mask2_2219_639" style="mask-type:alpha" maskUnits="userSpaceOnUse" x="237" y="112" width="19" height="21">
<path d="M238.63 123.642C243.575 116.449 247.961 112.614 247.961 112.614L255.313 121.663C254.654 122.888 252.26 126.357 247.961 130.429C242.589 135.519 235.52 128.167 238.63 123.642Z" fill="#E1AC7A"/>
</mask>
<g mask="url(#mask2_2219_639)">
<path d="M238.63 123.642C243.575 116.449 247.961 112.614 247.961 112.614L255.313 121.663C254.654 122.888 252.26 126.357 247.961 130.429C242.589 135.519 235.52 128.167 238.63 123.642Z" fill="#E1AC7A"/>
<path d="M244.285 125.464C247.904 125.69 249.752 128.951 250.223 130.553L255.596 142.147L234.954 142.712L225.339 132.816C228.45 127.632 235.576 117.603 239.195 118.96C242.815 120.317 244.096 123.861 244.285 125.464Z" fill="#AC716A"/>
</g>
<path d="M248.527 112.896C248.527 112.896 243.575 116.449 238.63 123.642C235.52 128.166 242.589 135.518 247.961 130.428C252.26 126.356 254.654 122.888 255.313 121.662" stroke="#1C0F1A" stroke-width="2.17076"/>
<path d="M286.312 120.318C283.546 123.986 254.562 135.652 247.286 134.93C245.834 134.786 246.324 131.443 246.324 131.443" stroke="#1D0F06" stroke-width="1.44717"/>
<path d="M273.35 123.4C273.35 122.623 272.585 122.077 271.851 122.33L268.212 123.582C267.755 123.739 267.449 124.168 267.449 124.651V129.182C267.449 129.988 268.269 130.536 269.014 130.226L272.653 128.714C273.075 128.539 273.35 128.127 273.35 127.67V123.4Z" fill="#6A3D27"/>
<path fill-rule="evenodd" clip-rule="evenodd" d="M274.198 123.4C274.198 122.041 272.86 121.086 271.575 121.528L267.936 122.78C267.137 123.055 266.601 123.807 266.601 124.652V129.182C266.601 130.594 268.036 131.552 269.339 131.01L272.978 129.498C273.717 129.191 274.198 128.47 274.198 127.67V123.4ZM272.127 123.133C272.31 123.069 272.502 123.206 272.502 123.4V127.67C272.502 127.784 272.433 127.887 272.327 127.931L268.688 129.443C268.502 129.521 268.297 129.384 268.297 129.182V124.652C268.297 124.531 268.374 124.424 268.488 124.384L272.127 123.133Z" fill="#E8A635" stroke="#1C0F1A" stroke-width="1.44717"/>
<path fill-rule="evenodd" clip-rule="evenodd" d="M275.338 124.27C275.155 123.838 274.657 123.637 274.226 123.821L270.554 125.382C270.123 125.565 269.922 126.063 270.105 126.495C270.288 126.926 270.786 127.127 271.218 126.943L274.89 125.382C275.321 125.199 275.522 124.701 275.338 124.27Z" fill="#E8A635" stroke="#1C0F1A" stroke-width="1.44717"/>
<defs>
<clip-path id="clip0_2219_639">
<rect width="136" height="144" fill="white" transform="translate(42)"/>
</clip-path>
</defs>
</svg>
