<svg width="32" height="32" viewBox="0 0 32 32" fill="none" xmlns="http://www.w3.org/2000/svg">
<rect width="32" height="32" rx="8" fill="#141414"/>
<path d="M24.6973 12.4477C25.2405 12.3501 25.7603 12.7104 25.8595 13.2532C25.9591 13.7984 25.597 14.3208 25.0516 14.4188L7.3366 17.6037C6.79205 17.7016 6.27144 17.3389 6.17465 16.7941C6.07814 16.2509 6.43966 15.7321 6.9827 15.6346L8.95 15.2811L8.6 13.3111C8.5 12.7711 8.86 12.2511 9.41 12.1511C9.95 12.0511 10.47 12.4111 10.57 12.9611L10.92 14.9211L20.76 13.1611L20.41 11.1911C20.31 10.6411 20.67 10.1211 21.22 10.0111C21.76 9.93111 22.28 10.2911 22.38 10.8311L22.73 12.8011L24.6973 12.4477Z" fill="white"/>
<path d="M11.3997 22.5432L13.343 18.9544C13.4894 18.684 13.7522 18.4959 14.0555 18.4446L17.2744 17.8998C17.6939 17.8288 18.1124 18.0311 18.3175 18.4039L20.5925 22.5403C20.7758 22.8736 20.5347 23.2813 20.1544 23.2813H11.8393C11.4605 23.2813 11.2193 22.8764 11.3997 22.5432Z" fill="white"/>
</svg>
