<svg width="32" height="32" viewBox="0 0 32 32" fill="none" xmlns="http://www.w3.org/2000/svg">
<rect width="32" height="32" rx="8" fill="#141414"/>
<path d="M17.45 15.55L19.5 13.5M14 17C14 17.5304 14.2107 18.0391 14.5858 18.4142C14.9609 18.7893 15.4696 19 16 19C16.5304 19 17.0391 18.7893 17.4142 18.4142C17.7893 18.0391 18 17.5304 18 17C18 16.4696 17.7893 15.9609 17.4142 15.5858C17.0391 15.2107 16.5304 15 16 15C15.4696 15 14.9609 15.2107 14.5858 15.5858C14.2107 15.9609 14 16.4696 14 17Z" stroke="white" stroke-width="2" stroke-linecap="round" stroke-linejoin="round"/>
<path d="M10.4 24.0002C8.93815 22.8382 7.87391 21.2504 7.35478 19.4566C6.83564 17.6629 6.88732 15.752 7.50265 13.989C8.11797 12.2259 9.26647 10.6979 10.789 9.61665C12.3115 8.53544 14.1326 7.95459 16 7.95459C17.8674 7.95459 19.6885 8.53544 21.211 9.61665C22.7335 10.6979 23.882 12.2259 24.4974 13.989C25.1127 15.752 25.1644 17.6629 24.6452 19.4566C24.1261 21.2504 23.0619 22.8382 21.6 24.0002H10.4Z" stroke="white" stroke-width="2" stroke-linecap="round" stroke-linejoin="round"/>
</svg>
