<svg width="88" height="92" viewBox="0 0 88 92" fill="none" xmlns="http://www.w3.org/2000/svg">
<g clip-path="url(#clip0_2021_1960)">
<rect x="66.2256" y="81.6558" width="11.5621" height="18.4617" fill="#3C405D" stroke="#262A48" stroke-width="2.61654"/>
<path d="M58.7771 80.8726C58.957 79.2463 59.6016 77.1832 59.9014 76.355L66.1979 72.5151L82.3888 77.0327C83.2883 78.2373 84.6826 81.1888 83.0635 83.3572C81.4444 85.5256 79.0907 84.5619 78.1162 83.809C77.823 84.7923 77.7115 85.7063 74.2934 86.0677C71.8502 86.326 69.3196 85.6703 68.8964 84.7125C68.6127 85.2713 68.1768 85.5708 66.1979 85.3901C64.219 85.2094 63.2745 84.2607 63.0497 83.809C61.7004 84.7125 58.5522 82.9054 58.7771 80.8726Z" fill="#44889C" stroke="#295B6B" stroke-width="2.61654"/>
<path d="M86.2118 74.3228C85.4922 72.1544 83.0636 67.6971 81.9392 65.7395L76.0923 64.3843L65.7481 64.3843C63.6493 66.7936 59.2718 71.9285 58.5522 73.1935C57.6527 74.7746 56.9781 76.5816 59.6766 77.4851C61.8354 78.2079 62.1502 77.385 63.0498 76.3557C63.1394 77.5358 62.9149 78.8855 67.7722 79.9697C72.6294 81.054 73.258 79.5495 73.8438 78.6145L73.8525 78.6277C74.5033 79.6192 75.1346 80.581 77.2169 80.4215C79.9075 80.2154 80.8101 79.5802 81.0397 78.6145C83.9631 79.7439 87.1113 77.0334 86.2118 74.3228Z" fill="#53BAA6"/>
<path fill-rule="evenodd" clip-rule="evenodd" d="M81.3423 65.6012C82.424 67.218 84.5698 70.5956 85.2191 72.2641C86.0555 74.4133 83.1283 76.5624 80.4102 75.667C80.1967 76.4326 79.3575 76.9363 76.8557 77.0997C74.9196 77.2262 74.3326 76.4636 73.7275 75.6775L73.7194 75.667C73.6923 75.7039 73.665 75.742 73.6372 75.7809C73.1068 76.5221 72.3653 77.5584 68.0741 76.7415C63.8279 75.9333 63.7585 74.9389 63.6962 74.0452C63.6922 73.9884 63.6883 73.9319 63.6833 73.876C63.5854 73.9715 63.4949 74.0648 63.4083 74.1542C62.7549 74.8281 62.3191 75.2775 60.5469 74.7715C58.9745 74.3225 58.6339 73.5921 58.8046 72.8008C58.6974 72.956 58.6121 73.0881 58.5522 73.1935C57.6527 74.7746 56.9781 76.5816 59.6766 77.4851C61.5826 78.1233 62.0512 77.5565 62.754 76.7066C62.8472 76.5939 62.9445 76.4762 63.0498 76.3557C63.0551 76.4263 63.0594 76.4975 63.0636 76.5691C63.1307 77.6963 63.2053 78.9504 67.7722 79.9697C72.3874 80.9999 73.1849 79.693 73.7553 78.7581C73.7853 78.7091 73.8146 78.6611 73.8438 78.6145L73.8525 78.6277C74.5033 79.6192 75.1346 80.581 77.2169 80.4215C79.9075 80.2154 80.8101 79.5802 81.0397 78.6145C83.9631 79.7439 87.1113 77.0334 86.2118 74.3228C85.4922 72.1544 83.0636 67.6971 81.9392 65.7395L81.3423 65.6012ZM77.714 64.7602L76.0923 64.3843L75.8123 64.3843L77.714 64.7602ZM66.1917 64.3843L65.7481 64.3843C65.0495 65.1863 64.0984 66.2902 63.1138 67.4529C64.2424 66.3071 65.394 65.1652 66.1917 64.3843Z" fill="#44879D"/>
<path d="M86.2118 74.3228C85.4922 72.1544 83.0636 67.6971 81.9392 65.7395L76.0923 64.3843L65.7481 64.3843C63.6493 66.7936 59.2718 71.9285 58.5522 73.1935C57.6527 74.7746 56.9781 76.5816 59.6766 77.4851C61.8354 78.2079 62.1502 77.385 63.0498 76.3557C63.1394 77.5358 62.9149 78.8855 67.7722 79.9697C72.6294 81.054 73.258 79.5495 73.8438 78.6145L73.8525 78.6277C74.5033 79.6192 75.1346 80.581 77.2169 80.4215C79.9075 80.2154 80.8101 79.5802 81.0397 78.6145C83.9631 79.7439 87.1113 77.0334 86.2118 74.3228Z" stroke="#295B6B" stroke-width="2.61654"/>
<path d="M83.2887 63.9328C81.7145 60.7705 75.4181 51.5096 72.9444 51.2837C68.8966 51.2837 66.4232 59.1894 65.074 62.3516C63.9191 65.0586 62.8251 67.7727 65.9734 68.4503C68.492 68.9924 69.7963 68.4503 70.0212 67.095C70.4709 68.4503 70.9206 68.4503 74.5186 68.4503C77.397 68.4503 78.5663 67.6974 78.7912 67.3209C80.3653 69.1279 84.8628 67.095 83.2887 63.9328Z" fill="#53BAA6"/>
<path fill-rule="evenodd" clip-rule="evenodd" d="M75.3576 52.8858C78.2487 55.7249 82.1046 61.5541 83.2887 63.9328C84.8628 67.095 80.3653 69.1279 78.7912 67.3209C78.5663 67.6974 77.397 68.4503 74.5186 68.4503C70.9206 68.4503 70.4709 68.4503 70.0212 67.095C69.7963 68.4503 68.492 68.9924 65.9734 68.4503C62.8251 67.7727 63.9191 65.0586 65.074 62.3516C65.2591 61.9178 65.4654 61.3946 65.694 60.8149C67.1315 57.1689 69.4519 51.2837 72.9444 51.2837C72.9515 51.2843 72.9585 51.285 72.9656 51.2858C70.0737 51.4029 68.1456 56.2931 66.9456 59.3365C66.7525 59.8264 66.5782 60.2684 66.4218 60.6349C65.446 62.922 64.5217 65.2151 67.1817 65.7877C69.3096 66.2457 70.4116 65.7877 70.6016 64.6426C70.9816 65.7877 71.3615 65.7877 74.4014 65.7877C76.8334 65.7877 77.8214 65.1515 78.0113 64.8334C79.3413 66.3602 83.1412 64.6426 81.8112 61.9708C80.8443 60.0282 77.768 55.3617 75.3576 52.8858Z" fill="#44889F"/>
<path d="M83.2887 63.9328C81.7145 60.7705 75.4181 51.5096 72.9444 51.2837C68.8966 51.2837 66.4232 59.1894 65.074 62.3516C63.9191 65.0586 62.8251 67.7727 65.9734 68.4503C68.492 68.9924 69.7963 68.4503 70.0212 67.095C70.4709 68.4503 70.9206 68.4503 74.5186 68.4503C77.397 68.4503 78.5663 67.6974 78.7912 67.3209C80.3653 69.1279 84.8628 67.095 83.2887 63.9328Z" stroke="#295B6B" stroke-width="2.61654"/>
<rect x="24.7188" y="77.9858" width="17.9899" height="19.8771" fill="#3C405D" stroke="#262A48" stroke-width="2.61654"/>
<path d="M5.60421 73.2423C7.5831 69.2669 9.27715 66.466 9.87682 65.5625L19.3216 59.4639C31.7646 59.9909 57.2803 62.4906 59.7989 68.273C62.9472 75.5011 62.9472 77.7599 57.5502 80.9221C54.2959 82.8289 51.6805 81.0554 49.4547 78.4375C49.4744 81.7038 47.1828 84.1953 39.7851 84.762C30.9663 85.4376 29.9821 83.3971 28.9912 80.9221C28.2055 83.7597 26.2405 84.3195 21.3454 83.8585C16.4504 83.3976 16.4861 81.88 16.3982 78.4375C14.8243 79.8011 13.6165 81.1828 10.8053 80.3357C8.5566 79.6581 3.13059 78.2116 5.60421 73.2423Z" fill="#265B7E" stroke="#0B3D5D" stroke-width="2.61654"/>
<path d="M4.25483 59.4641C6.8376 54.8136 11.6757 48.095 13.6996 44.7822L19.3215 41.394L55.0765 43.2011C56.7256 46.4386 60.7883 54.2238 63.8466 59.4641C67.6694 66.0146 65.5023 67.9267 61.4546 70.1854C58.2164 71.9924 54.9294 70.3849 53.0526 68.2733C52.9627 71.2151 51.7086 72.5193 46.7561 73.0167C41.3592 73.5588 40.0262 73.1122 38.8855 70.5321C37.611 73.9768 33.7192 73.3293 24.4936 73.0167C17.6742 72.7857 15.9508 70.8789 16.3981 67.1439C12.7774 70.6689 10.4667 69.9399 8.30257 68.951C5.82933 67.8207 1.42763 64.5548 4.25483 59.4641Z" fill="#389688"/>
<path fill-rule="evenodd" clip-rule="evenodd" d="M10.4668 49.711C8.3363 52.8848 5.86 56.5739 4.25483 59.4641C1.42763 64.5548 5.82933 67.8207 8.30257 68.951C10.4667 69.9399 12.7774 70.6689 16.3981 67.1439C15.9508 70.8789 17.6742 72.7857 24.4936 73.0167C25.6213 73.0549 26.6694 73.0982 27.6427 73.1383C34.6315 73.4265 37.7668 73.5558 38.8855 70.5321C40.0262 73.1122 41.3592 73.5588 46.7561 73.0167C51.7086 72.5193 52.9627 71.2151 53.0526 68.2733C54.9294 70.3849 58.2164 71.9924 61.4546 70.1854C65.5023 67.9267 67.6694 66.0146 63.8466 59.4641C60.7883 54.2238 56.7256 46.4386 55.0765 43.2011L53.8553 43.1393C55.4515 46.0661 59.1663 52.7188 61.9757 57.2241C65.5538 62.9626 63.5254 64.6376 59.7368 66.6164C56.7059 68.1994 53.6293 66.7911 51.8726 64.9413C51.7885 67.5185 50.6146 68.6609 45.9791 69.0967C40.9276 69.5716 39.68 69.1804 38.6123 66.9201C37.5652 69.5689 34.6306 69.4557 28.0891 69.2032C27.1781 69.1681 26.1971 69.1302 25.1416 69.0967C18.7586 68.8943 17.1456 67.2239 17.5643 63.9519C14.1753 67.04 12.0125 66.4013 9.98691 65.5349C7.67197 64.5448 3.55202 61.6838 6.19826 57.2241C7.70068 54.6922 10.0185 51.4604 12.0126 48.68C13.227 46.9866 14.3214 45.4607 15.0384 44.3622L20.22 41.4395L19.3215 41.394L13.6996 44.7822C12.9335 46.0361 11.7643 47.778 10.4668 49.711Z" fill="#265B7E"/>
<path d="M4.25483 59.4641C6.8376 54.8136 11.6757 48.095 13.6996 44.7822L19.3215 41.394L55.0765 43.2011C56.7256 46.4386 60.7883 54.2238 63.8466 59.4641C67.6694 66.0146 65.5023 67.9267 61.4546 70.1854C58.2164 71.9924 54.9294 70.3849 53.0526 68.2733C52.9627 71.2151 51.7086 72.5193 46.7561 73.0167C41.3592 73.5588 40.0262 73.1122 38.8855 70.5321C37.611 73.9768 33.7192 73.3293 24.4936 73.0167C17.6742 72.7857 15.9508 70.8789 16.3981 67.1439C12.7774 70.6689 10.4667 69.9399 8.30257 68.951C5.82933 67.8207 1.42763 64.5548 4.25483 59.4641Z" stroke="#0B3D5D" stroke-width="2.61654"/>
<path d="M9.87664 40.9419C12.3503 37.3279 16.2481 31.8315 17.9721 28.9704L25.3929 23.0977L51.0286 28.5187C53.6521 31.5304 59.169 38.6831 60.2484 43.2006C61.5977 48.8476 49.1958 51.4948 44.2485 51.4948C41.3167 51.4948 39.6845 50.7906 38.4356 47.7182C37.2181 50.9795 36.3836 51.8707 29.6655 51.5581C21.7564 51.19 20.6386 49.4523 20.8954 46.8147C18.5926 49.2382 16.8477 49.5252 13.9244 48.6217C11.001 47.7182 7.34782 44.6365 9.87664 40.9419Z" fill="#389688" stroke="#0B3D5D" stroke-width="2.61654"/>
<path fill-rule="evenodd" clip-rule="evenodd" d="M13.6861 35.6717C12.9825 36.6796 12.3094 37.6437 11.7229 38.4944C9.38212 41.8889 12.7636 44.7204 15.4695 45.5505C18.1755 46.3807 19.7906 46.117 21.9221 43.8902C21.6844 46.3137 22.7191 47.9103 30.04 48.2485C36.2584 48.5357 37.0308 47.7169 38.1578 44.7204C39.3138 47.5433 40.8246 48.1903 43.5384 48.1903C48.1176 48.1903 59.5971 45.758 58.3483 40.5697C57.4983 37.0385 53.6754 31.755 51.0579 28.5526C53.6931 31.5837 59.173 38.7001 60.2484 43.2009C61.5977 48.8478 49.1958 51.495 44.2485 51.495C41.3167 51.495 39.6845 50.7908 38.4356 47.7184C37.2181 50.9797 36.3836 51.8709 29.6655 51.5583C21.7564 51.1902 20.6386 49.4525 20.8954 46.8149C18.5926 49.2384 16.8477 49.5254 13.9244 48.6219C11.001 47.7184 7.34782 44.6367 9.87664 40.9421C10.5103 40.0163 11.2375 38.9669 11.9976 37.8699C14.2047 34.6849 16.6897 31.0988 17.9721 28.9706L18.6051 28.4697C17.3384 30.44 15.4196 33.1885 13.6861 35.6717Z" fill="#265B7E"/>
<path d="M9.87664 40.9419C12.3503 37.3279 16.2481 31.8315 17.9721 28.9704L25.3929 23.0977L51.0286 28.5187C53.6521 31.5304 59.169 38.6831 60.2484 43.2006C61.5977 48.8476 49.1958 51.4948 44.2485 51.4948C41.3167 51.4948 39.6845 50.7906 38.4356 47.7182C37.2181 50.9795 36.3836 51.8707 29.6655 51.5581C21.7564 51.19 20.6386 49.4523 20.8954 46.8147C18.5926 49.2382 16.8477 49.5252 13.9244 48.6217C11.001 47.7182 7.34782 44.6365 9.87664 40.9419Z" stroke="#0B3D5D" stroke-width="2.61654"/>
<path d="M55.9785 26.9384C55.0791 22.6467 46.309 2.31787 35.2901 2.31787C26.5201 2.31787 15.7261 20.388 15.0514 25.809C14.3768 31.23 22.2474 33.2629 26.9698 33.9406C30.7477 34.4827 31.1209 33.0195 31.917 31.4559C32.7931 34.2506 33.2583 34.9936 40.912 34.6182C46.1078 34.3633 46.4707 33.2029 46.5338 30.7783C50.3851 34.2622 56.878 31.23 55.9785 26.9384Z" fill="#389688" stroke="#0B3D5D" stroke-width="2.61654"/>
<path fill-rule="evenodd" clip-rule="evenodd" d="M41.5849 4.46582C48.4333 9.67631 53.3576 21.4459 53.9926 24.4756C54.8152 28.4004 48.8773 31.1734 45.3552 27.9873C45.2975 30.2046 44.9656 31.2659 40.214 31.4989C33.2146 31.8422 32.7891 31.1628 31.9879 28.607C31.9308 28.7191 31.8761 28.8308 31.822 28.941C31.1872 30.2356 30.6475 31.3361 27.4636 30.8792C23.1449 30.2595 15.9471 28.4004 16.564 23.4428C16.8694 20.9892 19.4413 15.7024 22.9338 10.9877C18.654 16.4174 15.4106 22.9152 15.0505 25.8089C14.3758 31.2299 22.2464 33.2628 26.9688 33.9404C30.4503 34.44 31.0404 33.2366 31.7346 31.821C31.7937 31.7005 31.8536 31.5785 31.916 31.4558C32.7921 34.2505 33.2574 34.9935 40.911 34.6181C46.1068 34.3632 46.4697 33.2028 46.5328 30.7782C50.3841 34.2621 56.8771 31.2299 55.9776 26.9383C55.258 23.5049 49.5009 9.80701 41.5849 4.46582Z" fill="#389688"/>
<path fill-rule="evenodd" clip-rule="evenodd" d="M41.5849 4.46582C48.4333 9.67631 53.3576 21.4459 53.9926 24.4756C54.8152 28.4004 48.8773 31.1734 45.3552 27.9873C45.2975 30.2046 44.9656 31.2659 40.214 31.4989C33.2146 31.8422 32.7891 31.1628 31.9879 28.607C31.9308 28.7191 31.8761 28.8308 31.822 28.941C31.1872 30.2356 30.6475 31.3361 27.4636 30.8792C23.1449 30.2595 15.9471 28.4004 16.564 23.4428C16.8694 20.9892 19.4413 15.7024 22.9338 10.9877C18.654 16.4174 15.4106 22.9152 15.0505 25.8089C14.3758 31.2299 22.2464 33.2628 26.9688 33.9404C30.4503 34.44 31.0404 33.2366 31.7346 31.821C31.7937 31.7005 31.8536 31.5785 31.916 31.4558C32.7921 34.2505 33.2574 34.9935 40.911 34.6181C46.1068 34.3632 46.4697 33.2028 46.5328 30.7782C50.3841 34.2621 56.8771 31.2299 55.9776 26.9383C55.258 23.5049 49.5009 9.80701 41.5849 4.46582Z" fill="#265B7E"/>
<path d="M55.9785 26.9379C55.0791 22.6463 46.309 2.31738 35.2901 2.31738C26.5201 2.31738 15.7261 20.3875 15.0514 25.8085C14.3768 31.2296 22.2474 33.2624 26.9698 33.9401C30.7477 34.4822 31.1209 33.019 31.917 31.4554C32.7931 34.2501 33.2583 34.9931 40.912 34.6177C46.1078 34.3629 46.4707 33.2024 46.5338 30.7778C50.3851 34.2617 56.878 31.2296 55.9785 26.9379Z" stroke="#0B3D5D" stroke-width="2.61654"/>
</g>
<defs>
<clipPath id="clip0_2021_1960">
<rect width="88" height="92" fill="white"/>
</clipPath>
</defs>
</svg>
