<svg width="18" height="18" viewBox="0 0 18 18" fill="none" xmlns="http://www.w3.org/2000/svg">
<g clip-path="url(#clip0_2279_6776)">
<path d="M8.96719 0.666307C4.32852 0.666307 0.567186 4.42764 0.567186 9.06631C0.567186 13.705 4.32852 17.4663 8.96719 17.4663C13.6059 17.4663 17.3672 13.705 17.3672 9.06631C17.3672 4.42764 13.6059 0.666307 8.96719 0.666307Z" fill="#1296DB"/>
<path d="M6.66309 7.73071C6.66309 8.95738 7.40975 9.37071 8.85242 9.56804C9.91642 9.72271 10.1231 9.97204 10.1231 10.4694C10.1231 10.9414 9.76309 11.276 9.06709 11.276C8.43775 11.276 8.07642 11.056 7.92709 10.5507C7.89375 10.4374 7.79242 10.3574 7.67509 10.3574H7.12309C6.96975 10.3574 6.84975 10.4987 6.88175 10.6494C7.05642 11.4494 7.59509 11.9294 8.44042 12.08V12.916C8.44042 13.0614 8.55775 13.1787 8.70309 13.1787H9.22842C9.37375 13.1787 9.49109 13.0614 9.49109 12.916V12.1027C10.5324 11.9547 11.2044 11.2627 11.2044 10.3734C11.2044 9.22271 10.5098 8.77738 9.04175 8.58004C8.04575 8.41738 7.76309 8.20271 7.76309 7.63604C7.76309 7.06938 8.24442 6.69204 8.92175 6.69204C9.83775 6.69204 10.1404 7.09338 10.2511 7.61204C10.2778 7.73471 10.3831 7.82538 10.5084 7.82538H11.1071C11.2578 7.82538 11.3764 7.68938 11.3498 7.54138C11.1978 6.66804 10.6364 6.02671 9.49109 5.87071V5.04138C9.49109 4.89604 9.37375 4.77871 9.22842 4.77871H8.70309C8.55775 4.77871 8.44042 4.89604 8.44042 5.04138V5.87071C7.35642 6.04271 6.66309 6.79738 6.66309 7.73071Z" fill="white"/>
<path d="M10.7656 4.04817C12.7763 4.78417 14.215 6.71751 14.215 8.98018C14.215 11.2428 12.7763 13.1748 10.7656 13.9122C10.6403 13.9575 10.5403 14.1095 10.5403 14.2428V14.7322C10.5403 14.9308 10.695 15.0428 10.8843 14.9828C13.4256 14.1695 15.2656 11.7895 15.2656 8.97884C15.2656 6.16817 13.4256 3.78817 10.8843 2.97618C10.695 2.91617 10.5403 3.02817 10.5403 3.22684V3.71618C10.5403 3.85084 10.6403 4.00151 10.7656 4.04817ZM7.04562 14.9815C7.23496 15.0415 7.38963 14.9295 7.38963 14.7308V14.2415C7.38963 14.1082 7.28963 13.9562 7.16429 13.9108C5.15363 13.1748 3.71496 11.2415 3.71496 8.97884C3.71496 6.71618 5.15363 4.78417 7.16429 4.04684C7.30163 3.99618 7.38963 3.86151 7.38963 3.71618V3.22684C7.38963 3.02817 7.23496 2.91617 7.04562 2.97618C4.50429 3.78817 2.66429 6.16817 2.66429 8.97884C2.66429 11.7895 4.50563 14.1695 7.04562 14.9815Z" fill="white"/>
</g>
<defs>
<clip-path id="clip0_2279_6776">
<rect width="18" height="18" fill="white" transform="matrix(-1 0 0 -1 18 18)"/>
</clip-path>
</defs>
</svg>
