<svg width="24" height="24" viewBox="0 0 24 24" fill="none" xmlns="http://www.w3.org/2000/svg">
<path d="M18 8.88889V6.16667C18 5.52234 17.3895 5 16.6364 5H4.36364C3.61052 5 3 5.52234 3 6.16667V17.8333C3 18.4777 3.61052 19 4.36364 19H16.6364C17.3895 19 18 18.4777 18 17.8333V15.1111" stroke="white" stroke-width="2" stroke-linejoin="round"/>
<path d="M19.8 9H14.2C13.5373 9 13 9.50368 13 10.125V13.875C13 14.4963 13.5373 15 14.2 15H19.8C20.4627 15 21 14.4963 21 13.875V10.125C21 9.50368 20.4627 9 19.8 9Z" stroke="white" stroke-width="2" stroke-linejoin="round"/>
<path d="M15 12C15 11.4477 15.4477 11 16 11C16.5523 11 17 11.4477 17 12C17 12.5523 16.5523 13 16 13C15.4477 13 15 12.5523 15 12Z" fill="white"/>
</svg>
